{"glyphs":{"0":{"ha":833,"x_min":96,"x_max":738,"o":"m 350 563 q 368 616 350 596 q 417 636 386 636 q 465 616 447 636 q 483 563 483 596 l 483 424 q 465 370 483 390 q 417 350 447 350 q 368 370 386 350 q 350 424 350 390 l 350 563 m 247 289 q 293 167 247 213 q 417 121 339 121 q 540 167 494 121 q 586 289 586 213 l 586 711 q 540 835 586 789 q 417 881 494 881 q 293 835 339 881 q 247 711 247 789 l 247 289 m 96 289 l 96 711 q 119 836 96 781 q 183 931 142 892 q 284 992 225 971 q 417 1014 343 1014 q 549 992 490 1014 q 650 931 608 971 q 715 836 692 892 q 738 711 738 781 l 738 289 q 715 165 738 221 q 649 69 692 108 q 548 8 607 29 q 417 -14 489 -14 q 284 8 343 -14 q 183 69 225 29 q 119 165 142 108 q 96 289 96 221 z "},"1":{"ha":833,"x_min":115,"x_max":757,"o":"m 115 135 l 383 135 l 383 776 q 385 841 383 813 q 388 871 388 869 l 385 871 q 367 854 376 863 q 349 840 358 847 q 328 825 339 832 l 132 694 l 132 844 l 354 1000 l 536 1000 l 536 135 l 757 135 l 757 0 l 115 0 l 115 135 z "},"2":{"ha":833,"x_min":81,"x_max":739,"o":"m 728 728 q 669 522 728 619 q 483 315 611 424 l 328 185 q 304 167 317 175 q 281 153 292 160 q 256 140 268 146 l 256 135 q 297 138 276 136 q 339 138 317 138 q 381 139 361 139 l 739 139 l 739 0 l 88 0 l 88 164 l 383 410 q 469 492 433 453 q 528 568 506 531 q 562 643 551 606 q 572 722 572 681 q 529 837 572 794 q 413 879 486 879 q 285 838 333 879 q 236 726 236 796 l 81 726 q 106 844 82 792 q 174 935 131 897 q 279 993 218 972 q 414 1014 340 1014 q 542 994 485 1014 q 642 936 600 974 q 706 846 683 899 q 728 728 728 793 z "},"3":{"ha":833,"x_min":83,"x_max":742,"o":"m 424 604 q 556 580 497 603 q 656 517 614 557 q 719 421 697 476 q 742 296 742 365 q 718 168 742 225 q 651 70 694 111 q 547 8 608 29 q 411 -14 486 -14 q 285 5 343 -14 q 184 59 226 24 q 115 144 142 94 q 83 257 89 194 l 236 257 q 294 156 247 194 q 411 118 342 118 q 540 167 492 118 q 589 296 589 215 q 539 426 589 376 q 406 475 489 475 l 286 475 l 286 625 l 463 799 q 494 826 478 814 q 526 850 511 839 q 560 872 543 861 l 560 878 q 524 874 543 875 q 485 869 507 871 q 440 868 464 868 l 121 868 l 121 1000 l 697 1000 l 697 846 l 481 647 q 460 631 469 639 q 442 617 450 624 q 424 604 432 610 z "},"4":{"ha":833,"x_min":103,"x_max":708,"o":"m 497 1000 l 665 1000 l 250 394 l 250 340 l 556 340 l 556 569 l 708 569 l 708 0 l 556 0 l 556 206 l 103 206 l 103 422 l 497 1000 z "},"5":{"ha":833,"x_min":93,"x_max":746,"o":"m 471 640 q 585 619 533 640 q 672 560 636 599 q 726 468 707 522 q 746 347 746 414 l 746 285 q 722 161 746 217 q 656 67 699 106 q 553 7 614 28 q 417 -14 492 -14 q 294 3 350 -14 q 197 50 239 19 q 128 124 154 81 q 93 219 101 167 l 250 219 q 308 146 264 174 q 418 118 351 118 q 544 163 497 118 q 590 285 590 208 l 590 347 q 543 469 590 424 q 417 514 496 514 q 271 449 315 514 l 118 449 l 125 1000 l 703 1000 l 703 864 l 271 864 l 267 536 l 274 536 q 313 589 286 565 q 372 624 335 608 q 471 640 410 640 z "},"6":{"ha":833,"x_min":83,"x_max":750,"o":"m 418 -14 q 281 9 343 -14 q 176 74 219 32 q 108 176 132 117 q 83 308 83 236 q 122 490 83 396 q 233 700 161 585 l 419 1000 l 597 1000 l 381 667 q 329 589 349 618 q 299 544 310 560 q 281 521 286 526 l 297 521 q 336 565 311 546 q 388 596 356 582 q 469 610 421 610 q 583 588 532 610 q 672 526 635 565 q 729 430 708 486 q 750 304 750 374 q 726 175 750 233 q 658 74 701 117 q 553 9 614 32 q 418 -14 492 -14 m 236 303 q 286 169 236 219 q 418 118 336 118 q 547 169 497 118 q 597 303 597 219 q 547 438 597 388 q 418 489 497 489 q 287 438 338 489 q 236 303 236 386 z "},"7":{"ha":833,"x_min":94,"x_max":740,"o":"m 240 860 l 240 711 l 94 711 l 94 1000 l 740 1000 l 740 836 l 388 0 l 219 0 l 554 769 q 586 833 574 813 q 601 856 594 846 l 601 863 q 560 861 579 861 q 523 860 542 861 q 490 860 504 860 l 240 860 z "},"8":{"ha":833,"x_min":83,"x_max":750,"o":"m 417 465 q 288 417 336 465 q 239 289 239 368 q 288 161 239 211 q 417 111 336 111 q 546 161 497 111 q 594 289 594 211 q 546 417 594 368 q 417 465 497 465 m 417 894 q 299 852 342 894 q 256 742 256 810 q 299 624 256 671 q 417 576 343 576 q 533 624 489 576 q 578 742 578 671 q 535 852 578 810 q 417 894 492 894 m 417 1014 q 545 995 488 1014 q 644 942 603 976 q 707 858 685 907 q 729 749 729 808 q 716 668 729 706 q 678 601 703 631 q 618 551 653 571 q 542 526 583 532 l 542 519 q 694 439 638 504 q 750 278 750 374 q 726 159 750 213 q 660 67 703 106 q 555 7 617 28 q 417 -14 493 -14 q 278 7 340 -14 q 174 66 217 28 q 107 158 131 104 q 83 275 83 211 q 140 438 83 371 q 292 519 197 504 l 292 526 q 215 551 250 532 q 156 601 181 571 q 117 668 131 631 q 104 749 104 706 q 126 858 104 808 q 190 942 149 907 q 288 995 231 976 q 417 1014 346 1014 z "},"9":{"ha":833,"x_min":83,"x_max":750,"o":"m 415 1014 q 552 991 490 1014 q 658 926 614 968 q 726 824 701 883 q 750 692 750 765 q 711 510 750 604 q 600 300 672 415 l 414 0 l 236 0 l 453 333 q 504 411 485 382 q 535 456 524 440 q 553 479 547 474 l 536 479 q 499 435 522 454 q 445 404 478 418 q 364 390 413 390 q 250 413 301 390 q 162 474 199 435 q 104 571 125 514 q 83 696 83 628 q 108 825 83 767 q 176 926 132 883 q 281 991 219 968 q 415 1014 342 1014 m 236 697 q 286 562 236 613 q 415 511 336 511 q 547 563 496 511 q 597 697 597 614 q 547 831 597 781 q 415 882 497 882 q 286 831 336 882 q 236 697 236 781 z "},"\u0000":{"ha":0,"x_min":0,"x_max":0,"o":""},"\r":{"ha":833,"x_min":0,"x_max":0,"o":""}," ":{"ha":833,"x_min":0,"x_max":0,"o":""},"H":{"ha":833,"x_min":114,"x_max":719,"o":"m 267 1000 l 267 590 l 568 590 l 568 1000 l 719 1000 l 719 0 l 568 0 l 568 450 l 267 450 l 267 0 l 114 0 l 114 1000 l 267 1000 z "},"n":{"ha":833,"x_min":110,"x_max":722,"o":"m 110 0 l 110 764 l 254 764 l 254 632 l 267 632 q 335 740 282 701 q 471 778 389 778 q 574 758 528 778 q 653 703 621 739 q 704 616 686 667 q 722 503 722 565 l 722 0 l 571 0 l 571 482 q 530 603 571 560 q 418 647 489 647 q 304 601 346 647 q 263 476 263 556 l 263 0 l 110 0 z "},"p":{"ha":833,"x_min":111,"x_max":738,"o":"m 257 764 l 257 632 l 268 632 q 338 740 283 701 q 476 778 393 778 q 583 757 535 778 q 666 697 632 736 q 719 603 700 658 q 738 479 738 549 l 738 288 q 719 162 738 218 q 666 67 700 106 q 583 7 632 28 q 476 -14 535 -14 q 338 24 393 -14 q 268 132 283 63 l 257 132 q 258 114 257 128 q 261 81 260 100 q 263 41 263 63 q 264 0 264 19 l 264 -229 l 111 -229 l 111 764 l 257 764 m 264 288 q 306 165 264 211 q 421 119 349 119 q 541 165 497 119 q 585 289 585 211 l 585 476 q 541 601 585 556 q 421 646 497 646 q 307 600 350 646 q 264 476 264 554 l 264 288 z "},"(":{"ha":833,"x_min":243,"x_max":674,"o":"m 243 632 q 273 820 243 732 q 358 978 303 908 q 494 1098 414 1047 q 674 1174 574 1149 l 674 1026 q 558 976 610 1011 q 471 890 507 940 q 415 774 435 839 q 396 632 396 708 l 396 368 q 470 113 396 217 q 674 -21 544 10 l 674 -174 q 355 20 467 -121 q 243 368 243 161 l 243 632 z "},"o":{"ha":833,"x_min":96,"x_max":738,"o":"m 249 288 q 293 165 249 210 q 417 121 338 121 q 540 165 494 121 q 585 288 585 210 l 585 478 q 540 600 585 556 q 417 644 494 644 q 294 599 340 644 q 249 478 249 554 l 249 288 m 96 478 q 119 601 96 546 q 183 696 142 657 q 285 756 225 735 q 417 778 344 778 q 549 756 490 778 q 650 696 608 735 q 715 601 692 657 q 738 478 738 546 l 738 288 q 715 163 738 219 q 650 68 692 107 q 549 8 608 29 q 417 -14 490 -14 q 285 8 344 -14 q 183 69 225 29 q 119 164 142 108 q 96 288 96 219 l 96 478 z "},"i":{"ha":833,"x_min":122,"x_max":771,"o":"m 122 0 l 122 139 l 399 139 l 399 626 l 157 626 l 157 764 l 546 764 l 546 139 l 771 139 l 771 0 l 122 0 m 438 1063 l 469 1063 q 539 1038 513 1063 q 565 974 565 1014 q 539 910 565 933 q 469 886 513 886 l 438 886 q 369 910 394 886 q 343 974 343 933 q 369 1038 343 1014 q 438 1063 394 1063 z "},"l":{"ha":833,"x_min":49,"x_max":771,"o":"m 449 1014 l 449 236 q 474 165 449 190 q 543 139 499 139 l 771 139 l 771 0 l 536 0 q 360 63 424 0 q 296 236 296 126 l 296 876 l 49 876 l 49 1014 l 449 1014 z "},"O":{"ha":833,"x_min":96,"x_max":738,"o":"m 249 289 q 294 167 249 213 q 417 121 340 121 q 539 167 493 121 q 585 289 585 213 l 585 711 q 539 835 585 789 q 417 881 493 881 q 294 835 340 881 q 249 711 249 789 l 249 289 m 96 711 q 119 836 96 781 q 183 931 142 892 q 284 992 225 971 q 417 1014 343 1014 q 549 992 490 1014 q 650 931 608 971 q 715 836 692 892 q 738 711 738 781 l 738 289 q 715 165 738 221 q 649 69 692 108 q 548 8 607 29 q 417 -14 489 -14 q 284 8 343 -14 q 183 69 225 29 q 119 165 142 108 q 96 289 96 221 l 96 711 z "},"h":{"ha":833,"x_min":110,"x_max":722,"o":"m 110 1014 l 263 1014 l 263 764 q 261 722 263 744 q 258 678 260 699 q 255 645 256 658 q 254 632 254 632 l 267 632 q 335 740 282 701 q 471 778 389 778 q 574 758 528 778 q 653 703 621 739 q 704 616 686 667 q 722 503 722 565 l 722 0 l 571 0 l 571 482 q 530 603 571 560 q 418 647 489 647 q 304 601 346 647 q 263 476 263 556 l 263 0 l 110 0 l 110 1014 z "},"k":{"ha":833,"x_min":118,"x_max":792,"o":"m 271 1014 l 271 454 l 406 454 l 615 764 l 788 764 l 536 393 l 792 0 l 615 0 l 406 322 l 271 322 l 271 0 l 118 0 l 118 1014 l 271 1014 z "},"g":{"ha":833,"x_min":90,"x_max":722,"o":"m 90 483 q 108 605 90 550 q 161 698 126 660 q 244 757 196 736 q 353 778 293 778 q 494 738 438 778 q 568 625 551 697 l 578 625 l 578 764 l 722 764 l 722 50 q 640 -155 722 -81 q 413 -229 557 -229 l 215 -229 l 215 -99 l 413 -99 q 528 -59 486 -99 q 571 50 571 -19 l 571 72 l 576 218 l 568 218 q 493 106 550 146 q 351 65 436 65 q 244 86 292 65 q 162 145 196 107 q 109 238 128 183 q 90 360 90 293 l 90 483 m 244 361 q 288 241 244 285 q 407 197 332 197 q 527 242 483 197 q 571 361 571 286 l 571 482 q 527 602 571 558 q 407 646 483 646 q 288 602 332 646 q 244 482 244 558 l 244 361 z "},">":{"ha":833,"x_min":111,"x_max":722,"o":"m 111 233 l 526 425 q 561 439 544 433 q 590 447 578 444 q 619 451 606 450 l 619 463 q 590 467 606 464 q 561 475 578 469 q 526 488 544 481 l 111 683 l 111 828 l 722 538 l 722 379 l 111 88 l 111 233 z "},"}":{"ha":833,"x_min":115,"x_max":722,"o":"m 115 -153 l 115 -15 l 183 -15 q 271 12 240 -15 q 299 93 301 39 l 285 315 q 326 442 281 392 q 454 494 371 492 l 454 501 q 380 517 413 503 q 326 556 347 532 q 294 614 304 581 q 285 685 283 647 l 299 907 q 271 987 301 960 q 183 1014 240 1014 l 115 1014 l 115 1153 l 197 1153 q 388 1090 318 1153 q 451 914 458 1026 l 438 694 q 460 600 433 631 q 563 569 488 569 l 722 569 l 722 431 l 563 431 q 460 400 488 431 q 438 306 433 369 l 451 83 q 438 -16 454 28 q 388 -90 421 -60 q 306 -137 354 -121 q 197 -153 257 -153 l 115 -153 z "},"A":{"ha":833,"x_min":46,"x_max":788,"o":"m 46 0 l 317 1000 l 525 1000 l 788 0 l 629 0 l 565 265 l 267 265 l 203 0 l 46 0 m 297 388 l 535 388 l 444 763 q 433 813 438 789 q 426 857 429 838 q 421 899 424 879 l 414 899 q 407 857 411 879 q 399 813 404 838 q 388 763 394 789 l 297 388 z "},"B":{"ha":833,"x_min":113,"x_max":751,"o":"m 419 1000 q 650 931 567 1000 q 733 739 733 861 q 683 592 733 649 q 546 528 632 535 l 546 518 q 697 450 642 511 q 751 285 751 389 q 666 76 751 153 q 432 0 581 0 l 113 0 l 113 1000 l 419 1000 m 263 132 l 421 132 q 549 174 503 132 q 594 290 594 215 q 549 408 594 365 q 421 450 503 450 l 263 450 l 263 132 m 263 869 l 263 578 l 418 578 q 533 617 490 578 q 576 724 576 657 q 534 830 576 790 q 418 869 492 869 l 263 869 z "},"C":{"ha":833,"x_min":104,"x_max":744,"o":"m 425 1014 q 649 938 564 1014 q 744 729 733 861 l 592 729 q 541 839 585 800 q 425 878 497 878 q 302 833 347 878 q 257 711 257 789 l 257 289 q 301 167 257 211 q 424 122 344 122 q 541 162 497 122 q 592 271 585 201 l 744 271 q 715 153 739 206 q 649 63 690 100 q 550 6 607 26 q 424 -14 493 -14 q 292 8 351 -14 q 192 69 233 29 q 127 165 150 108 q 104 289 104 221 l 104 711 q 127 836 104 781 q 192 931 150 892 q 292 992 233 971 q 425 1014 351 1014 z "},"D":{"ha":833,"x_min":111,"x_max":738,"o":"m 407 139 q 535 186 486 139 q 583 313 583 233 l 583 689 q 535 814 583 767 q 407 861 486 861 l 264 861 l 264 139 l 407 139 m 111 0 l 111 1000 l 407 1000 q 542 978 482 1000 q 647 915 603 956 q 714 816 690 874 q 738 689 738 758 l 738 313 q 714 184 738 242 q 647 85 690 126 q 542 22 603 44 q 407 0 482 0 l 111 0 z "},"E":{"ha":833,"x_min":125,"x_max":729,"o":"m 125 0 l 125 1000 l 729 1000 l 729 864 l 278 864 l 278 582 l 681 582 l 681 446 l 278 446 l 278 136 l 729 136 l 729 0 l 125 0 z "},"F":{"ha":833,"x_min":121,"x_max":736,"o":"m 121 1001 l 736 1001 l 736 863 l 271 863 l 271 576 l 700 576 l 700 438 l 274 438 l 274 0 l 121 0 l 121 1001 z "},"G":{"ha":833,"x_min":96,"x_max":742,"o":"m 397 528 l 738 528 l 738 289 q 715 164 738 219 q 650 69 692 108 q 549 8 608 29 q 417 -14 490 -14 q 285 8 344 -14 q 183 69 225 29 q 119 165 142 108 q 96 289 96 221 l 96 711 q 119 834 96 779 q 184 928 142 889 q 285 990 226 968 q 417 1011 344 1011 q 636 943 551 1011 q 742 749 721 875 l 588 749 q 531 841 576 807 q 417 875 486 875 q 294 831 339 875 q 249 711 249 788 l 249 289 q 294 165 249 210 q 417 121 339 121 q 540 165 494 121 q 585 289 585 210 l 585 394 l 397 394 l 397 528 z "},"I":{"ha":833,"x_min":122,"x_max":711,"o":"m 122 0 l 122 133 l 339 133 l 339 867 l 122 867 l 122 1000 l 711 1000 l 711 867 l 494 867 l 494 133 l 711 133 l 711 0 l 122 0 z "},"J":{"ha":833,"x_min":51,"x_max":704,"o":"m 375 119 q 503 166 456 119 q 551 290 551 213 l 551 863 l 181 863 l 181 1000 l 704 1000 l 704 290 q 681 163 704 219 q 616 67 658 107 q 513 7 574 28 q 375 -14 451 -14 q 153 60 240 -14 q 51 260 67 133 l 204 260 q 260 158 213 197 q 375 119 307 119 z "},"K":{"ha":833,"x_min":114,"x_max":801,"o":"m 267 1000 l 267 586 l 408 586 l 615 1000 l 789 1000 l 543 522 l 801 0 l 626 0 l 408 450 l 267 450 l 267 0 l 114 0 l 114 1000 l 267 1000 z "},"L":{"ha":833,"x_min":142,"x_max":746,"o":"m 294 1000 l 294 140 l 746 140 l 746 0 l 142 0 l 142 1000 l 294 1000 z "},"M":{"ha":833,"x_min":89,"x_max":746,"o":"m 89 0 l 89 1000 l 272 1000 l 388 674 q 399 639 394 658 q 407 604 404 619 q 415 567 411 585 l 425 567 q 433 604 429 585 q 442 639 438 619 q 453 674 447 658 l 560 1000 l 746 1000 l 746 0 l 608 0 l 608 672 q 610 731 608 700 q 614 790 611 763 q 619 856 617 824 l 608 856 q 593 796 600 825 q 578 740 586 769 q 563 688 569 711 l 485 442 l 351 442 l 271 688 q 256 742 264 713 q 240 797 247 771 q 226 857 233 826 l 215 857 q 221 792 218 825 q 224 732 222 764 q 225 672 225 700 l 225 0 l 89 0 z "},"N":{"ha":833,"x_min":106,"x_max":728,"o":"m 296 1000 l 546 332 q 563 278 556 308 q 578 219 571 247 q 592 153 585 186 l 606 153 q 603 171 606 153 q 598 218 601 189 q 592 283 594 247 q 589 356 589 319 l 589 1000 l 728 1000 l 728 0 l 539 0 l 292 669 q 272 728 281 697 q 257 788 264 760 q 244 849 250 818 l 231 849 q 238 788 235 819 q 242 724 240 760 q 244 647 244 688 l 244 0 l 106 0 l 106 1000 l 296 1000 z "},"P":{"ha":833,"x_min":113,"x_max":774,"o":"m 454 1000 q 585 978 526 1000 q 686 918 644 957 q 751 824 728 879 q 774 701 774 768 q 751 579 774 635 q 686 485 728 524 q 585 424 644 446 q 454 403 526 403 l 265 403 l 265 0 l 113 0 l 113 1000 l 454 1000 m 265 868 l 265 535 l 454 535 q 574 581 529 535 q 618 701 618 626 q 574 822 618 776 q 454 868 529 868 l 265 868 z "},"Q":{"ha":833,"x_min":96,"x_max":744,"o":"m 96 289 l 96 711 q 119 836 96 781 q 183 931 142 892 q 284 992 225 971 q 417 1014 343 1014 q 549 992 490 1014 q 650 931 608 971 q 715 836 692 892 q 738 711 738 781 l 738 289 q 696 126 738 196 q 579 21 654 57 l 744 -229 l 576 -229 l 433 -14 q 299 4 361 -14 q 192 60 238 22 q 122 154 147 97 q 96 289 96 211 m 417 121 q 539 167 493 121 q 585 289 585 213 l 585 711 q 539 835 585 789 q 417 881 493 881 q 294 835 340 881 q 249 711 249 789 l 249 289 q 294 167 249 213 q 417 121 340 121 z "},"R":{"ha":833,"x_min":114,"x_max":771,"o":"m 114 1000 l 438 1000 q 569 978 510 1000 q 669 919 628 957 q 734 826 711 881 q 757 704 757 771 q 706 531 757 603 q 565 428 654 458 l 771 0 l 599 0 l 413 407 l 265 407 l 265 0 l 114 0 l 114 1000 m 265 535 l 438 535 q 557 580 513 535 q 601 700 601 625 q 557 822 601 776 q 438 868 513 868 l 265 868 l 265 535 z "},"S":{"ha":833,"x_min":86,"x_max":747,"o":"m 417 -14 q 285 6 344 -14 q 181 60 225 25 q 113 147 138 96 q 86 261 88 199 l 243 261 q 295 158 246 196 q 419 121 344 121 q 548 158 501 121 q 594 258 594 194 q 560 356 594 314 q 461 418 525 397 l 356 453 q 110 742 110 531 q 192 941 110 868 q 421 1014 275 1014 q 545 995 489 1014 q 642 942 601 976 q 708 857 683 907 q 733 744 732 807 l 576 744 q 530 844 575 807 q 418 881 485 881 q 304 846 346 881 q 263 753 263 811 q 294 662 263 699 q 393 603 325 625 l 504 568 q 685 453 624 532 q 747 265 747 375 q 724 150 747 201 q 658 63 701 99 q 554 6 615 26 q 417 -14 493 -14 z "},"T":{"ha":833,"x_min":58,"x_max":775,"o":"m 58 1000 l 775 1000 l 775 863 l 494 863 l 494 0 l 339 0 l 339 863 l 58 863 l 58 1000 z "},"U":{"ha":833,"x_min":107,"x_max":726,"o":"m 417 -14 q 188 66 269 -14 q 107 285 107 146 l 107 1000 l 260 1000 l 260 285 q 300 164 260 207 q 417 121 340 121 q 533 164 492 121 q 575 285 575 207 l 575 1000 l 726 1000 l 726 285 q 645 65 726 144 q 417 -14 564 -14 z "},"V":{"ha":833,"x_min":46,"x_max":788,"o":"m 46 1000 l 204 1000 l 389 239 q 400 188 396 213 q 407 143 404 163 q 413 101 410 121 l 419 101 q 426 143 422 121 q 446 239 433 186 l 631 1000 l 788 1000 l 518 0 l 308 0 l 46 1000 z "},"W":{"ha":833,"x_min":28,"x_max":806,"o":"m 151 1000 l 211 292 q 215 235 214 268 q 217 169 215 201 q 218 97 218 135 l 233 97 q 238 169 235 135 q 243 235 240 201 q 249 292 246 268 l 340 1000 l 496 1000 l 582 292 q 588 235 585 268 q 593 171 590 201 q 599 97 596 135 l 614 97 q 617 169 615 135 q 619 235 618 201 q 622 292 619 268 l 682 1000 l 806 1000 l 703 0 l 517 0 l 435 710 q 430 779 432 746 q 426 840 428 813 q 426 900 426 871 l 410 900 q 410 840 410 871 q 407 779 408 813 q 400 710 406 746 l 311 0 l 128 0 l 28 1000 l 151 1000 z "},"X":{"ha":833,"x_min":46,"x_max":788,"o":"m 332 513 l 63 1000 l 235 1000 l 375 735 q 392 701 385 717 q 406 672 400 685 q 417 646 411 658 l 421 646 q 432 672 425 658 q 444 699 438 683 q 461 733 451 715 l 606 1000 l 771 1000 l 501 518 l 788 0 l 615 0 l 458 294 q 442 330 449 314 q 428 358 435 346 q 417 385 422 372 l 413 385 q 401 358 407 372 q 389 330 396 346 q 372 296 382 314 l 214 0 l 46 0 l 332 513 z "},"Y":{"ha":833,"x_min":35,"x_max":799,"o":"m 35 1000 l 196 1000 l 382 589 q 398 547 392 568 q 408 511 404 526 q 417 474 414 492 l 424 474 q 432 511 426 492 q 442 547 436 526 q 457 589 449 568 l 638 1000 l 799 1000 l 493 347 l 493 0 l 340 0 l 340 347 l 35 1000 z "},"Z":{"ha":833,"x_min":114,"x_max":719,"o":"m 704 1000 l 704 860 l 274 135 l 274 132 l 371 138 l 719 138 l 719 0 l 114 0 l 114 139 l 544 865 l 544 868 l 444 863 l 125 863 l 125 1000 l 704 1000 z "},".":{"ha":833,"x_min":289,"x_max":544,"o":"m 289 117 q 324 210 289 175 q 417 246 358 246 q 510 210 475 246 q 544 117 544 175 q 510 22 544 58 q 417 -14 475 -14 q 324 22 358 -14 q 289 117 289 58 z "},"a":{"ha":833,"x_min":78,"x_max":724,"o":"m 78 218 q 155 394 78 329 q 364 458 232 458 l 571 458 l 571 524 q 528 619 571 585 q 408 654 486 654 q 307 632 349 654 q 253 571 265 610 l 101 571 q 203 722 119 667 q 410 778 286 778 q 640 711 556 778 q 724 528 724 644 l 724 0 l 582 0 l 582 149 l 571 149 q 489 30 556 74 q 328 -14 422 -14 q 145 49 213 -14 q 78 218 78 111 m 374 108 q 451 119 415 108 q 514 151 488 131 q 556 198 540 171 q 571 257 571 225 l 571 353 l 365 353 q 267 321 303 353 q 231 231 231 289 q 268 140 231 172 q 374 108 306 108 z "},"b":{"ha":833,"x_min":111,"x_max":738,"o":"m 111 1014 l 264 1014 l 264 774 q 263 729 264 754 q 261 682 263 704 q 257 632 258 657 l 268 632 q 338 740 283 701 q 476 778 393 778 q 583 757 535 778 q 666 697 632 736 q 719 603 700 658 q 738 479 738 549 l 738 288 q 719 162 738 218 q 666 67 700 106 q 583 7 632 28 q 476 -14 535 -14 q 338 24 393 -14 q 268 132 283 63 l 257 132 l 257 0 l 111 0 l 111 1014 m 264 288 q 306 165 264 211 q 421 119 349 119 q 541 165 497 119 q 585 289 585 211 l 585 476 q 541 601 585 556 q 421 646 497 646 q 307 600 350 646 q 264 476 264 554 l 264 288 z "},"c":{"ha":833,"x_min":107,"x_max":747,"o":"m 426 -14 q 294 7 353 -14 q 193 67 235 28 q 129 161 151 106 q 107 285 107 217 l 107 479 q 129 603 107 547 q 193 697 151 658 q 294 757 235 736 q 426 778 353 778 q 547 760 492 778 q 643 707 601 742 q 712 624 685 672 q 747 514 739 575 l 594 514 q 539 608 585 572 q 426 644 493 644 q 303 601 347 644 q 258 479 258 557 l 258 285 q 303 164 258 207 q 426 121 347 121 q 539 156 493 121 q 594 250 585 192 l 747 250 q 642 57 728 128 q 426 -14 557 -14 z "},"e":{"ha":833,"x_min":96,"x_max":736,"o":"m 417 -14 q 284 7 343 -14 q 183 67 225 28 q 119 160 142 106 q 96 282 96 214 l 96 482 q 119 605 96 550 q 183 698 142 660 q 284 757 225 736 q 417 778 343 778 q 549 757 490 778 q 650 698 608 736 q 714 605 692 660 q 736 482 736 550 l 736 342 l 249 342 l 249 288 q 293 160 249 206 q 417 114 338 114 q 517 132 475 114 q 579 185 560 150 l 731 185 q 690 103 718 139 q 622 40 663 67 q 528 0 581 14 q 417 -14 476 -14 m 586 453 l 586 482 q 542 606 586 561 q 417 651 497 651 q 293 606 338 651 q 249 482 249 561 l 249 453 l 586 453 z "},"f":{"ha":833,"x_min":78,"x_max":749,"o":"m 78 688 l 294 688 l 294 806 q 356 958 294 901 q 525 1014 418 1014 l 749 1014 l 749 878 l 526 878 q 468 859 489 878 q 447 804 447 840 l 447 688 l 749 688 l 749 550 l 447 550 l 447 0 l 294 0 l 294 550 l 78 550 l 78 688 z "},"j":{"ha":833,"x_min":121,"x_max":646,"o":"m 469 624 l 157 624 l 157 764 l 622 764 l 622 74 q 599 -49 622 7 q 535 -145 576 -106 q 438 -207 494 -185 q 311 -229 381 -229 l 121 -229 l 121 -87 l 306 -87 q 425 -43 381 -87 q 469 74 469 1 l 469 624 m 551 1063 q 620 1038 594 1063 q 646 974 646 1014 q 620 910 646 933 q 550 886 594 886 l 518 886 q 449 910 475 886 q 424 974 424 933 q 449 1038 424 1014 q 518 1063 475 1063 l 551 1063 z "},"m":{"ha":833,"x_min":76,"x_max":758,"o":"m 76 764 l 193 764 l 193 651 l 204 651 q 243 744 210 711 q 333 778 276 778 q 424 745 388 778 q 475 651 461 713 l 481 651 q 519 744 486 711 q 610 778 553 778 q 719 726 679 778 q 758 582 758 674 l 758 0 l 629 0 l 629 575 q 556 667 629 667 q 482 569 482 667 l 482 0 l 353 0 l 353 575 q 326 651 353 628 q 279 667 307 667 q 233 651 251 667 q 206 569 206 629 l 206 0 l 76 0 l 76 764 z "},"r":{"ha":833,"x_min":142,"x_max":772,"o":"m 142 764 l 286 764 l 286 632 l 299 632 q 370 740 314 701 q 511 778 426 778 q 703 702 633 778 q 772 492 772 626 l 772 442 l 615 442 l 615 476 q 572 602 615 557 q 454 647 529 647 q 338 601 381 647 q 294 476 294 556 l 294 0 l 142 0 l 142 764 z "},"s":{"ha":833,"x_min":92,"x_max":736,"o":"m 390 -14 q 183 41 263 -14 q 92 192 103 96 l 250 192 q 297 132 258 154 q 390 110 335 110 l 440 110 q 547 138 508 110 q 585 214 585 165 q 463 314 585 297 l 351 329 q 169 400 228 344 q 110 556 110 456 q 184 719 110 661 q 396 778 258 778 l 444 778 q 641 724 565 778 q 731 579 717 671 l 574 579 q 531 634 565 614 q 444 654 496 654 l 396 654 q 296 630 331 654 q 261 557 261 606 q 287 494 261 517 q 369 465 313 472 l 483 450 q 675 376 614 432 q 736 218 736 321 q 660 47 736 107 q 440 -14 583 -14 l 390 -14 z "},"t":{"ha":833,"x_min":72,"x_max":733,"o":"m 72 764 l 288 764 l 288 1000 l 440 1000 l 440 764 l 733 764 l 733 626 l 440 626 l 440 219 q 463 160 440 182 q 525 139 485 139 l 719 139 l 719 0 l 518 0 q 349 60 411 0 q 288 219 288 119 l 288 626 l 72 626 l 72 764 z "},"v":{"ha":833,"x_min":57,"x_max":776,"o":"m 57 764 l 217 764 l 389 250 q 405 196 400 221 q 413 151 410 171 q 415 111 415 129 l 426 111 q 429 151 426 129 q 437 196 432 171 q 451 250 442 221 l 615 764 l 776 764 l 508 0 l 331 0 l 57 764 z "},"w":{"ha":833,"x_min":32,"x_max":801,"o":"m 147 764 l 210 268 q 215 216 213 247 q 221 157 218 185 q 226 86 224 122 l 240 86 q 249 157 244 122 q 258 217 253 186 q 265 268 263 249 l 342 764 l 492 764 l 568 268 q 575 216 571 247 q 582 156 579 185 q 590 86 586 122 l 606 86 q 613 157 610 122 q 619 216 615 185 q 625 268 622 247 l 688 764 l 801 764 l 694 0 l 511 0 l 433 514 q 428 563 431 535 q 425 614 426 590 q 424 672 424 643 l 411 672 q 408 614 410 643 q 405 563 407 590 q 399 514 403 535 l 318 0 l 138 0 l 32 764 l 147 764 z "},"x":{"ha":833,"x_min":54,"x_max":779,"o":"m 329 393 l 71 764 l 249 764 l 390 549 q 408 514 403 532 q 414 499 413 506 l 421 499 q 426 514 422 506 q 444 549 431 528 l 588 764 l 763 764 l 506 394 l 779 0 l 601 0 l 447 235 q 435 254 440 244 q 428 271 431 264 q 421 288 424 279 l 413 288 q 406 269 410 279 q 399 253 403 263 q 388 235 394 244 l 231 0 l 54 0 l 329 393 z "},"y":{"ha":833,"x_min":58,"x_max":775,"o":"m 225 764 l 386 343 q 404 288 397 315 q 414 238 411 261 q 421 188 419 211 l 432 188 q 438 238 433 211 q 448 288 442 260 q 464 343 454 315 l 614 764 l 775 764 l 410 -229 l 247 -229 l 353 49 l 58 764 l 225 764 z "},"z":{"ha":833,"x_min":104,"x_max":729,"o":"m 115 764 l 714 764 l 714 610 l 272 128 q 306 131 289 129 q 339 133 321 132 q 375 133 357 133 l 729 133 l 729 0 l 104 0 l 104 153 l 547 635 q 511 633 529 633 q 477 631 496 632 q 440 631 458 631 l 115 631 l 115 764 z "},",":{"ha":833,"x_min":218,"x_max":532,"o":"m 532 210 l 351 -222 l 218 -222 l 329 210 l 532 210 z "},"-":{"ha":833,"x_min":139,"x_max":694,"o":"m 139 528 l 694 528 l 694 389 l 139 389 l 139 528 z "},"+":{"ha":833,"x_min":86,"x_max":747,"o":"m 86 389 l 86 528 l 342 528 l 342 788 l 492 788 l 492 528 l 747 528 l 747 389 l 492 389 l 492 129 l 342 129 l 342 389 l 86 389 z "},"*":{"ha":833,"x_min":44,"x_max":789,"o":"m 44 528 l 92 661 l 199 624 q 248 601 222 615 q 298 572 274 588 q 344 541 322 557 q 383 513 367 525 l 389 517 q 376 563 383 536 q 361 619 368 590 q 350 678 354 649 q 346 733 346 707 l 346 847 l 488 847 l 488 733 q 483 678 488 707 q 472 619 479 649 q 458 563 465 590 q 444 517 451 536 l 450 513 q 489 541 467 525 q 535 573 511 557 q 585 602 560 589 q 633 624 610 615 l 740 661 l 789 528 l 682 490 q 632 476 660 482 q 576 466 604 469 q 522 460 549 463 q 474 457 494 458 l 469 447 q 507 418 486 435 q 549 381 528 401 q 590 340 569 361 q 624 299 610 319 l 689 206 l 574 125 l 508 218 q 481 265 494 239 q 456 317 468 290 q 436 370 444 344 q 421 417 428 396 l 413 417 q 398 372 407 397 q 377 319 389 346 q 352 265 365 292 q 324 218 339 239 l 258 125 l 143 206 l 208 299 q 243 341 224 319 q 283 382 263 363 q 325 419 304 401 q 363 449 346 436 l 360 456 q 257 465 317 458 q 150 490 197 472 l 44 528 z "},"/":{"ha":833,"x_min":93,"x_max":740,"o":"m 582 1153 l 740 1153 l 253 -153 l 93 -153 l 582 1153 z "},"\\":{"ha":833,"x_min":92,"x_max":740,"o":"m 740 -153 l 581 -153 l 92 1153 l 251 1153 l 740 -153 z "},":":{"ha":833,"x_min":294,"x_max":539,"o":"m 294 106 q 328 193 294 160 q 417 226 363 226 q 505 193 471 226 q 539 106 539 160 q 505 19 539 53 q 417 -14 471 -14 q 328 19 363 -14 q 294 106 294 53 m 294 656 q 328 744 294 710 q 417 778 363 778 q 505 744 471 778 q 539 656 539 710 q 505 570 539 603 q 417 538 471 538 q 328 570 363 538 q 294 656 294 603 z "},";":{"ha":833,"x_min":218,"x_max":542,"o":"m 532 210 l 351 -222 l 218 -222 l 329 210 l 532 210 m 292 654 q 326 744 292 710 q 417 778 360 778 q 508 744 474 778 q 542 654 542 710 q 507 565 542 599 q 417 532 472 532 q 326 566 360 532 q 292 654 292 600 z "},"<":{"ha":833,"x_min":111,"x_max":722,"o":"m 111 538 l 722 829 l 722 683 l 307 490 q 272 477 289 482 q 243 469 256 472 q 214 465 228 467 l 214 454 q 243 450 228 453 q 272 442 256 447 q 307 428 289 436 l 722 233 l 722 88 l 111 379 l 111 538 z "},"=":{"ha":833,"x_min":111,"x_max":722,"o":"m 111 358 l 722 358 l 722 219 l 111 219 l 111 358 m 111 558 l 111 697 l 722 697 l 722 558 l 111 558 z "},"!":{"ha":833,"x_min":306,"x_max":528,"o":"m 331 1000 l 503 1000 l 503 819 l 472 313 l 361 313 l 331 819 l 331 1000 m 400 169 l 433 169 q 502 145 476 169 q 528 81 528 121 q 502 17 528 40 q 432 -7 476 -7 l 400 -7 q 331 17 357 -7 q 306 81 306 40 q 331 145 306 121 q 400 169 357 169 z "},"?":{"ha":833,"x_min":178,"x_max":694,"o":"m 333 169 l 365 169 q 434 145 408 169 q 460 81 460 121 q 434 17 460 40 q 365 -7 408 -7 l 333 -7 q 264 16 290 -7 q 238 79 238 39 q 264 144 238 119 q 333 169 290 169 m 694 708 q 675 597 694 647 q 619 509 656 546 q 533 451 583 472 q 422 428 483 431 l 422 294 l 282 294 l 279 560 l 372 560 q 497 599 451 560 q 542 708 542 638 q 496 818 542 779 q 371 857 450 857 l 178 857 l 178 1000 l 365 1000 q 501 979 440 1000 q 606 921 563 958 q 672 829 649 883 q 694 708 694 775 z "},"'":{"ha":833,"x_min":332,"x_max":490,"o":"m 332 1014 l 490 1014 l 490 801 l 475 597 l 350 597 l 332 801 l 332 1014 z "},"\"":{"ha":833,"x_min":190,"x_max":643,"o":"m 485 1014 l 643 1014 l 643 801 l 628 597 l 503 597 l 485 801 l 485 1014 m 190 801 l 190 1014 l 349 1014 l 349 801 l 332 597 l 208 597 l 190 801 z "},"#":{"ha":833,"x_min":42,"x_max":792,"o":"m 590 264 l 542 0 l 429 0 l 478 264 l 271 264 l 222 0 l 110 0 l 158 264 l 42 264 l 42 371 l 178 371 l 224 629 l 89 629 l 89 736 l 243 736 l 292 1000 l 404 1000 l 356 736 l 563 736 l 611 1000 l 724 1000 l 675 736 l 792 736 l 792 629 l 656 629 l 610 371 l 743 371 l 743 264 l 590 264 m 497 371 l 543 629 l 336 629 l 290 371 l 497 371 z "},"%":{"ha":833,"x_min":42,"x_max":792,"o":"m 792 789 l 792 690 l 42 210 l 42 307 l 792 789 m 236 918 q 172 892 194 918 q 150 822 150 867 l 150 733 q 172 663 150 689 q 236 638 194 638 q 301 665 281 638 q 322 733 322 693 l 322 822 q 300 892 322 867 q 236 918 278 918 m 236 549 q 98 598 147 549 q 49 733 49 647 l 49 822 q 98 958 49 908 q 236 1007 147 1007 q 374 958 325 1007 q 424 822 424 908 l 424 733 q 374 598 424 647 q 236 549 325 549 m 597 363 q 533 337 556 363 q 511 267 511 311 l 511 178 q 533 108 511 133 q 597 82 556 82 q 663 110 643 82 q 683 178 683 138 l 683 267 q 661 337 683 311 q 597 363 639 363 m 597 -7 q 459 42 508 -7 q 410 178 410 92 l 410 267 q 459 402 410 353 q 597 451 508 451 q 735 402 686 451 q 785 267 785 353 l 785 178 q 735 42 785 92 q 597 -7 686 -7 z "},"{":{"ha":833,"x_min":114,"x_max":719,"o":"m 274 568 q 375 599 349 568 q 399 693 401 629 l 385 915 q 448 1090 378 1028 q 639 1153 518 1153 l 719 1153 l 719 1014 l 653 1014 q 565 988 594 1014 q 538 907 535 961 l 551 683 q 510 557 556 607 q 382 504 464 507 l 382 497 q 510 442 465 494 q 551 314 556 390 l 538 93 q 565 13 535 40 q 653 -15 596 -15 l 719 -15 l 719 -153 l 639 -153 q 448 -90 518 -153 q 385 86 378 -26 l 399 304 q 375 399 401 368 q 274 429 349 429 l 114 429 l 114 568 l 274 568 z "},"|":{"ha":833,"x_min":340,"x_max":493,"o":"m 340 1153 l 493 1153 l 493 -153 l 340 -153 l 340 1153 z "},"[":{"ha":833,"x_min":274,"x_max":642,"o":"m 274 -153 l 274 1153 l 642 1153 l 642 1014 l 426 1014 l 426 -14 l 642 -14 l 642 -153 l 274 -153 z "},"_":{"ha":833,"x_min":83,"x_max":750,"o":"m 83 -35 l 750 -35 l 750 -169 l 83 -169 l 83 -35 z "},")":{"ha":833,"x_min":160,"x_max":590,"o":"m 160 -21 q 363 113 289 10 q 438 368 438 217 l 438 632 q 418 774 438 708 q 363 890 399 839 q 275 976 326 940 q 160 1026 224 1011 l 160 1174 q 340 1098 260 1149 q 475 978 419 1047 q 560 820 531 908 q 590 632 590 732 l 590 368 q 478 20 590 161 q 160 -174 367 -121 l 160 -21 z "},"d":{"ha":833,"x_min":96,"x_max":722,"o":"m 96 479 q 115 603 96 549 q 167 697 133 658 q 250 757 201 736 q 357 778 299 778 q 495 740 440 778 q 565 632 550 701 l 578 632 q 575 679 576 656 q 572 723 572 700 q 571 764 571 746 l 571 1014 l 722 1014 l 722 0 l 578 0 l 578 132 l 565 132 q 495 24 550 63 q 357 -14 440 -14 q 250 7 299 -14 q 167 67 201 28 q 115 162 133 106 q 96 288 96 218 l 96 479 m 413 119 q 528 165 485 119 q 571 288 571 211 l 571 476 q 527 600 571 554 q 413 646 483 646 q 292 601 336 646 q 249 476 249 556 l 249 289 q 292 165 249 211 q 413 119 336 119 z "},"q":{"ha":833,"x_min":104,"x_max":731,"o":"m 104 489 q 123 608 104 554 q 176 699 142 661 q 258 757 210 736 q 364 778 306 778 q 502 740 447 778 q 572 632 557 701 l 585 632 l 585 764 l 731 764 l 731 -229 l 578 -229 l 578 0 q 578 41 578 19 q 581 81 579 63 q 583 114 582 100 q 585 132 585 128 l 572 132 q 502 24 557 63 q 364 -14 447 -14 q 258 7 306 -14 q 176 66 210 28 q 123 158 142 104 q 104 278 104 211 l 104 489 m 419 646 q 300 601 343 646 q 257 476 257 556 l 257 289 q 300 165 257 211 q 419 119 343 119 q 535 165 492 119 q 578 288 578 211 l 578 476 q 534 600 578 554 q 419 646 490 646 z "},"u":{"ha":833,"x_min":114,"x_max":719,"o":"m 114 764 l 267 764 l 267 279 q 415 119 267 119 q 568 279 568 119 l 568 764 l 719 764 l 719 279 q 640 63 719 139 q 415 -14 561 -14 q 193 63 272 -14 q 114 279 114 140 l 114 764 z "},"—":{"ha":833,"x_min":18,"x_max":815,"o":"m 18 528 l 815 528 l 815 389 l 18 389 l 18 528 z "},"^":{"ha":833,"x_min":101,"x_max":732,"o":"m 346 1000 l 490 1000 l 732 458 l 590 458 l 447 801 q 436 836 440 819 q 429 867 432 853 q 425 897 426 883 l 414 897 q 408 867 413 883 q 389 801 404 838 l 244 458 l 101 458 l 346 1000 z "},"÷":{"ha":833,"x_min":139,"x_max":694,"o":"m 139 528 l 694 528 l 694 394 l 139 394 l 139 528 m 400 815 l 433 815 q 502 791 476 815 q 528 726 528 767 q 502 663 528 686 q 432 639 476 639 l 400 639 q 331 663 357 639 q 306 726 306 686 q 331 791 306 767 q 400 815 357 815 m 400 282 l 433 282 q 502 258 476 282 q 528 193 528 233 q 502 130 528 153 q 432 107 476 107 l 400 107 q 331 130 357 107 q 306 193 306 153 q 331 258 306 233 q 400 282 357 282 z "},"×":{"ha":833,"x_min":131,"x_max":697,"o":"m 226 736 l 413 550 l 603 740 l 697 644 l 507 454 l 694 268 l 599 172 l 413 360 l 226 172 l 131 268 l 318 454 l 131 642 l 226 736 z "},"±":{"ha":833,"x_min":88,"x_max":750,"o":"m 343 572 l 343 832 l 494 832 l 494 572 l 750 572 l 750 433 l 494 433 l 494 175 l 343 175 l 343 433 l 88 433 l 88 572 l 343 572 m 94 117 l 739 117 l 739 0 l 94 0 l 94 117 z "},"−":{"ha":833,"x_min":139,"x_max":694,"o":"m 139 528 l 694 528 l 694 389 l 139 389 l 139 528 z "},"@":{"ha":833,"x_min":53,"x_max":788,"o":"m 53 611 q 79 780 53 706 q 156 906 106 854 q 277 986 206 958 q 438 1014 349 1014 q 694 935 601 1014 q 788 708 788 856 l 788 104 l 669 104 l 668 239 q 504 90 635 90 q 324 333 324 90 l 324 444 q 370 626 324 564 q 504 688 417 688 q 657 576 617 688 l 657 708 q 599 853 657 804 q 438 901 542 901 q 249 826 315 901 q 183 611 183 750 l 183 174 q 255 -33 183 43 q 451 -110 326 -110 l 549 -110 l 549 -229 l 451 -229 q 286 -201 360 -229 q 160 -120 213 -172 q 81 6 108 -68 q 53 174 53 81 l 53 611 m 454 333 q 478 225 454 263 q 546 188 501 188 q 657 343 657 188 l 657 436 q 546 590 657 590 q 478 553 501 590 q 454 444 454 515 l 454 333 z "},"&":{"ha":833,"x_min":67,"x_max":793,"o":"m 67 379 q 104 510 67 458 q 211 583 142 563 q 156 687 172 642 q 139 779 139 732 q 157 875 139 832 q 209 949 175 918 q 291 997 243 979 q 399 1014 339 1014 q 596 947 524 1014 q 668 768 668 879 l 522 768 q 489 853 522 821 q 399 886 456 886 q 314 853 346 886 q 282 772 282 821 q 295 709 282 742 q 336 638 308 676 l 550 340 l 635 500 l 786 500 l 635 221 l 793 0 l 635 0 l 560 103 q 322 -14 463 -14 q 133 51 200 -14 q 67 233 67 117 l 67 379 m 333 115 q 416 142 378 115 q 481 213 454 168 l 276 493 q 215 379 215 468 l 215 233 q 247 146 215 176 q 333 115 278 115 z "},"]":{"ha":833,"x_min":197,"x_max":565,"o":"m 197 -153 l 197 -14 l 413 -14 l 413 1014 l 197 1014 l 197 1153 l 565 1153 l 565 -153 l 197 -153 z "},"$":{"ha":833,"x_min":86,"x_max":747,"o":"m 86 261 l 243 261 q 295 158 246 196 q 419 121 344 121 q 548 158 501 121 q 594 258 594 194 q 560 356 594 314 q 461 418 525 397 l 356 453 q 110 742 110 531 q 169 917 110 847 q 338 1007 229 986 l 335 1028 l 335 1139 l 488 1139 l 488 1028 l 485 1010 q 662 924 594 993 q 733 744 729 854 l 576 744 q 530 844 575 807 q 418 881 485 881 q 304 846 346 881 q 263 753 263 811 q 294 662 263 699 q 393 603 325 625 l 504 568 q 685 453 624 532 q 747 265 747 375 q 679 81 747 153 q 489 -8 611 8 l 493 -42 l 493 -153 l 340 -153 l 340 -42 l 343 -8 q 240 23 286 0 q 160 81 193 46 q 107 161 126 115 q 86 261 88 207 z "},"\n":{"ha":833,"x_min":0,"x_max":0,"o":""},"–":{"ha":833,"x_min":90,"x_max":743,"o":"m 90 528 l 743 528 l 743 389 l 90 389 l 90 528 z "},"·":{"ha":833,"x_min":289,"x_max":544,"o":"m 289 488 q 324 581 289 546 q 417 617 358 617 q 510 581 475 617 q 544 488 544 546 q 510 393 544 429 q 417 357 475 357 q 324 393 358 357 q 289 488 289 429 z "},"ı":{"ha":833,"x_min":114,"x_max":767,"o":"m 114 139 l 399 139 l 399 626 l 149 626 l 149 764 l 546 764 l 546 139 l 767 139 l 767 0 l 114 0 l 114 139 z "},"€":{"ha":833,"x_min":31,"x_max":758,"o":"m 485 635 l 485 535 l 271 535 l 271 438 l 485 438 l 485 339 l 271 339 l 271 289 q 315 167 271 211 q 438 122 358 122 q 555 162 511 122 q 606 271 599 201 l 758 271 q 728 153 753 206 q 663 63 704 100 q 564 6 621 26 q 438 -14 507 -14 q 306 8 365 -14 q 206 69 247 29 q 141 165 164 108 q 118 289 118 221 l 118 339 l 31 339 l 31 438 l 118 438 l 118 535 l 31 535 l 31 635 l 118 635 l 118 711 q 141 836 118 781 q 206 931 164 892 q 306 992 247 971 q 439 1014 365 1014 q 663 938 578 1014 q 758 729 747 861 l 606 729 q 555 839 599 800 q 439 878 511 878 q 316 833 361 878 q 271 711 271 789 l 271 635 l 485 635 z "},"•":{"ha":833,"x_min":236,"x_max":597,"o":"m 236 493 q 250 565 236 532 q 288 622 264 597 q 344 659 311 646 q 417 672 378 672 q 489 659 456 672 q 546 622 522 646 q 583 565 569 597 q 597 493 597 532 q 583 423 597 456 q 546 366 569 390 q 489 328 522 342 q 417 315 456 315 q 344 328 378 315 q 288 366 311 342 q 250 423 264 390 q 236 493 236 456 z "},"¦":{"ha":833,"x_min":340,"x_max":493,"o":"m 340 1153 l 493 1153 l 493 625 l 340 625 l 340 1153 m 340 -153 l 340 375 l 493 375 l 493 -153 l 340 -153 z "},"»":{"ha":833,"x_min":35,"x_max":799,"o":"m 264 339 q 284 361 275 353 q 300 376 293 369 q 314 388 307 383 l 314 390 q 300 401 307 394 q 264 439 285 414 l 35 722 l 204 722 l 467 389 l 204 56 l 35 56 l 264 339 m 367 56 l 596 339 q 615 361 607 353 q 631 376 624 369 q 644 388 639 383 l 644 390 q 631 401 639 394 q 615 416 624 407 q 596 439 607 425 l 367 722 l 536 722 l 799 389 l 535 56 l 367 56 z "},"«":{"ha":833,"x_min":35,"x_max":799,"o":"m 629 722 l 799 722 l 569 439 q 550 416 558 425 q 535 401 542 407 q 521 390 528 394 l 521 388 q 535 376 528 383 q 550 361 542 369 q 569 339 558 353 l 799 56 l 631 56 l 367 389 l 629 722 m 35 389 l 297 722 l 467 722 l 238 439 q 218 416 226 425 q 203 401 210 407 q 189 390 196 394 l 189 388 q 203 376 196 383 q 218 361 210 369 q 238 339 226 353 l 467 56 l 299 56 l 35 389 z "},"‹":{"ha":833,"x_min":201,"x_max":633,"o":"m 464 722 l 633 722 l 404 439 q 385 416 393 425 q 369 401 376 407 q 356 390 363 394 l 356 388 q 369 376 363 383 q 385 361 376 369 q 404 339 393 353 l 633 56 l 465 56 l 201 389 l 464 722 z "},"›":{"ha":833,"x_min":200,"x_max":632,"o":"m 632 389 l 369 56 l 200 56 l 429 339 q 449 361 440 353 q 465 376 458 369 q 479 388 472 383 l 479 390 q 465 401 472 394 q 429 439 450 414 l 200 722 l 369 722 l 632 389 z "},"‘":{"ha":833,"x_min":301,"x_max":615,"o":"m 301 644 l 482 1076 l 615 1076 l 504 644 l 301 644 z "},"’":{"ha":833,"x_min":218,"x_max":532,"o":"m 532 1078 l 351 646 l 218 646 l 329 1078 l 532 1078 z "},"“":{"ha":833,"x_min":86,"x_max":782,"o":"m 649 1076 l 782 1076 l 671 644 l 468 644 l 649 1076 m 86 644 l 267 1076 l 400 1076 l 289 644 l 86 644 z "},"”":{"ha":833,"x_min":51,"x_max":747,"o":"m 544 1078 l 747 1078 l 567 646 l 433 646 l 544 1078 m 163 1078 l 365 1078 l 185 646 l 51 646 l 163 1078 z "},"‚":{"ha":833,"x_min":218,"x_max":532,"o":"m 532 210 l 351 -222 l 218 -222 l 329 210 l 532 210 z "},"„":{"ha":833,"x_min":51,"x_max":747,"o":"m 433 -222 l 544 210 l 747 210 l 567 -222 l 433 -222 m 51 -222 l 163 210 l 365 210 l 185 -222 l 51 -222 z "},"˜":{"ha":833,"x_min":146,"x_max":688,"o":"m 532 1000 q 588 1064 588 1000 l 588 1100 l 688 1100 l 688 1065 q 647 944 688 988 q 535 900 607 900 q 458 917 489 900 q 401 953 426 933 q 353 990 376 974 q 301 1007 331 1007 q 260 990 275 1007 q 246 940 246 972 l 246 907 l 146 907 l 146 942 q 186 1063 146 1019 q 299 1107 226 1107 q 376 1090 344 1107 q 432 1053 407 1074 q 480 1017 457 1033 q 532 1000 503 1000 z "},"¯":{"ha":833,"x_min":226,"x_max":607,"o":"m 226 1076 l 607 1076 l 607 947 l 226 947 l 226 1076 z "},"~":{"ha":833,"x_min":83,"x_max":750,"o":"m 565 347 q 489 360 521 347 q 432 390 457 372 q 388 431 407 408 q 351 471 369 453 q 315 501 333 489 q 274 514 297 514 q 229 496 246 514 q 213 446 213 478 l 213 354 l 83 354 l 83 451 q 134 583 83 533 q 268 632 185 632 q 344 619 313 632 q 401 589 376 607 q 445 549 426 571 q 482 508 464 526 q 518 478 500 490 q 560 465 536 465 q 604 483 588 465 q 621 533 621 501 l 621 625 l 750 625 l 750 528 q 699 397 750 446 q 565 347 649 347 z "},"˘":{"ha":833,"x_min":176,"x_max":657,"o":"m 176 1093 l 299 1093 q 331 1026 299 1049 q 415 1003 363 1003 q 501 1026 468 1003 q 535 1093 535 1049 l 657 1093 q 639 1015 657 1050 q 589 953 621 979 q 513 914 557 928 q 417 900 469 900 q 321 914 365 900 q 244 953 276 928 q 194 1015 213 979 q 176 1093 176 1050 z "},"˙":{"ha":833,"x_min":292,"x_max":514,"o":"m 386 1114 l 419 1114 q 488 1090 463 1114 q 514 1025 514 1065 q 488 961 514 985 q 418 938 463 938 l 386 938 q 317 961 343 938 q 292 1025 292 985 q 317 1090 292 1065 q 386 1114 343 1114 z "},"˚":{"ha":833,"x_min":250,"x_max":583,"o":"m 250 990 q 296 1097 250 1057 q 417 1136 342 1136 q 538 1097 492 1136 q 583 990 583 1057 q 538 884 583 924 q 417 844 492 844 q 296 884 342 844 q 250 990 250 924 m 338 990 q 415 917 338 917 q 475 936 454 917 q 496 990 496 956 q 475 1046 496 1026 q 415 1065 454 1065 q 358 1046 379 1065 q 338 990 338 1026 z "},"`":{"ha":833,"x_min":229,"x_max":549,"o":"m 229 1101 l 400 1101 l 549 899 l 406 899 l 229 1101 z "},"´":{"ha":833,"x_min":313,"x_max":632,"o":"m 456 899 l 313 899 l 461 1101 l 632 1101 l 456 899 z "},"˝":{"ha":833,"x_min":153,"x_max":764,"o":"m 472 1101 l 301 1101 l 153 899 l 296 899 l 472 1101 m 764 1101 l 593 1101 l 444 899 l 588 899 l 764 1101 z "},"à":{"ha":833,"x_min":78,"x_max":724,"o":"m 78 218 q 155 394 78 329 q 364 458 232 458 l 571 458 l 571 524 q 528 619 571 585 q 408 654 486 654 q 307 632 349 654 q 253 571 265 610 l 101 571 q 203 722 119 667 q 410 778 286 778 q 640 711 556 778 q 724 528 724 644 l 724 0 l 582 0 l 582 149 l 571 149 q 489 30 556 74 q 328 -14 422 -14 q 145 49 213 -14 q 78 218 78 111 m 374 108 q 451 119 415 108 q 514 151 488 131 q 556 198 540 171 q 571 257 571 225 l 571 353 l 365 353 q 267 321 303 353 q 231 231 231 289 q 268 140 231 172 q 374 108 306 108 m 229 1101 l 400 1101 l 549 899 l 406 899 l 229 1101 z "},"ñ":{"ha":833,"x_min":110,"x_max":722,"o":"m 110 0 l 110 764 l 254 764 l 254 632 l 267 632 q 335 740 282 701 q 471 778 389 778 q 574 758 528 778 q 653 703 621 739 q 704 616 686 667 q 722 503 722 565 l 722 0 l 571 0 l 571 482 q 530 603 571 560 q 418 647 489 647 q 304 601 346 647 q 263 476 263 556 l 263 0 l 110 0 m 532 1000 q 588 1064 588 1000 l 588 1100 l 688 1100 l 688 1065 q 647 944 688 988 q 535 900 607 900 q 458 917 489 900 q 401 953 426 933 q 353 990 376 974 q 301 1007 331 1007 q 260 990 275 1007 q 246 940 246 972 l 246 907 l 146 907 l 146 942 q 186 1063 146 1019 q 299 1107 226 1107 q 376 1090 344 1107 q 432 1053 407 1074 q 480 1017 457 1033 q 532 1000 503 1000 z "},"Ű":{"ha":833,"x_min":107,"x_max":764,"o":"m 417 -14 q 188 66 269 -14 q 107 285 107 146 l 107 1000 l 260 1000 l 260 285 q 300 164 260 207 q 417 121 340 121 q 533 164 492 121 q 575 285 575 207 l 575 1000 l 726 1000 l 726 285 q 645 65 726 144 q 417 -14 564 -14 m 472 1324 l 301 1324 l 153 1121 l 296 1121 l 472 1324 m 764 1324 l 593 1324 l 444 1121 l 588 1121 l 764 1324 z "},"ű":{"ha":833,"x_min":114,"x_max":764,"o":"m 114 764 l 267 764 l 267 279 q 415 119 267 119 q 568 279 568 119 l 568 764 l 719 764 l 719 279 q 640 63 719 139 q 415 -14 561 -14 q 193 63 272 -14 q 114 279 114 140 l 114 764 m 472 1101 l 301 1101 l 153 899 l 296 899 l 472 1101 m 764 1101 l 593 1101 l 444 899 l 588 899 l 764 1101 z "},"¨":{"ha":833,"x_min":185,"x_max":649,"o":"m 185 1006 q 210 1068 185 1044 q 275 1092 235 1092 q 340 1068 315 1092 q 365 1006 365 1044 q 340 943 365 967 q 275 919 315 919 q 210 943 235 919 q 185 1006 185 967 m 468 1006 q 493 1068 468 1044 q 558 1092 518 1092 q 624 1068 599 1092 q 649 1006 649 1044 q 624 943 649 967 q 558 919 599 919 q 493 943 518 919 q 468 1006 468 967 z "},"ä":{"ha":833,"x_min":78,"x_max":724,"o":"m 78 218 q 155 394 78 329 q 364 458 232 458 l 571 458 l 571 524 q 528 619 571 585 q 408 654 486 654 q 307 632 349 654 q 253 571 265 610 l 101 571 q 203 722 119 667 q 410 778 286 778 q 640 711 556 778 q 724 528 724 644 l 724 0 l 582 0 l 582 149 l 571 149 q 489 30 556 74 q 328 -14 422 -14 q 145 49 213 -14 q 78 218 78 111 m 374 108 q 451 119 415 108 q 514 151 488 131 q 556 198 540 171 q 571 257 571 225 l 571 353 l 365 353 q 267 321 303 353 q 231 231 231 289 q 268 140 231 172 q 374 108 306 108 m 185 1006 q 210 1068 185 1044 q 275 1092 235 1092 q 340 1068 315 1092 q 365 1006 365 1044 q 340 943 365 967 q 275 919 315 919 q 210 943 235 919 q 185 1006 185 967 m 468 1006 q 493 1068 468 1044 q 558 1092 518 1092 q 624 1068 599 1092 q 649 1006 649 1044 q 624 943 649 967 q 558 919 599 919 q 493 943 518 919 q 468 1006 468 967 z "},"ˆ":{"ha":833,"x_min":178,"x_max":656,"o":"m 346 1100 l 489 1100 l 656 899 l 532 899 l 458 978 q 426 1014 436 1006 q 419 1025 422 1021 l 415 1025 q 407 1015 413 1021 q 375 979 399 1004 l 301 899 l 178 899 l 346 1100 z "},"ˇ":{"ha":833,"x_min":178,"x_max":656,"o":"m 178 1100 l 301 1100 l 375 1019 q 395 998 388 1007 q 407 983 403 989 q 415 974 413 978 l 419 974 q 426 983 422 978 q 440 999 432 990 q 458 1021 447 1007 l 532 1100 l 656 1100 l 489 899 l 346 899 l 178 1100 z "},"č":{"ha":833,"x_min":107,"x_max":747,"o":"m 426 -14 q 294 7 353 -14 q 193 67 235 28 q 129 161 151 106 q 107 285 107 217 l 107 479 q 129 603 107 547 q 193 697 151 658 q 294 757 235 736 q 426 778 353 778 q 547 760 492 778 q 643 707 601 742 q 712 624 685 672 q 747 514 739 575 l 594 514 q 539 608 585 572 q 426 644 493 644 q 303 601 347 644 q 258 479 258 557 l 258 285 q 303 164 258 207 q 426 121 347 121 q 539 156 493 121 q 594 250 585 192 l 747 250 q 642 57 728 128 q 426 -14 557 -14 m 178 1100 l 301 1100 l 375 1019 q 395 998 388 1007 q 407 983 403 989 q 415 974 413 978 l 419 974 q 426 983 422 978 q 440 999 432 990 q 458 1021 447 1007 l 532 1100 l 656 1100 l 489 899 l 346 899 l 178 1100 z "},"¸":{"ha":833,"x_min":278,"x_max":583,"o":"m 350 32 l 438 32 l 407 -49 q 496 -67 457 -53 q 556 -102 528 -79 q 583 -164 583 -125 q 535 -243 583 -212 q 407 -274 486 -274 l 278 -274 l 278 -190 l 379 -190 q 431 -179 411 -190 q 450 -150 450 -168 q 411 -108 450 -122 q 300 -94 372 -94 l 350 32 z "},"˛":{"ha":833,"x_min":253,"x_max":543,"o":"m 485 14 l 465 -1 q 403 -67 422 -37 q 383 -125 383 -97 q 403 -171 383 -154 q 456 -187 422 -187 l 543 -187 l 543 -282 l 426 -282 q 300 -247 347 -282 q 253 -153 253 -211 q 277 -72 253 -112 q 364 14 301 -32 l 485 14 z "},"Ų":{"ha":833,"x_min":107,"x_max":726,"o":"m 417 -14 q 188 66 269 -14 q 107 285 107 146 l 107 1000 l 260 1000 l 260 285 q 300 164 260 207 q 417 121 340 121 q 533 164 492 121 q 575 285 575 207 l 575 1000 l 726 1000 l 726 285 q 645 65 726 144 q 417 -14 564 -14 m 593 14 l 574 -1 q 511 -67 531 -37 q 492 -125 492 -97 q 511 -171 492 -154 q 564 -187 531 -187 l 651 -187 l 651 -282 l 535 -282 q 408 -247 456 -282 q 361 -153 361 -211 q 385 -72 361 -112 q 472 14 410 -32 l 593 14 z "},"ų":{"ha":833,"x_min":114,"x_max":719,"o":"m 114 764 l 267 764 l 267 279 q 415 119 267 119 q 568 279 568 119 l 568 764 l 719 764 l 719 279 q 640 63 719 139 q 415 -14 561 -14 q 193 63 272 -14 q 114 279 114 140 l 114 764 m 546 14 l 526 -1 q 464 -67 483 -37 q 444 -125 444 -97 q 464 -171 444 -154 q 517 -187 483 -187 l 604 -187 l 604 -282 l 488 -282 q 361 -247 408 -282 q 314 -153 314 -211 q 338 -72 314 -112 q 425 14 363 -32 l 546 14 z "},"ç":{"ha":833,"x_min":107,"x_max":747,"o":"m 426 -14 q 294 7 353 -14 q 193 67 235 28 q 129 161 151 106 q 107 285 107 217 l 107 479 q 129 603 107 547 q 193 697 151 658 q 294 757 235 736 q 426 778 353 778 q 547 760 492 778 q 643 707 601 742 q 712 624 685 672 q 747 514 739 575 l 594 514 q 539 608 585 572 q 426 644 493 644 q 303 601 347 644 q 258 479 258 557 l 258 285 q 303 164 258 207 q 426 121 347 121 q 539 156 493 121 q 594 250 585 192 l 747 250 q 642 57 728 128 q 426 -14 557 -14 m 350 32 l 438 32 l 407 -49 q 496 -67 457 -53 q 556 -102 528 -79 q 583 -164 583 -125 q 535 -243 583 -212 q 407 -274 486 -274 l 278 -274 l 278 -190 l 379 -190 q 431 -179 411 -190 q 450 -150 450 -168 q 411 -108 450 -122 q 300 -94 372 -94 l 350 32 z "},"À":{"ha":833,"x_min":46,"x_max":788,"o":"m 46 0 l 317 1000 l 525 1000 l 788 0 l 629 0 l 565 265 l 267 265 l 203 0 l 46 0 m 297 388 l 535 388 l 444 763 q 433 813 438 789 q 426 857 429 838 q 421 899 424 879 l 414 899 q 407 857 411 879 q 399 813 404 838 q 388 763 394 789 l 297 388 m 229 1314 l 400 1314 l 549 1111 l 406 1111 l 229 1314 z "},"Á":{"ha":833,"x_min":46,"x_max":788,"o":"m 46 0 l 317 1000 l 525 1000 l 788 0 l 629 0 l 565 265 l 267 265 l 203 0 l 46 0 m 297 388 l 535 388 l 444 763 q 433 813 438 789 q 426 857 429 838 q 421 899 424 879 l 414 899 q 407 857 411 879 q 399 813 404 838 q 388 763 394 789 l 297 388 m 456 1121 l 313 1121 l 461 1324 l 632 1324 l 456 1121 z "},"Â":{"ha":833,"x_min":46,"x_max":788,"o":"m 46 0 l 317 1000 l 525 1000 l 788 0 l 629 0 l 565 265 l 267 265 l 203 0 l 46 0 m 297 388 l 535 388 l 444 763 q 433 813 438 789 q 426 857 429 838 q 421 899 424 879 l 414 899 q 407 857 411 879 q 399 813 404 838 q 388 763 394 789 l 297 388 m 346 1322 l 489 1322 l 656 1121 l 532 1121 l 458 1200 q 426 1236 436 1228 q 419 1247 422 1243 l 415 1247 q 407 1238 413 1243 q 375 1201 399 1226 l 301 1121 l 178 1121 l 346 1322 z "},"Ã":{"ha":833,"x_min":46,"x_max":788,"o":"m 46 0 l 317 1000 l 525 1000 l 788 0 l 629 0 l 565 265 l 267 265 l 203 0 l 46 0 m 297 388 l 535 388 l 444 763 q 433 813 438 789 q 426 857 429 838 q 421 899 424 879 l 414 899 q 407 857 411 879 q 399 813 404 838 q 388 763 394 789 l 297 388 m 532 1222 q 588 1286 588 1222 l 588 1322 l 688 1322 l 688 1288 q 647 1166 688 1210 q 535 1122 607 1122 q 458 1139 489 1122 q 401 1176 426 1156 q 353 1213 376 1196 q 301 1229 331 1229 q 260 1212 275 1229 q 246 1163 246 1194 l 246 1129 l 146 1129 l 146 1164 q 186 1285 146 1242 q 299 1329 226 1329 q 376 1313 344 1329 q 432 1276 407 1296 q 480 1239 457 1256 q 532 1222 503 1222 z "},"Ä":{"ha":833,"x_min":46,"x_max":788,"o":"m 46 0 l 317 1000 l 525 1000 l 788 0 l 629 0 l 565 265 l 267 265 l 203 0 l 46 0 m 297 388 l 535 388 l 444 763 q 433 813 438 789 q 426 857 429 838 q 421 899 424 879 l 414 899 q 407 857 411 879 q 399 813 404 838 q 388 763 394 789 l 297 388 m 185 1228 q 210 1290 185 1267 q 275 1314 235 1314 q 340 1290 315 1314 q 365 1228 365 1267 q 340 1165 365 1189 q 275 1142 315 1142 q 210 1165 235 1142 q 185 1228 185 1189 m 468 1228 q 493 1290 468 1267 q 558 1314 518 1314 q 624 1290 599 1314 q 649 1228 649 1267 q 624 1165 649 1189 q 558 1142 599 1142 q 493 1165 518 1142 q 468 1228 468 1189 z "},"Å":{"ha":833,"x_min":46,"x_max":788,"o":"m 46 0 l 317 1000 l 525 1000 l 788 0 l 629 0 l 565 265 l 267 265 l 203 0 l 46 0 m 297 388 l 535 388 l 444 763 q 433 813 438 789 q 426 857 429 838 q 421 899 424 879 l 414 899 q 407 857 411 879 q 399 813 404 838 q 388 763 394 789 l 297 388 m 250 1213 q 296 1319 250 1279 q 417 1358 342 1358 q 538 1319 492 1358 q 583 1213 583 1279 q 538 1106 583 1146 q 417 1067 492 1067 q 296 1106 342 1067 q 250 1213 250 1146 m 338 1213 q 415 1139 338 1139 q 475 1158 454 1139 q 496 1213 496 1178 q 475 1268 496 1249 q 415 1288 454 1288 q 358 1268 379 1288 q 338 1213 338 1249 z "},"Ç":{"ha":833,"x_min":104,"x_max":744,"o":"m 425 1014 q 649 938 564 1014 q 744 729 733 861 l 592 729 q 541 839 585 800 q 425 878 497 878 q 302 833 347 878 q 257 711 257 789 l 257 289 q 301 167 257 211 q 424 122 344 122 q 541 162 497 122 q 592 271 585 201 l 744 271 q 715 153 739 206 q 649 63 690 100 q 550 6 607 26 q 424 -14 493 -14 q 292 8 351 -14 q 192 69 233 29 q 127 165 150 108 q 104 289 104 221 l 104 711 q 127 836 104 781 q 192 931 150 892 q 292 992 233 971 q 425 1014 351 1014 m 350 32 l 438 32 l 407 -49 q 496 -67 457 -53 q 556 -102 528 -79 q 583 -164 583 -125 q 535 -243 583 -212 q 407 -274 486 -274 l 278 -274 l 278 -190 l 379 -190 q 431 -179 411 -190 q 450 -150 450 -168 q 411 -108 450 -122 q 300 -94 372 -94 l 350 32 z "},"È":{"ha":833,"x_min":125,"x_max":729,"o":"m 125 0 l 125 1000 l 729 1000 l 729 864 l 278 864 l 278 582 l 681 582 l 681 446 l 278 446 l 278 136 l 729 136 l 729 0 l 125 0 m 229 1324 l 400 1324 l 549 1121 l 406 1121 l 229 1324 z "},"É":{"ha":833,"x_min":125,"x_max":729,"o":"m 125 0 l 125 1000 l 729 1000 l 729 864 l 278 864 l 278 582 l 681 582 l 681 446 l 278 446 l 278 136 l 729 136 l 729 0 l 125 0 m 456 1121 l 313 1121 l 461 1324 l 632 1324 l 456 1121 z "},"Ê":{"ha":833,"x_min":125,"x_max":729,"o":"m 125 0 l 125 1000 l 729 1000 l 729 864 l 278 864 l 278 582 l 681 582 l 681 446 l 278 446 l 278 136 l 729 136 l 729 0 l 125 0 m 346 1322 l 489 1322 l 656 1121 l 532 1121 l 458 1200 q 426 1236 436 1228 q 419 1247 422 1243 l 415 1247 q 407 1238 413 1243 q 375 1201 399 1226 l 301 1121 l 178 1121 l 346 1322 z "},"Ë":{"ha":833,"x_min":125,"x_max":729,"o":"m 125 0 l 125 1000 l 729 1000 l 729 864 l 278 864 l 278 582 l 681 582 l 681 446 l 278 446 l 278 136 l 729 136 l 729 0 l 125 0 m 185 1228 q 210 1290 185 1267 q 275 1314 235 1314 q 340 1290 315 1314 q 365 1228 365 1267 q 340 1165 365 1189 q 275 1142 315 1142 q 210 1165 235 1142 q 185 1228 185 1189 m 468 1228 q 493 1290 468 1267 q 558 1314 518 1314 q 624 1290 599 1314 q 649 1228 649 1267 q 624 1165 649 1189 q 558 1142 599 1142 q 493 1165 518 1142 q 468 1228 468 1189 z "},"Ì":{"ha":833,"x_min":122,"x_max":711,"o":"m 122 0 l 122 133 l 339 133 l 339 867 l 122 867 l 122 1000 l 711 1000 l 711 867 l 494 867 l 494 133 l 711 133 l 711 0 l 122 0 m 229 1324 l 400 1324 l 549 1121 l 406 1121 l 229 1324 z "},"Í":{"ha":833,"x_min":122,"x_max":711,"o":"m 122 0 l 122 133 l 339 133 l 339 867 l 122 867 l 122 1000 l 711 1000 l 711 867 l 494 867 l 494 133 l 711 133 l 711 0 l 122 0 m 456 1121 l 313 1121 l 461 1324 l 632 1324 l 456 1121 z "},"Î":{"ha":833,"x_min":122,"x_max":711,"o":"m 122 0 l 122 133 l 339 133 l 339 867 l 122 867 l 122 1000 l 711 1000 l 711 867 l 494 867 l 494 133 l 711 133 l 711 0 l 122 0 m 346 1322 l 489 1322 l 656 1121 l 532 1121 l 458 1200 q 426 1236 436 1228 q 419 1247 422 1243 l 415 1247 q 407 1238 413 1243 q 375 1201 399 1226 l 301 1121 l 178 1121 l 346 1322 z "},"Ï":{"ha":833,"x_min":122,"x_max":711,"o":"m 122 0 l 122 133 l 339 133 l 339 867 l 122 867 l 122 1000 l 711 1000 l 711 867 l 494 867 l 494 133 l 711 133 l 711 0 l 122 0 m 185 1228 q 210 1290 185 1267 q 275 1314 235 1314 q 340 1290 315 1314 q 365 1228 365 1267 q 340 1165 365 1189 q 275 1142 315 1142 q 210 1165 235 1142 q 185 1228 185 1189 m 468 1228 q 493 1290 468 1267 q 558 1314 518 1314 q 624 1290 599 1314 q 649 1228 649 1267 q 624 1165 649 1189 q 558 1142 599 1142 q 493 1165 518 1142 q 468 1228 468 1189 z "},"Ò":{"ha":833,"x_min":96,"x_max":738,"o":"m 249 289 q 294 167 249 213 q 417 121 340 121 q 539 167 493 121 q 585 289 585 213 l 585 711 q 539 835 585 789 q 417 881 493 881 q 294 835 340 881 q 249 711 249 789 l 249 289 m 96 711 q 119 836 96 781 q 183 931 142 892 q 284 992 225 971 q 417 1014 343 1014 q 549 992 490 1014 q 650 931 608 971 q 715 836 692 892 q 738 711 738 781 l 738 289 q 715 165 738 221 q 649 69 692 108 q 548 8 607 29 q 417 -14 489 -14 q 284 8 343 -14 q 183 69 225 29 q 119 165 142 108 q 96 289 96 221 l 96 711 m 229 1324 l 400 1324 l 549 1121 l 406 1121 l 229 1324 z "},"Ó":{"ha":833,"x_min":96,"x_max":738,"o":"m 249 289 q 294 167 249 213 q 417 121 340 121 q 539 167 493 121 q 585 289 585 213 l 585 711 q 539 835 585 789 q 417 881 493 881 q 294 835 340 881 q 249 711 249 789 l 249 289 m 96 711 q 119 836 96 781 q 183 931 142 892 q 284 992 225 971 q 417 1014 343 1014 q 549 992 490 1014 q 650 931 608 971 q 715 836 692 892 q 738 711 738 781 l 738 289 q 715 165 738 221 q 649 69 692 108 q 548 8 607 29 q 417 -14 489 -14 q 284 8 343 -14 q 183 69 225 29 q 119 165 142 108 q 96 289 96 221 l 96 711 m 456 1121 l 313 1121 l 461 1324 l 632 1324 l 456 1121 z "},"Ô":{"ha":833,"x_min":96,"x_max":738,"o":"m 249 289 q 294 167 249 213 q 417 121 340 121 q 539 167 493 121 q 585 289 585 213 l 585 711 q 539 835 585 789 q 417 881 493 881 q 294 835 340 881 q 249 711 249 789 l 249 289 m 96 711 q 119 836 96 781 q 183 931 142 892 q 284 992 225 971 q 417 1014 343 1014 q 549 992 490 1014 q 650 931 608 971 q 715 836 692 892 q 738 711 738 781 l 738 289 q 715 165 738 221 q 649 69 692 108 q 548 8 607 29 q 417 -14 489 -14 q 284 8 343 -14 q 183 69 225 29 q 119 165 142 108 q 96 289 96 221 l 96 711 m 346 1322 l 489 1322 l 656 1121 l 532 1121 l 458 1200 q 426 1236 436 1228 q 419 1247 422 1243 l 415 1247 q 407 1238 413 1243 q 375 1201 399 1226 l 301 1121 l 178 1121 l 346 1322 z "},"Õ":{"ha":833,"x_min":96,"x_max":738,"o":"m 249 289 q 294 167 249 213 q 417 121 340 121 q 539 167 493 121 q 585 289 585 213 l 585 711 q 539 835 585 789 q 417 881 493 881 q 294 835 340 881 q 249 711 249 789 l 249 289 m 96 711 q 119 836 96 781 q 183 931 142 892 q 284 992 225 971 q 417 1014 343 1014 q 549 992 490 1014 q 650 931 608 971 q 715 836 692 892 q 738 711 738 781 l 738 289 q 715 165 738 221 q 649 69 692 108 q 548 8 607 29 q 417 -14 489 -14 q 284 8 343 -14 q 183 69 225 29 q 119 165 142 108 q 96 289 96 221 l 96 711 m 532 1222 q 588 1286 588 1222 l 588 1322 l 688 1322 l 688 1288 q 647 1166 688 1210 q 535 1122 607 1122 q 458 1139 489 1122 q 401 1176 426 1156 q 353 1213 376 1196 q 301 1229 331 1229 q 260 1212 275 1229 q 246 1163 246 1194 l 246 1129 l 146 1129 l 146 1164 q 186 1285 146 1242 q 299 1329 226 1329 q 376 1313 344 1329 q 432 1276 407 1296 q 480 1239 457 1256 q 532 1222 503 1222 z "},"Ö":{"ha":833,"x_min":96,"x_max":738,"o":"m 249 289 q 294 167 249 213 q 417 121 340 121 q 539 167 493 121 q 585 289 585 213 l 585 711 q 539 835 585 789 q 417 881 493 881 q 294 835 340 881 q 249 711 249 789 l 249 289 m 96 711 q 119 836 96 781 q 183 931 142 892 q 284 992 225 971 q 417 1014 343 1014 q 549 992 490 1014 q 650 931 608 971 q 715 836 692 892 q 738 711 738 781 l 738 289 q 715 165 738 221 q 649 69 692 108 q 548 8 607 29 q 417 -14 489 -14 q 284 8 343 -14 q 183 69 225 29 q 119 165 142 108 q 96 289 96 221 l 96 711 m 185 1228 q 210 1290 185 1267 q 275 1314 235 1314 q 340 1290 315 1314 q 365 1228 365 1267 q 340 1165 365 1189 q 275 1142 315 1142 q 210 1165 235 1142 q 185 1228 185 1189 m 468 1228 q 493 1290 468 1267 q 558 1314 518 1314 q 624 1290 599 1314 q 649 1228 649 1267 q 624 1165 649 1189 q 558 1142 599 1142 q 493 1165 518 1142 q 468 1228 468 1189 z "},"Š":{"ha":833,"x_min":86,"x_max":747,"o":"m 417 -14 q 285 6 344 -14 q 181 60 225 25 q 113 147 138 96 q 86 261 88 199 l 243 261 q 295 158 246 196 q 419 121 344 121 q 548 158 501 121 q 594 258 594 194 q 560 356 594 314 q 461 418 525 397 l 356 453 q 110 742 110 531 q 192 941 110 868 q 421 1014 275 1014 q 545 995 489 1014 q 642 942 601 976 q 708 857 683 907 q 733 744 732 807 l 576 744 q 530 844 575 807 q 418 881 485 881 q 304 846 346 881 q 263 753 263 811 q 294 662 263 699 q 393 603 325 625 l 504 568 q 685 453 624 532 q 747 265 747 375 q 724 150 747 201 q 658 63 701 99 q 554 6 615 26 q 417 -14 493 -14 m 178 1322 l 301 1322 l 375 1242 q 395 1220 388 1229 q 407 1206 403 1211 q 415 1196 413 1200 l 419 1196 q 426 1206 422 1200 q 440 1221 432 1213 q 458 1243 447 1229 l 532 1322 l 656 1322 l 489 1121 l 346 1121 l 178 1322 z "},"Ù":{"ha":833,"x_min":107,"x_max":726,"o":"m 417 -14 q 188 66 269 -14 q 107 285 107 146 l 107 1000 l 260 1000 l 260 285 q 300 164 260 207 q 417 121 340 121 q 533 164 492 121 q 575 285 575 207 l 575 1000 l 726 1000 l 726 285 q 645 65 726 144 q 417 -14 564 -14 m 229 1324 l 400 1324 l 549 1121 l 406 1121 l 229 1324 z "},"Ú":{"ha":833,"x_min":107,"x_max":726,"o":"m 417 -14 q 188 66 269 -14 q 107 285 107 146 l 107 1000 l 260 1000 l 260 285 q 300 164 260 207 q 417 121 340 121 q 533 164 492 121 q 575 285 575 207 l 575 1000 l 726 1000 l 726 285 q 645 65 726 144 q 417 -14 564 -14 m 456 1121 l 313 1121 l 461 1324 l 632 1324 l 456 1121 z "},"Û":{"ha":833,"x_min":107,"x_max":726,"o":"m 417 -14 q 188 66 269 -14 q 107 285 107 146 l 107 1000 l 260 1000 l 260 285 q 300 164 260 207 q 417 121 340 121 q 533 164 492 121 q 575 285 575 207 l 575 1000 l 726 1000 l 726 285 q 645 65 726 144 q 417 -14 564 -14 m 346 1322 l 489 1322 l 656 1121 l 532 1121 l 458 1200 q 426 1236 436 1228 q 419 1247 422 1243 l 415 1247 q 407 1238 413 1243 q 375 1201 399 1226 l 301 1121 l 178 1121 l 346 1322 z "},"Ü":{"ha":833,"x_min":107,"x_max":726,"o":"m 417 -14 q 188 66 269 -14 q 107 285 107 146 l 107 1000 l 260 1000 l 260 285 q 300 164 260 207 q 417 121 340 121 q 533 164 492 121 q 575 285 575 207 l 575 1000 l 726 1000 l 726 285 q 645 65 726 144 q 417 -14 564 -14 m 185 1228 q 210 1290 185 1267 q 275 1314 235 1314 q 340 1290 315 1314 q 365 1228 365 1267 q 340 1165 365 1189 q 275 1142 315 1142 q 210 1165 235 1142 q 185 1228 185 1189 m 468 1228 q 493 1290 468 1267 q 558 1314 518 1314 q 624 1290 599 1314 q 649 1228 649 1267 q 624 1165 649 1189 q 558 1142 599 1142 q 493 1165 518 1142 q 468 1228 468 1189 z "},"Ÿ":{"ha":833,"x_min":35,"x_max":799,"o":"m 35 1000 l 196 1000 l 382 589 q 398 547 392 568 q 408 511 404 526 q 417 474 414 492 l 424 474 q 432 511 426 492 q 442 547 436 526 q 457 589 449 568 l 638 1000 l 799 1000 l 493 347 l 493 0 l 340 0 l 340 347 l 35 1000 m 185 1228 q 210 1290 185 1267 q 275 1314 235 1314 q 340 1290 315 1314 q 365 1228 365 1267 q 340 1165 365 1189 q 275 1142 315 1142 q 210 1165 235 1142 q 185 1228 185 1189 m 468 1228 q 493 1290 468 1267 q 558 1314 518 1314 q 624 1290 599 1314 q 649 1228 649 1267 q 624 1165 649 1189 q 558 1142 599 1142 q 493 1165 518 1142 q 468 1228 468 1189 z "},"Ý":{"ha":833,"x_min":35,"x_max":799,"o":"m 35 1000 l 196 1000 l 382 589 q 398 547 392 568 q 408 511 404 526 q 417 474 414 492 l 424 474 q 432 511 426 492 q 442 547 436 526 q 457 589 449 568 l 638 1000 l 799 1000 l 493 347 l 493 0 l 340 0 l 340 347 l 35 1000 m 456 1121 l 313 1121 l 461 1324 l 632 1324 l 456 1121 z "},"Ž":{"ha":833,"x_min":114,"x_max":719,"o":"m 704 1000 l 704 860 l 274 135 l 274 132 l 371 138 l 719 138 l 719 0 l 114 0 l 114 139 l 544 865 l 544 868 l 444 863 l 125 863 l 125 1000 l 704 1000 m 178 1322 l 301 1322 l 375 1242 q 395 1220 388 1229 q 407 1206 403 1211 q 415 1196 413 1200 l 419 1196 q 426 1206 422 1200 q 440 1221 432 1213 q 458 1243 447 1229 l 532 1322 l 656 1322 l 489 1121 l 346 1121 l 178 1322 z "},"á":{"ha":833,"x_min":78,"x_max":724,"o":"m 78 218 q 155 394 78 329 q 364 458 232 458 l 571 458 l 571 524 q 528 619 571 585 q 408 654 486 654 q 307 632 349 654 q 253 571 265 610 l 101 571 q 203 722 119 667 q 410 778 286 778 q 640 711 556 778 q 724 528 724 644 l 724 0 l 582 0 l 582 149 l 571 149 q 489 30 556 74 q 328 -14 422 -14 q 145 49 213 -14 q 78 218 78 111 m 374 108 q 451 119 415 108 q 514 151 488 131 q 556 198 540 171 q 571 257 571 225 l 571 353 l 365 353 q 267 321 303 353 q 231 231 231 289 q 268 140 231 172 q 374 108 306 108 m 456 899 l 313 899 l 461 1101 l 632 1101 l 456 899 z "},"â":{"ha":833,"x_min":78,"x_max":724,"o":"m 78 218 q 155 394 78 329 q 364 458 232 458 l 571 458 l 571 524 q 528 619 571 585 q 408 654 486 654 q 307 632 349 654 q 253 571 265 610 l 101 571 q 203 722 119 667 q 410 778 286 778 q 640 711 556 778 q 724 528 724 644 l 724 0 l 582 0 l 582 149 l 571 149 q 489 30 556 74 q 328 -14 422 -14 q 145 49 213 -14 q 78 218 78 111 m 374 108 q 451 119 415 108 q 514 151 488 131 q 556 198 540 171 q 571 257 571 225 l 571 353 l 365 353 q 267 321 303 353 q 231 231 231 289 q 268 140 231 172 q 374 108 306 108 m 346 1100 l 489 1100 l 656 899 l 532 899 l 458 978 q 426 1014 436 1006 q 419 1025 422 1021 l 415 1025 q 407 1015 413 1021 q 375 979 399 1004 l 301 899 l 178 899 l 346 1100 z "},"ã":{"ha":833,"x_min":78,"x_max":724,"o":"m 78 218 q 155 394 78 329 q 364 458 232 458 l 571 458 l 571 524 q 528 619 571 585 q 408 654 486 654 q 307 632 349 654 q 253 571 265 610 l 101 571 q 203 722 119 667 q 410 778 286 778 q 640 711 556 778 q 724 528 724 644 l 724 0 l 582 0 l 582 149 l 571 149 q 489 30 556 74 q 328 -14 422 -14 q 145 49 213 -14 q 78 218 78 111 m 374 108 q 451 119 415 108 q 514 151 488 131 q 556 198 540 171 q 571 257 571 225 l 571 353 l 365 353 q 267 321 303 353 q 231 231 231 289 q 268 140 231 172 q 374 108 306 108 m 532 1000 q 588 1064 588 1000 l 588 1100 l 688 1100 l 688 1065 q 647 944 688 988 q 535 900 607 900 q 458 917 489 900 q 401 953 426 933 q 353 990 376 974 q 301 1007 331 1007 q 260 990 275 1007 q 246 940 246 972 l 246 907 l 146 907 l 146 942 q 186 1063 146 1019 q 299 1107 226 1107 q 376 1090 344 1107 q 432 1053 407 1074 q 480 1017 457 1033 q 532 1000 503 1000 z "},"å":{"ha":833,"x_min":78,"x_max":724,"o":"m 78 218 q 155 394 78 329 q 364 458 232 458 l 571 458 l 571 524 q 528 619 571 585 q 408 654 486 654 q 307 632 349 654 q 253 571 265 610 l 101 571 q 203 722 119 667 q 410 778 286 778 q 640 711 556 778 q 724 528 724 644 l 724 0 l 582 0 l 582 149 l 571 149 q 489 30 556 74 q 328 -14 422 -14 q 145 49 213 -14 q 78 218 78 111 m 374 108 q 451 119 415 108 q 514 151 488 131 q 556 198 540 171 q 571 257 571 225 l 571 353 l 365 353 q 267 321 303 353 q 231 231 231 289 q 268 140 231 172 q 374 108 306 108 m 250 990 q 296 1097 250 1057 q 417 1136 342 1136 q 538 1097 492 1136 q 583 990 583 1057 q 538 884 583 924 q 417 844 492 844 q 296 884 342 844 q 250 990 250 924 m 338 990 q 415 917 338 917 q 475 936 454 917 q 496 990 496 956 q 475 1046 496 1026 q 415 1065 454 1065 q 358 1046 379 1065 q 338 990 338 1026 z "},"è":{"ha":833,"x_min":96,"x_max":736,"o":"m 417 -14 q 284 7 343 -14 q 183 67 225 28 q 119 160 142 106 q 96 282 96 214 l 96 482 q 119 605 96 550 q 183 698 142 660 q 284 757 225 736 q 417 778 343 778 q 549 757 490 778 q 650 698 608 736 q 714 605 692 660 q 736 482 736 550 l 736 342 l 249 342 l 249 288 q 293 160 249 206 q 417 114 338 114 q 517 132 475 114 q 579 185 560 150 l 731 185 q 690 103 718 139 q 622 40 663 67 q 528 0 581 14 q 417 -14 476 -14 m 586 453 l 586 482 q 542 606 586 561 q 417 651 497 651 q 293 606 338 651 q 249 482 249 561 l 249 453 l 586 453 m 229 1101 l 400 1101 l 549 899 l 406 899 l 229 1101 z "},"é":{"ha":833,"x_min":96,"x_max":736,"o":"m 417 -14 q 284 7 343 -14 q 183 67 225 28 q 119 160 142 106 q 96 282 96 214 l 96 482 q 119 605 96 550 q 183 698 142 660 q 284 757 225 736 q 417 778 343 778 q 549 757 490 778 q 650 698 608 736 q 714 605 692 660 q 736 482 736 550 l 736 342 l 249 342 l 249 288 q 293 160 249 206 q 417 114 338 114 q 517 132 475 114 q 579 185 560 150 l 731 185 q 690 103 718 139 q 622 40 663 67 q 528 0 581 14 q 417 -14 476 -14 m 586 453 l 586 482 q 542 606 586 561 q 417 651 497 651 q 293 606 338 651 q 249 482 249 561 l 249 453 l 586 453 m 456 899 l 313 899 l 461 1101 l 632 1101 l 456 899 z "},"ê":{"ha":833,"x_min":96,"x_max":736,"o":"m 417 -14 q 284 7 343 -14 q 183 67 225 28 q 119 160 142 106 q 96 282 96 214 l 96 482 q 119 605 96 550 q 183 698 142 660 q 284 757 225 736 q 417 778 343 778 q 549 757 490 778 q 650 698 608 736 q 714 605 692 660 q 736 482 736 550 l 736 342 l 249 342 l 249 288 q 293 160 249 206 q 417 114 338 114 q 517 132 475 114 q 579 185 560 150 l 731 185 q 690 103 718 139 q 622 40 663 67 q 528 0 581 14 q 417 -14 476 -14 m 586 453 l 586 482 q 542 606 586 561 q 417 651 497 651 q 293 606 338 651 q 249 482 249 561 l 249 453 l 586 453 m 346 1100 l 489 1100 l 656 899 l 532 899 l 458 978 q 426 1014 436 1006 q 419 1025 422 1021 l 415 1025 q 407 1015 413 1021 q 375 979 399 1004 l 301 899 l 178 899 l 346 1100 z "},"ë":{"ha":833,"x_min":96,"x_max":736,"o":"m 417 -14 q 284 7 343 -14 q 183 67 225 28 q 119 160 142 106 q 96 282 96 214 l 96 482 q 119 605 96 550 q 183 698 142 660 q 284 757 225 736 q 417 778 343 778 q 549 757 490 778 q 650 698 608 736 q 714 605 692 660 q 736 482 736 550 l 736 342 l 249 342 l 249 288 q 293 160 249 206 q 417 114 338 114 q 517 132 475 114 q 579 185 560 150 l 731 185 q 690 103 718 139 q 622 40 663 67 q 528 0 581 14 q 417 -14 476 -14 m 586 453 l 586 482 q 542 606 586 561 q 417 651 497 651 q 293 606 338 651 q 249 482 249 561 l 249 453 l 586 453 m 185 1006 q 210 1068 185 1044 q 275 1092 235 1092 q 340 1068 315 1092 q 365 1006 365 1044 q 340 943 365 967 q 275 919 315 919 q 210 943 235 919 q 185 1006 185 967 m 468 1006 q 493 1068 468 1044 q 558 1092 518 1092 q 624 1068 599 1092 q 649 1006 649 1044 q 624 943 649 967 q 558 919 599 919 q 493 943 518 919 q 468 1006 468 967 z "},"ì":{"ha":833,"x_min":114,"x_max":767,"o":"m 114 139 l 399 139 l 399 626 l 149 626 l 149 764 l 546 764 l 546 139 l 767 139 l 767 0 l 114 0 l 114 139 m 229 1101 l 400 1101 l 549 899 l 406 899 l 229 1101 z "},"í":{"ha":833,"x_min":114,"x_max":767,"o":"m 114 139 l 399 139 l 399 626 l 149 626 l 149 764 l 546 764 l 546 139 l 767 139 l 767 0 l 114 0 l 114 139 m 456 899 l 313 899 l 461 1101 l 632 1101 l 456 899 z "},"î":{"ha":833,"x_min":114,"x_max":767,"o":"m 114 139 l 399 139 l 399 626 l 149 626 l 149 764 l 546 764 l 546 139 l 767 139 l 767 0 l 114 0 l 114 139 m 346 1100 l 489 1100 l 656 899 l 532 899 l 458 978 q 426 1014 436 1006 q 419 1025 422 1021 l 415 1025 q 407 1015 413 1021 q 375 979 399 1004 l 301 899 l 178 899 l 346 1100 z "},"ï":{"ha":833,"x_min":114,"x_max":767,"o":"m 114 139 l 399 139 l 399 626 l 149 626 l 149 764 l 546 764 l 546 139 l 767 139 l 767 0 l 114 0 l 114 139 m 185 1006 q 210 1068 185 1044 q 275 1092 235 1092 q 340 1068 315 1092 q 365 1006 365 1044 q 340 943 365 967 q 275 919 315 919 q 210 943 235 919 q 185 1006 185 967 m 468 1006 q 493 1068 468 1044 q 558 1092 518 1092 q 624 1068 599 1092 q 649 1006 649 1044 q 624 943 649 967 q 558 919 599 919 q 493 943 518 919 q 468 1006 468 967 z "},"ò":{"ha":833,"x_min":96,"x_max":738,"o":"m 249 288 q 293 165 249 210 q 417 121 338 121 q 540 165 494 121 q 585 288 585 210 l 585 478 q 540 600 585 556 q 417 644 494 644 q 294 599 340 644 q 249 478 249 554 l 249 288 m 96 478 q 119 601 96 546 q 183 696 142 657 q 285 756 225 735 q 417 778 344 778 q 549 756 490 778 q 650 696 608 735 q 715 601 692 657 q 738 478 738 546 l 738 288 q 715 163 738 219 q 650 68 692 107 q 549 8 608 29 q 417 -14 490 -14 q 285 8 344 -14 q 183 69 225 29 q 119 164 142 108 q 96 288 96 219 l 96 478 m 229 1101 l 400 1101 l 549 899 l 406 899 l 229 1101 z "},"ó":{"ha":833,"x_min":96,"x_max":738,"o":"m 249 288 q 293 165 249 210 q 417 121 338 121 q 540 165 494 121 q 585 288 585 210 l 585 478 q 540 600 585 556 q 417 644 494 644 q 294 599 340 644 q 249 478 249 554 l 249 288 m 96 478 q 119 601 96 546 q 183 696 142 657 q 285 756 225 735 q 417 778 344 778 q 549 756 490 778 q 650 696 608 735 q 715 601 692 657 q 738 478 738 546 l 738 288 q 715 163 738 219 q 650 68 692 107 q 549 8 608 29 q 417 -14 490 -14 q 285 8 344 -14 q 183 69 225 29 q 119 164 142 108 q 96 288 96 219 l 96 478 m 456 899 l 313 899 l 461 1101 l 632 1101 l 456 899 z "},"ô":{"ha":833,"x_min":96,"x_max":738,"o":"m 249 288 q 293 165 249 210 q 417 121 338 121 q 540 165 494 121 q 585 288 585 210 l 585 478 q 540 600 585 556 q 417 644 494 644 q 294 599 340 644 q 249 478 249 554 l 249 288 m 96 478 q 119 601 96 546 q 183 696 142 657 q 285 756 225 735 q 417 778 344 778 q 549 756 490 778 q 650 696 608 735 q 715 601 692 657 q 738 478 738 546 l 738 288 q 715 163 738 219 q 650 68 692 107 q 549 8 608 29 q 417 -14 490 -14 q 285 8 344 -14 q 183 69 225 29 q 119 164 142 108 q 96 288 96 219 l 96 478 m 346 1100 l 489 1100 l 656 899 l 532 899 l 458 978 q 426 1014 436 1006 q 419 1025 422 1021 l 415 1025 q 407 1015 413 1021 q 375 979 399 1004 l 301 899 l 178 899 l 346 1100 z "},"õ":{"ha":833,"x_min":96,"x_max":738,"o":"m 249 288 q 293 165 249 210 q 417 121 338 121 q 540 165 494 121 q 585 288 585 210 l 585 478 q 540 600 585 556 q 417 644 494 644 q 294 599 340 644 q 249 478 249 554 l 249 288 m 96 478 q 119 601 96 546 q 183 696 142 657 q 285 756 225 735 q 417 778 344 778 q 549 756 490 778 q 650 696 608 735 q 715 601 692 657 q 738 478 738 546 l 738 288 q 715 163 738 219 q 650 68 692 107 q 549 8 608 29 q 417 -14 490 -14 q 285 8 344 -14 q 183 69 225 29 q 119 164 142 108 q 96 288 96 219 l 96 478 m 532 1000 q 588 1064 588 1000 l 588 1100 l 688 1100 l 688 1065 q 647 944 688 988 q 535 900 607 900 q 458 917 489 900 q 401 953 426 933 q 353 990 376 974 q 301 1007 331 1007 q 260 990 275 1007 q 246 940 246 972 l 246 907 l 146 907 l 146 942 q 186 1063 146 1019 q 299 1107 226 1107 q 376 1090 344 1107 q 432 1053 407 1074 q 480 1017 457 1033 q 532 1000 503 1000 z "},"ö":{"ha":833,"x_min":96,"x_max":738,"o":"m 249 288 q 293 165 249 210 q 417 121 338 121 q 540 165 494 121 q 585 288 585 210 l 585 478 q 540 600 585 556 q 417 644 494 644 q 294 599 340 644 q 249 478 249 554 l 249 288 m 96 478 q 119 601 96 546 q 183 696 142 657 q 285 756 225 735 q 417 778 344 778 q 549 756 490 778 q 650 696 608 735 q 715 601 692 657 q 738 478 738 546 l 738 288 q 715 163 738 219 q 650 68 692 107 q 549 8 608 29 q 417 -14 490 -14 q 285 8 344 -14 q 183 69 225 29 q 119 164 142 108 q 96 288 96 219 l 96 478 m 185 1006 q 210 1068 185 1044 q 275 1092 235 1092 q 340 1068 315 1092 q 365 1006 365 1044 q 340 943 365 967 q 275 919 315 919 q 210 943 235 919 q 185 1006 185 967 m 468 1006 q 493 1068 468 1044 q 558 1092 518 1092 q 624 1068 599 1092 q 649 1006 649 1044 q 624 943 649 967 q 558 919 599 919 q 493 943 518 919 q 468 1006 468 967 z "},"š":{"ha":833,"x_min":92,"x_max":736,"o":"m 390 -14 q 183 41 263 -14 q 92 192 103 96 l 250 192 q 297 132 258 154 q 390 110 335 110 l 440 110 q 547 138 508 110 q 585 214 585 165 q 463 314 585 297 l 351 329 q 169 400 228 344 q 110 556 110 456 q 184 719 110 661 q 396 778 258 778 l 444 778 q 641 724 565 778 q 731 579 717 671 l 574 579 q 531 634 565 614 q 444 654 496 654 l 396 654 q 296 630 331 654 q 261 557 261 606 q 287 494 261 517 q 369 465 313 472 l 483 450 q 675 376 614 432 q 736 218 736 321 q 660 47 736 107 q 440 -14 583 -14 l 390 -14 m 178 1100 l 301 1100 l 375 1019 q 395 998 388 1007 q 407 983 403 989 q 415 974 413 978 l 419 974 q 426 983 422 978 q 440 999 432 990 q 458 1021 447 1007 l 532 1100 l 656 1100 l 489 899 l 346 899 l 178 1100 z "},"ù":{"ha":833,"x_min":114,"x_max":719,"o":"m 114 764 l 267 764 l 267 279 q 415 119 267 119 q 568 279 568 119 l 568 764 l 719 764 l 719 279 q 640 63 719 139 q 415 -14 561 -14 q 193 63 272 -14 q 114 279 114 140 l 114 764 m 229 1101 l 400 1101 l 549 899 l 406 899 l 229 1101 z "},"ú":{"ha":833,"x_min":114,"x_max":719,"o":"m 114 764 l 267 764 l 267 279 q 415 119 267 119 q 568 279 568 119 l 568 764 l 719 764 l 719 279 q 640 63 719 139 q 415 -14 561 -14 q 193 63 272 -14 q 114 279 114 140 l 114 764 m 456 899 l 313 899 l 461 1101 l 632 1101 l 456 899 z "},"û":{"ha":833,"x_min":114,"x_max":719,"o":"m 114 764 l 267 764 l 267 279 q 415 119 267 119 q 568 279 568 119 l 568 764 l 719 764 l 719 279 q 640 63 719 139 q 415 -14 561 -14 q 193 63 272 -14 q 114 279 114 140 l 114 764 m 346 1100 l 489 1100 l 656 899 l 532 899 l 458 978 q 426 1014 436 1006 q 419 1025 422 1021 l 415 1025 q 407 1015 413 1021 q 375 979 399 1004 l 301 899 l 178 899 l 346 1100 z "},"ü":{"ha":833,"x_min":114,"x_max":719,"o":"m 114 764 l 267 764 l 267 279 q 415 119 267 119 q 568 279 568 119 l 568 764 l 719 764 l 719 279 q 640 63 719 139 q 415 -14 561 -14 q 193 63 272 -14 q 114 279 114 140 l 114 764 m 185 1006 q 210 1068 185 1044 q 275 1092 235 1092 q 340 1068 315 1092 q 365 1006 365 1044 q 340 943 365 967 q 275 919 315 919 q 210 943 235 919 q 185 1006 185 967 m 468 1006 q 493 1068 468 1044 q 558 1092 518 1092 q 624 1068 599 1092 q 649 1006 649 1044 q 624 943 649 967 q 558 919 599 919 q 493 943 518 919 q 468 1006 468 967 z "},"ý":{"ha":833,"x_min":58,"x_max":775,"o":"m 225 764 l 386 343 q 404 288 397 315 q 414 238 411 261 q 421 188 419 211 l 432 188 q 438 238 433 211 q 448 288 442 260 q 464 343 454 315 l 614 764 l 775 764 l 410 -229 l 247 -229 l 353 49 l 58 764 l 225 764 m 456 899 l 313 899 l 461 1101 l 632 1101 l 456 899 z "},"ÿ":{"ha":833,"x_min":58,"x_max":775,"o":"m 225 764 l 386 343 q 404 288 397 315 q 414 238 411 261 q 421 188 419 211 l 432 188 q 438 238 433 211 q 448 288 442 260 q 464 343 454 315 l 614 764 l 775 764 l 410 -229 l 247 -229 l 353 49 l 58 764 l 225 764 m 185 1006 q 210 1068 185 1044 q 275 1092 235 1092 q 340 1068 315 1092 q 365 1006 365 1044 q 340 943 365 967 q 275 919 315 919 q 210 943 235 919 q 185 1006 185 967 m 468 1006 q 493 1068 468 1044 q 558 1092 518 1092 q 624 1068 599 1092 q 649 1006 649 1044 q 624 943 649 967 q 558 919 599 919 q 493 943 518 919 q 468 1006 468 967 z "},"ž":{"ha":833,"x_min":104,"x_max":729,"o":"m 115 764 l 714 764 l 714 610 l 272 128 q 306 131 289 129 q 339 133 321 132 q 375 133 357 133 l 729 133 l 729 0 l 104 0 l 104 153 l 547 635 q 511 633 529 633 q 477 631 496 632 q 440 631 458 631 l 115 631 l 115 764 m 178 1100 l 301 1100 l 375 1019 q 395 998 388 1007 q 407 983 403 989 q 415 974 413 978 l 419 974 q 426 983 422 978 q 440 999 432 990 q 458 1021 447 1007 l 532 1100 l 656 1100 l 489 899 l 346 899 l 178 1100 z "},"Ñ":{"ha":833,"x_min":106,"x_max":728,"o":"m 296 1000 l 546 332 q 563 278 556 308 q 578 219 571 247 q 592 153 585 186 l 606 153 q 603 171 606 153 q 598 218 601 189 q 592 283 594 247 q 589 356 589 319 l 589 1000 l 728 1000 l 728 0 l 539 0 l 292 669 q 272 728 281 697 q 257 788 264 760 q 244 849 250 818 l 231 849 q 238 788 235 819 q 242 724 240 760 q 244 647 244 688 l 244 0 l 106 0 l 106 1000 l 296 1000 m 532 1222 q 588 1286 588 1222 l 588 1322 l 688 1322 l 688 1288 q 647 1166 688 1210 q 535 1122 607 1122 q 458 1139 489 1122 q 401 1176 426 1156 q 353 1213 376 1196 q 301 1229 331 1229 q 260 1212 275 1229 q 246 1163 246 1194 l 246 1129 l 146 1129 l 146 1164 q 186 1285 146 1242 q 299 1329 226 1329 q 376 1313 344 1329 q 432 1276 407 1296 q 480 1239 457 1256 q 532 1222 503 1222 z "},"Đ":{"ha":833,"x_min":42,"x_max":738,"o":"m 111 563 l 111 1000 l 407 1000 q 542 978 482 1000 q 647 915 603 956 q 714 816 690 874 q 738 689 738 758 l 738 313 q 714 184 738 242 q 647 85 690 126 q 542 22 603 44 q 407 0 482 0 l 111 0 l 111 431 l 42 431 l 42 563 l 111 563 m 417 563 l 417 431 l 264 431 l 264 139 l 407 139 q 535 186 486 139 q 583 313 583 233 l 583 689 q 535 814 583 767 q 407 861 486 861 l 264 861 l 264 563 l 417 563 z "},"Ð":{"ha":833,"x_min":42,"x_max":738,"o":"m 111 563 l 111 1000 l 407 1000 q 542 978 482 1000 q 647 915 603 956 q 714 816 690 874 q 738 689 738 758 l 738 313 q 714 184 738 242 q 647 85 690 126 q 542 22 603 44 q 407 0 482 0 l 111 0 l 111 431 l 42 431 l 42 563 l 111 563 m 417 563 l 417 431 l 264 431 l 264 139 l 407 139 q 535 186 486 139 q 583 313 583 233 l 583 689 q 535 814 583 767 q 407 861 486 861 l 264 861 l 264 563 l 417 563 z "},"þ":{"ha":833,"x_min":106,"x_max":732,"o":"m 258 1014 l 258 774 q 258 729 258 754 q 256 682 257 704 q 251 632 253 657 l 264 632 q 334 740 279 701 q 472 778 389 778 q 578 757 531 778 q 660 697 626 736 q 713 603 694 658 q 732 479 732 549 l 732 288 q 713 162 732 218 q 660 67 694 106 q 578 7 626 28 q 472 -14 531 -14 q 334 24 389 -14 q 264 132 279 63 l 253 132 l 253 78 l 254 -229 l 106 -229 l 106 1014 l 258 1014 m 417 646 q 302 600 346 646 q 258 476 258 554 l 258 288 q 301 165 258 211 q 417 119 344 119 q 536 165 493 119 q 579 289 579 211 l 579 476 q 536 601 579 556 q 417 646 493 646 z "},"Ø":{"ha":833,"x_min":39,"x_max":794,"o":"m 39 -51 l 139 124 q 96 289 96 194 l 96 711 q 119 836 96 781 q 183 931 142 892 q 284 992 225 971 q 417 1014 343 1014 q 613 961 535 1014 l 656 1038 l 794 1038 l 699 869 q 738 711 738 800 l 738 289 q 715 165 738 221 q 649 69 692 108 q 548 8 607 29 q 417 -14 489 -14 q 226 35 304 -14 l 178 -51 l 39 -51 m 540 833 q 417 881 496 881 q 294 835 340 881 q 249 711 249 789 l 249 319 l 540 833 m 299 163 q 417 121 344 121 q 539 167 493 121 q 585 289 585 213 l 585 667 l 299 163 z "},"ø":{"ha":833,"x_min":44,"x_max":789,"o":"m 44 -42 l 150 107 q 110 189 124 143 q 96 288 96 235 l 96 478 q 119 601 96 546 q 183 696 142 657 q 285 756 225 735 q 417 778 344 778 q 593 736 521 778 l 649 815 l 789 815 l 681 663 q 723 578 708 625 q 738 478 738 532 l 738 288 q 715 163 738 219 q 650 68 692 107 q 549 8 608 29 q 417 -14 490 -14 q 235 31 311 -14 l 185 -42 l 44 -42 m 318 147 q 417 121 360 121 q 540 165 494 121 q 585 288 585 210 l 585 478 q 581 519 585 501 l 318 147 m 511 621 q 417 644 472 644 q 294 599 340 644 q 249 478 249 554 l 249 288 q 249 269 249 278 q 251 251 250 260 l 511 621 z "},"ł":{"ha":833,"x_min":49,"x_max":771,"o":"m 49 1014 l 449 1014 l 449 650 l 657 778 l 657 639 l 449 511 l 449 236 q 474 165 449 190 q 543 139 499 139 l 771 139 l 771 0 l 536 0 q 360 63 424 0 q 296 236 296 126 l 296 417 l 139 319 l 139 458 l 296 556 l 296 876 l 49 876 l 49 1014 z "},"Ł":{"ha":833,"x_min":28,"x_max":750,"o":"m 28 458 l 146 531 l 146 1000 l 299 1000 l 299 625 l 546 778 l 546 639 l 299 486 l 299 140 l 750 140 l 750 0 l 146 0 l 146 392 l 28 319 l 28 458 z "},"Ā":{"ha":833,"x_min":46,"x_max":788,"o":"m 46 0 l 317 1000 l 525 1000 l 788 0 l 629 0 l 565 265 l 267 265 l 203 0 l 46 0 m 297 388 l 535 388 l 444 763 q 433 813 438 789 q 426 857 429 838 q 421 899 424 879 l 414 899 q 407 857 411 879 q 399 813 404 838 q 388 763 394 789 l 297 388 m 226 1299 l 607 1299 l 607 1169 l 226 1169 l 226 1299 z "},"ā":{"ha":833,"x_min":78,"x_max":724,"o":"m 78 218 q 155 394 78 329 q 364 458 232 458 l 571 458 l 571 524 q 528 619 571 585 q 408 654 486 654 q 307 632 349 654 q 253 571 265 610 l 101 571 q 203 722 119 667 q 410 778 286 778 q 640 711 556 778 q 724 528 724 644 l 724 0 l 582 0 l 582 149 l 571 149 q 489 30 556 74 q 328 -14 422 -14 q 145 49 213 -14 q 78 218 78 111 m 374 108 q 451 119 415 108 q 514 151 488 131 q 556 198 540 171 q 571 257 571 225 l 571 353 l 365 353 q 267 321 303 353 q 231 231 231 289 q 268 140 231 172 q 374 108 306 108 m 226 1076 l 607 1076 l 607 947 l 226 947 l 226 1076 z "},"Ă":{"ha":833,"x_min":46,"x_max":788,"o":"m 46 0 l 317 1000 l 525 1000 l 788 0 l 629 0 l 565 265 l 267 265 l 203 0 l 46 0 m 297 388 l 535 388 l 444 763 q 433 813 438 789 q 426 857 429 838 q 421 899 424 879 l 414 899 q 407 857 411 879 q 399 813 404 838 q 388 763 394 789 l 297 388 m 176 1315 l 299 1315 q 331 1248 299 1271 q 415 1225 363 1225 q 501 1248 468 1225 q 535 1315 535 1271 l 657 1315 q 639 1237 657 1272 q 589 1176 621 1201 q 513 1136 557 1150 q 417 1122 469 1122 q 321 1136 365 1122 q 244 1176 276 1150 q 194 1237 213 1201 q 176 1315 176 1272 z "},"ă":{"ha":833,"x_min":78,"x_max":724,"o":"m 78 218 q 155 394 78 329 q 364 458 232 458 l 571 458 l 571 524 q 528 619 571 585 q 408 654 486 654 q 307 632 349 654 q 253 571 265 610 l 101 571 q 203 722 119 667 q 410 778 286 778 q 640 711 556 778 q 724 528 724 644 l 724 0 l 582 0 l 582 149 l 571 149 q 489 30 556 74 q 328 -14 422 -14 q 145 49 213 -14 q 78 218 78 111 m 374 108 q 451 119 415 108 q 514 151 488 131 q 556 198 540 171 q 571 257 571 225 l 571 353 l 365 353 q 267 321 303 353 q 231 231 231 289 q 268 140 231 172 q 374 108 306 108 m 176 1093 l 299 1093 q 331 1026 299 1049 q 415 1003 363 1003 q 501 1026 468 1003 q 535 1093 535 1049 l 657 1093 q 639 1015 657 1050 q 589 953 621 979 q 513 914 557 928 q 417 900 469 900 q 321 914 365 900 q 244 953 276 928 q 194 1015 213 979 q 176 1093 176 1050 z "},"Ą":{"ha":833,"x_min":46,"x_max":818,"o":"m 46 0 l 317 1000 l 525 1000 l 788 0 l 629 0 l 565 265 l 267 265 l 203 0 l 46 0 m 297 388 l 535 388 l 444 763 q 433 813 438 789 q 426 857 429 838 q 421 899 424 879 l 414 899 q 407 857 411 879 q 399 813 404 838 q 388 763 394 789 l 297 388 m 760 14 l 740 -1 q 678 -67 697 -37 q 658 -125 658 -97 q 678 -171 658 -154 q 731 -187 697 -187 l 818 -187 l 818 -282 l 701 -282 q 575 -247 622 -282 q 528 -153 528 -211 q 552 -72 528 -112 q 639 14 576 -32 l 760 14 z "},"ą":{"ha":833,"x_min":78,"x_max":769,"o":"m 78 218 q 155 394 78 329 q 364 458 232 458 l 571 458 l 571 524 q 528 619 571 585 q 408 654 486 654 q 307 632 349 654 q 253 571 265 610 l 101 571 q 203 722 119 667 q 410 778 286 778 q 640 711 556 778 q 724 528 724 644 l 724 0 l 582 0 l 582 149 l 571 149 q 489 30 556 74 q 328 -14 422 -14 q 145 49 213 -14 q 78 218 78 111 m 374 108 q 451 119 415 108 q 514 151 488 131 q 556 198 540 171 q 571 257 571 225 l 571 353 l 365 353 q 267 321 303 353 q 231 231 231 289 q 268 140 231 172 q 374 108 306 108 m 711 14 l 692 -1 q 629 -67 649 -37 q 610 -125 610 -97 q 629 -171 610 -154 q 682 -187 649 -187 l 769 -187 l 769 -282 l 653 -282 q 526 -247 574 -282 q 479 -153 479 -211 q 503 -72 479 -112 q 590 14 528 -32 l 711 14 z "},"Ć":{"ha":833,"x_min":104,"x_max":744,"o":"m 425 1014 q 649 938 564 1014 q 744 729 733 861 l 592 729 q 541 839 585 800 q 425 878 497 878 q 302 833 347 878 q 257 711 257 789 l 257 289 q 301 167 257 211 q 424 122 344 122 q 541 162 497 122 q 592 271 585 201 l 744 271 q 715 153 739 206 q 649 63 690 100 q 550 6 607 26 q 424 -14 493 -14 q 292 8 351 -14 q 192 69 233 29 q 127 165 150 108 q 104 289 104 221 l 104 711 q 127 836 104 781 q 192 931 150 892 q 292 992 233 971 q 425 1014 351 1014 m 456 1121 l 313 1121 l 461 1324 l 632 1324 l 456 1121 z "},"ć":{"ha":833,"x_min":107,"x_max":747,"o":"m 426 -14 q 294 7 353 -14 q 193 67 235 28 q 129 161 151 106 q 107 285 107 217 l 107 479 q 129 603 107 547 q 193 697 151 658 q 294 757 235 736 q 426 778 353 778 q 547 760 492 778 q 643 707 601 742 q 712 624 685 672 q 747 514 739 575 l 594 514 q 539 608 585 572 q 426 644 493 644 q 303 601 347 644 q 258 479 258 557 l 258 285 q 303 164 258 207 q 426 121 347 121 q 539 156 493 121 q 594 250 585 192 l 747 250 q 642 57 728 128 q 426 -14 557 -14 m 456 899 l 313 899 l 461 1101 l 632 1101 l 456 899 z "},"Ĉ":{"ha":833,"x_min":104,"x_max":744,"o":"m 425 1014 q 649 938 564 1014 q 744 729 733 861 l 592 729 q 541 839 585 800 q 425 878 497 878 q 302 833 347 878 q 257 711 257 789 l 257 289 q 301 167 257 211 q 424 122 344 122 q 541 162 497 122 q 592 271 585 201 l 744 271 q 715 153 739 206 q 649 63 690 100 q 550 6 607 26 q 424 -14 493 -14 q 292 8 351 -14 q 192 69 233 29 q 127 165 150 108 q 104 289 104 221 l 104 711 q 127 836 104 781 q 192 931 150 892 q 292 992 233 971 q 425 1014 351 1014 m 346 1322 l 489 1322 l 656 1121 l 532 1121 l 458 1200 q 426 1236 436 1228 q 419 1247 422 1243 l 415 1247 q 407 1238 413 1243 q 375 1201 399 1226 l 301 1121 l 178 1121 l 346 1322 z "},"ĉ":{"ha":833,"x_min":107,"x_max":747,"o":"m 426 -14 q 294 7 353 -14 q 193 67 235 28 q 129 161 151 106 q 107 285 107 217 l 107 479 q 129 603 107 547 q 193 697 151 658 q 294 757 235 736 q 426 778 353 778 q 547 760 492 778 q 643 707 601 742 q 712 624 685 672 q 747 514 739 575 l 594 514 q 539 608 585 572 q 426 644 493 644 q 303 601 347 644 q 258 479 258 557 l 258 285 q 303 164 258 207 q 426 121 347 121 q 539 156 493 121 q 594 250 585 192 l 747 250 q 642 57 728 128 q 426 -14 557 -14 m 346 1100 l 489 1100 l 656 899 l 532 899 l 458 978 q 426 1014 436 1006 q 419 1025 422 1021 l 415 1025 q 407 1015 413 1021 q 375 979 399 1004 l 301 899 l 178 899 l 346 1100 z "},"Ċ":{"ha":833,"x_min":104,"x_max":744,"o":"m 425 1014 q 649 938 564 1014 q 744 729 733 861 l 592 729 q 541 839 585 800 q 425 878 497 878 q 302 833 347 878 q 257 711 257 789 l 257 289 q 301 167 257 211 q 424 122 344 122 q 541 162 497 122 q 592 271 585 201 l 744 271 q 715 153 739 206 q 649 63 690 100 q 550 6 607 26 q 424 -14 493 -14 q 292 8 351 -14 q 192 69 233 29 q 127 165 150 108 q 104 289 104 221 l 104 711 q 127 836 104 781 q 192 931 150 892 q 292 992 233 971 q 425 1014 351 1014 m 386 1336 l 419 1336 q 488 1312 463 1336 q 514 1247 514 1288 q 488 1183 514 1207 q 418 1160 463 1160 l 386 1160 q 317 1183 343 1160 q 292 1247 292 1207 q 317 1312 292 1288 q 386 1336 343 1336 z "},"ċ":{"ha":833,"x_min":107,"x_max":747,"o":"m 426 -14 q 294 7 353 -14 q 193 67 235 28 q 129 161 151 106 q 107 285 107 217 l 107 479 q 129 603 107 547 q 193 697 151 658 q 294 757 235 736 q 426 778 353 778 q 547 760 492 778 q 643 707 601 742 q 712 624 685 672 q 747 514 739 575 l 594 514 q 539 608 585 572 q 426 644 493 644 q 303 601 347 644 q 258 479 258 557 l 258 285 q 303 164 258 207 q 426 121 347 121 q 539 156 493 121 q 594 250 585 192 l 747 250 q 642 57 728 128 q 426 -14 557 -14 m 386 1114 l 419 1114 q 488 1090 463 1114 q 514 1025 514 1065 q 488 961 514 985 q 418 938 463 938 l 386 938 q 317 961 343 938 q 292 1025 292 985 q 317 1090 292 1065 q 386 1114 343 1114 z "},"Č":{"ha":833,"x_min":104,"x_max":744,"o":"m 425 1014 q 649 938 564 1014 q 744 729 733 861 l 592 729 q 541 839 585 800 q 425 878 497 878 q 302 833 347 878 q 257 711 257 789 l 257 289 q 301 167 257 211 q 424 122 344 122 q 541 162 497 122 q 592 271 585 201 l 744 271 q 715 153 739 206 q 649 63 690 100 q 550 6 607 26 q 424 -14 493 -14 q 292 8 351 -14 q 192 69 233 29 q 127 165 150 108 q 104 289 104 221 l 104 711 q 127 836 104 781 q 192 931 150 892 q 292 992 233 971 q 425 1014 351 1014 m 178 1322 l 301 1322 l 375 1242 q 395 1220 388 1229 q 407 1206 403 1211 q 415 1196 413 1200 l 419 1196 q 426 1206 422 1200 q 440 1221 432 1213 q 458 1243 447 1229 l 532 1322 l 656 1322 l 489 1121 l 346 1121 l 178 1322 z "},"Ď":{"ha":833,"x_min":111,"x_max":738,"o":"m 407 139 q 535 186 486 139 q 583 313 583 233 l 583 689 q 535 814 583 767 q 407 861 486 861 l 264 861 l 264 139 l 407 139 m 111 0 l 111 1000 l 407 1000 q 542 978 482 1000 q 647 915 603 956 q 714 816 690 874 q 738 689 738 758 l 738 313 q 714 184 738 242 q 647 85 690 126 q 542 22 603 44 q 407 0 482 0 l 111 0 m 178 1322 l 301 1322 l 375 1242 q 395 1220 388 1229 q 407 1206 403 1211 q 415 1196 413 1200 l 419 1196 q 426 1206 422 1200 q 440 1221 432 1213 q 458 1243 447 1229 l 532 1322 l 656 1322 l 489 1121 l 346 1121 l 178 1322 z "},"ď":{"ha":833,"x_min":74,"x_max":915,"o":"m 74 288 l 74 479 q 92 603 74 549 q 145 697 111 658 q 227 757 179 736 q 333 778 275 778 q 472 740 417 778 q 542 632 526 701 l 554 632 q 551 679 553 656 q 548 723 549 700 q 547 764 547 746 l 547 1014 l 700 1014 l 700 0 l 554 0 l 554 132 l 542 132 q 472 24 526 63 q 333 -14 417 -14 q 227 7 275 -14 q 145 67 179 28 q 92 162 111 106 q 74 288 74 218 m 389 119 q 504 165 461 119 q 547 288 547 211 l 547 476 q 503 600 547 554 q 389 646 460 646 q 269 601 313 646 q 226 476 226 556 l 226 289 q 269 165 226 211 q 389 119 313 119 m 790 1050 l 915 1050 l 821 847 l 724 847 l 790 1050 z "},"Ē":{"ha":833,"x_min":125,"x_max":729,"o":"m 125 0 l 125 1000 l 729 1000 l 729 864 l 278 864 l 278 582 l 681 582 l 681 446 l 278 446 l 278 136 l 729 136 l 729 0 l 125 0 m 226 1299 l 607 1299 l 607 1169 l 226 1169 l 226 1299 z "},"ē":{"ha":833,"x_min":96,"x_max":736,"o":"m 417 -14 q 284 7 343 -14 q 183 67 225 28 q 119 160 142 106 q 96 282 96 214 l 96 482 q 119 605 96 550 q 183 698 142 660 q 284 757 225 736 q 417 778 343 778 q 549 757 490 778 q 650 698 608 736 q 714 605 692 660 q 736 482 736 550 l 736 342 l 249 342 l 249 288 q 293 160 249 206 q 417 114 338 114 q 517 132 475 114 q 579 185 560 150 l 731 185 q 690 103 718 139 q 622 40 663 67 q 528 0 581 14 q 417 -14 476 -14 m 586 453 l 586 482 q 542 606 586 561 q 417 651 497 651 q 293 606 338 651 q 249 482 249 561 l 249 453 l 586 453 m 226 1076 l 607 1076 l 607 947 l 226 947 l 226 1076 z "},"Ĕ":{"ha":833,"x_min":125,"x_max":729,"o":"m 125 0 l 125 1000 l 729 1000 l 729 864 l 278 864 l 278 582 l 681 582 l 681 446 l 278 446 l 278 136 l 729 136 l 729 0 l 125 0 m 176 1315 l 299 1315 q 331 1248 299 1271 q 415 1225 363 1225 q 501 1248 468 1225 q 535 1315 535 1271 l 657 1315 q 639 1237 657 1272 q 589 1176 621 1201 q 513 1136 557 1150 q 417 1122 469 1122 q 321 1136 365 1122 q 244 1176 276 1150 q 194 1237 213 1201 q 176 1315 176 1272 z "},"ĕ":{"ha":833,"x_min":96,"x_max":736,"o":"m 417 -14 q 284 7 343 -14 q 183 67 225 28 q 119 160 142 106 q 96 282 96 214 l 96 482 q 119 605 96 550 q 183 698 142 660 q 284 757 225 736 q 417 778 343 778 q 549 757 490 778 q 650 698 608 736 q 714 605 692 660 q 736 482 736 550 l 736 342 l 249 342 l 249 288 q 293 160 249 206 q 417 114 338 114 q 517 132 475 114 q 579 185 560 150 l 731 185 q 690 103 718 139 q 622 40 663 67 q 528 0 581 14 q 417 -14 476 -14 m 586 453 l 586 482 q 542 606 586 561 q 417 651 497 651 q 293 606 338 651 q 249 482 249 561 l 249 453 l 586 453 m 176 1093 l 299 1093 q 331 1026 299 1049 q 415 1003 363 1003 q 501 1026 468 1003 q 535 1093 535 1049 l 657 1093 q 639 1015 657 1050 q 589 953 621 979 q 513 914 557 928 q 417 900 469 900 q 321 914 365 900 q 244 953 276 928 q 194 1015 213 979 q 176 1093 176 1050 z "},"Ė":{"ha":833,"x_min":125,"x_max":729,"o":"m 125 0 l 125 1000 l 729 1000 l 729 864 l 278 864 l 278 582 l 681 582 l 681 446 l 278 446 l 278 136 l 729 136 l 729 0 l 125 0 m 386 1336 l 419 1336 q 488 1312 463 1336 q 514 1247 514 1288 q 488 1183 514 1207 q 418 1160 463 1160 l 386 1160 q 317 1183 343 1160 q 292 1247 292 1207 q 317 1312 292 1288 q 386 1336 343 1336 z "},"ė":{"ha":833,"x_min":96,"x_max":736,"o":"m 417 -14 q 284 7 343 -14 q 183 67 225 28 q 119 160 142 106 q 96 282 96 214 l 96 482 q 119 605 96 550 q 183 698 142 660 q 284 757 225 736 q 417 778 343 778 q 549 757 490 778 q 650 698 608 736 q 714 605 692 660 q 736 482 736 550 l 736 342 l 249 342 l 249 288 q 293 160 249 206 q 417 114 338 114 q 517 132 475 114 q 579 185 560 150 l 731 185 q 690 103 718 139 q 622 40 663 67 q 528 0 581 14 q 417 -14 476 -14 m 586 453 l 586 482 q 542 606 586 561 q 417 651 497 651 q 293 606 338 651 q 249 482 249 561 l 249 453 l 586 453 m 386 1114 l 419 1114 q 488 1090 463 1114 q 514 1025 514 1065 q 488 961 514 985 q 418 938 463 938 l 386 938 q 317 961 343 938 q 292 1025 292 985 q 317 1090 292 1065 q 386 1114 343 1114 z "},"Ę":{"ha":833,"x_min":125,"x_max":729,"o":"m 125 0 l 125 1000 l 729 1000 l 729 864 l 278 864 l 278 582 l 681 582 l 681 446 l 278 446 l 278 136 l 729 136 l 729 0 l 125 0 m 665 14 l 646 -1 q 583 -67 603 -37 q 564 -125 564 -97 q 583 -171 564 -154 q 636 -187 603 -187 l 724 -187 l 724 -282 l 607 -282 q 481 -247 528 -282 q 433 -153 433 -211 q 458 -72 433 -112 q 544 14 482 -32 l 665 14 z "},"ę":{"ha":833,"x_min":96,"x_max":736,"o":"m 417 -14 q 284 7 343 -14 q 183 67 225 28 q 119 160 142 106 q 96 282 96 214 l 96 482 q 119 605 96 550 q 183 698 142 660 q 284 757 225 736 q 417 778 343 778 q 549 757 490 778 q 650 698 608 736 q 714 605 692 660 q 736 482 736 550 l 736 342 l 249 342 l 249 288 q 293 160 249 206 q 417 114 338 114 q 517 132 475 114 q 579 185 560 150 l 731 185 q 696 111 719 144 q 639 51 672 78 l 578 -3 q 510 -118 510 -67 q 531 -169 510 -150 q 588 -187 551 -187 l 694 -187 l 694 -282 l 557 -282 q 428 -245 475 -282 q 381 -156 381 -208 q 463 -11 381 -83 q 440 -13 451 -12 q 417 -14 428 -14 m 586 453 l 586 482 q 542 606 586 561 q 417 651 497 651 q 293 606 338 651 q 249 482 249 561 l 249 453 l 586 453 z "},"Ě":{"ha":833,"x_min":125,"x_max":729,"o":"m 125 0 l 125 1000 l 729 1000 l 729 864 l 278 864 l 278 582 l 681 582 l 681 446 l 278 446 l 278 136 l 729 136 l 729 0 l 125 0 m 178 1322 l 301 1322 l 375 1242 q 395 1220 388 1229 q 407 1206 403 1211 q 415 1196 413 1200 l 419 1196 q 426 1206 422 1200 q 440 1221 432 1213 q 458 1243 447 1229 l 532 1322 l 656 1322 l 489 1121 l 346 1121 l 178 1322 z "},"ě":{"ha":833,"x_min":96,"x_max":736,"o":"m 417 -14 q 284 7 343 -14 q 183 67 225 28 q 119 160 142 106 q 96 282 96 214 l 96 482 q 119 605 96 550 q 183 698 142 660 q 284 757 225 736 q 417 778 343 778 q 549 757 490 778 q 650 698 608 736 q 714 605 692 660 q 736 482 736 550 l 736 342 l 249 342 l 249 288 q 293 160 249 206 q 417 114 338 114 q 517 132 475 114 q 579 185 560 150 l 731 185 q 690 103 718 139 q 622 40 663 67 q 528 0 581 14 q 417 -14 476 -14 m 586 453 l 586 482 q 542 606 586 561 q 417 651 497 651 q 293 606 338 651 q 249 482 249 561 l 249 453 l 586 453 m 178 1100 l 301 1100 l 375 1019 q 395 998 388 1007 q 407 983 403 989 q 415 974 413 978 l 419 974 q 426 983 422 978 q 440 999 432 990 q 458 1021 447 1007 l 532 1100 l 656 1100 l 489 899 l 346 899 l 178 1100 z "},"Ĝ":{"ha":833,"x_min":96,"x_max":742,"o":"m 397 528 l 738 528 l 738 289 q 715 164 738 219 q 650 69 692 108 q 549 8 608 29 q 417 -14 490 -14 q 285 8 344 -14 q 183 69 225 29 q 119 165 142 108 q 96 289 96 221 l 96 711 q 119 834 96 779 q 184 928 142 889 q 285 990 226 968 q 417 1011 344 1011 q 636 943 551 1011 q 742 749 721 875 l 588 749 q 531 841 576 807 q 417 875 486 875 q 294 831 339 875 q 249 711 249 788 l 249 289 q 294 165 249 210 q 417 121 339 121 q 540 165 494 121 q 585 289 585 210 l 585 394 l 397 394 l 397 528 m 346 1322 l 489 1322 l 656 1121 l 532 1121 l 458 1200 q 426 1236 436 1228 q 419 1247 422 1243 l 415 1247 q 407 1238 413 1243 q 375 1201 399 1226 l 301 1121 l 178 1121 l 346 1322 z "},"ĝ":{"ha":833,"x_min":90,"x_max":722,"o":"m 90 483 q 108 605 90 550 q 161 698 126 660 q 244 757 196 736 q 353 778 293 778 q 494 738 438 778 q 568 625 551 697 l 578 625 l 578 764 l 722 764 l 722 50 q 640 -155 722 -81 q 413 -229 557 -229 l 215 -229 l 215 -99 l 413 -99 q 528 -59 486 -99 q 571 50 571 -19 l 571 72 l 576 218 l 568 218 q 493 106 550 146 q 351 65 436 65 q 244 86 292 65 q 162 145 196 107 q 109 238 128 183 q 90 360 90 293 l 90 483 m 244 361 q 288 241 244 285 q 407 197 332 197 q 527 242 483 197 q 571 361 571 286 l 571 482 q 527 602 571 558 q 407 646 483 646 q 288 602 332 646 q 244 482 244 558 l 244 361 m 346 1100 l 489 1100 l 656 899 l 532 899 l 458 978 q 426 1014 436 1006 q 419 1025 422 1021 l 415 1025 q 407 1015 413 1021 q 375 979 399 1004 l 301 899 l 178 899 l 346 1100 z "},"Ğ":{"ha":833,"x_min":96,"x_max":742,"o":"m 397 528 l 738 528 l 738 289 q 715 164 738 219 q 650 69 692 108 q 549 8 608 29 q 417 -14 490 -14 q 285 8 344 -14 q 183 69 225 29 q 119 165 142 108 q 96 289 96 221 l 96 711 q 119 834 96 779 q 184 928 142 889 q 285 990 226 968 q 417 1011 344 1011 q 636 943 551 1011 q 742 749 721 875 l 588 749 q 531 841 576 807 q 417 875 486 875 q 294 831 339 875 q 249 711 249 788 l 249 289 q 294 165 249 210 q 417 121 339 121 q 540 165 494 121 q 585 289 585 210 l 585 394 l 397 394 l 397 528 m 176 1315 l 299 1315 q 331 1248 299 1271 q 415 1225 363 1225 q 501 1248 468 1225 q 535 1315 535 1271 l 657 1315 q 639 1237 657 1272 q 589 1176 621 1201 q 513 1136 557 1150 q 417 1122 469 1122 q 321 1136 365 1122 q 244 1176 276 1150 q 194 1237 213 1201 q 176 1315 176 1272 z "},"ğ":{"ha":833,"x_min":90,"x_max":722,"o":"m 90 483 q 108 605 90 550 q 161 698 126 660 q 244 757 196 736 q 353 778 293 778 q 494 738 438 778 q 568 625 551 697 l 578 625 l 578 764 l 722 764 l 722 50 q 640 -155 722 -81 q 413 -229 557 -229 l 215 -229 l 215 -99 l 413 -99 q 528 -59 486 -99 q 571 50 571 -19 l 571 72 l 576 218 l 568 218 q 493 106 550 146 q 351 65 436 65 q 244 86 292 65 q 162 145 196 107 q 109 238 128 183 q 90 360 90 293 l 90 483 m 244 361 q 288 241 244 285 q 407 197 332 197 q 527 242 483 197 q 571 361 571 286 l 571 482 q 527 602 571 558 q 407 646 483 646 q 288 602 332 646 q 244 482 244 558 l 244 361 m 176 1093 l 299 1093 q 331 1026 299 1049 q 415 1003 363 1003 q 501 1026 468 1003 q 535 1093 535 1049 l 657 1093 q 639 1015 657 1050 q 589 953 621 979 q 513 914 557 928 q 417 900 469 900 q 321 914 365 900 q 244 953 276 928 q 194 1015 213 979 q 176 1093 176 1050 z "},"Ġ":{"ha":833,"x_min":96,"x_max":742,"o":"m 397 528 l 738 528 l 738 289 q 715 164 738 219 q 650 69 692 108 q 549 8 608 29 q 417 -14 490 -14 q 285 8 344 -14 q 183 69 225 29 q 119 165 142 108 q 96 289 96 221 l 96 711 q 119 834 96 779 q 184 928 142 889 q 285 990 226 968 q 417 1011 344 1011 q 636 943 551 1011 q 742 749 721 875 l 588 749 q 531 841 576 807 q 417 875 486 875 q 294 831 339 875 q 249 711 249 788 l 249 289 q 294 165 249 210 q 417 121 339 121 q 540 165 494 121 q 585 289 585 210 l 585 394 l 397 394 l 397 528 m 386 1336 l 419 1336 q 488 1312 463 1336 q 514 1247 514 1288 q 488 1183 514 1207 q 418 1160 463 1160 l 386 1160 q 317 1183 343 1160 q 292 1247 292 1207 q 317 1312 292 1288 q 386 1336 343 1336 z "},"ġ":{"ha":833,"x_min":90,"x_max":722,"o":"m 90 483 q 108 605 90 550 q 161 698 126 660 q 244 757 196 736 q 353 778 293 778 q 494 738 438 778 q 568 625 551 697 l 578 625 l 578 764 l 722 764 l 722 50 q 640 -155 722 -81 q 413 -229 557 -229 l 215 -229 l 215 -99 l 413 -99 q 528 -59 486 -99 q 571 50 571 -19 l 571 72 l 576 218 l 568 218 q 493 106 550 146 q 351 65 436 65 q 244 86 292 65 q 162 145 196 107 q 109 238 128 183 q 90 360 90 293 l 90 483 m 244 361 q 288 241 244 285 q 407 197 332 197 q 527 242 483 197 q 571 361 571 286 l 571 482 q 527 602 571 558 q 407 646 483 646 q 288 602 332 646 q 244 482 244 558 l 244 361 m 386 1114 l 419 1114 q 488 1090 463 1114 q 514 1025 514 1065 q 488 961 514 985 q 418 938 463 938 l 386 938 q 317 961 343 938 q 292 1025 292 985 q 317 1090 292 1065 q 386 1114 343 1114 z "},"Ĥ":{"ha":833,"x_min":114,"x_max":719,"o":"m 267 1000 l 267 590 l 568 590 l 568 1000 l 719 1000 l 719 0 l 568 0 l 568 450 l 267 450 l 267 0 l 114 0 l 114 1000 l 267 1000 m 346 1322 l 489 1322 l 656 1121 l 532 1121 l 458 1200 q 426 1236 436 1228 q 419 1247 422 1243 l 415 1247 q 407 1238 413 1243 q 375 1201 399 1226 l 301 1121 l 178 1121 l 346 1322 z "},"ĥ":{"ha":833,"x_min":-31,"x_max":722,"o":"m 110 1014 l 263 1014 l 263 764 q 261 722 263 744 q 258 678 260 699 q 255 645 256 658 q 254 632 254 632 l 267 632 q 335 740 282 701 q 471 778 389 778 q 574 758 528 778 q 653 703 621 739 q 704 616 686 667 q 722 503 722 565 l 722 0 l 571 0 l 571 482 q 530 603 571 560 q 418 647 489 647 q 304 601 346 647 q 263 476 263 556 l 263 0 l 110 0 l 110 1014 m 138 1322 l 281 1322 l 447 1121 l 324 1121 l 250 1200 q 218 1236 228 1228 q 211 1247 214 1243 l 207 1247 q 199 1238 204 1243 q 167 1201 190 1226 l 93 1121 l -31 1121 l 138 1322 z "},"Ĩ":{"ha":833,"x_min":122,"x_max":711,"o":"m 122 0 l 122 133 l 339 133 l 339 867 l 122 867 l 122 1000 l 711 1000 l 711 867 l 494 867 l 494 133 l 711 133 l 711 0 l 122 0 m 532 1222 q 588 1286 588 1222 l 588 1322 l 688 1322 l 688 1288 q 647 1166 688 1210 q 535 1122 607 1122 q 458 1139 489 1122 q 401 1176 426 1156 q 353 1213 376 1196 q 301 1229 331 1229 q 260 1212 275 1229 q 246 1163 246 1194 l 246 1129 l 146 1129 l 146 1164 q 186 1285 146 1242 q 299 1329 226 1329 q 376 1313 344 1329 q 432 1276 407 1296 q 480 1239 457 1256 q 532 1222 503 1222 z "},"ĩ":{"ha":833,"x_min":114,"x_max":767,"o":"m 114 139 l 399 139 l 399 626 l 149 626 l 149 764 l 546 764 l 546 139 l 767 139 l 767 0 l 114 0 l 114 139 m 532 1000 q 588 1064 588 1000 l 588 1100 l 688 1100 l 688 1065 q 647 944 688 988 q 535 900 607 900 q 458 917 489 900 q 401 953 426 933 q 353 990 376 974 q 301 1007 331 1007 q 260 990 275 1007 q 246 940 246 972 l 246 907 l 146 907 l 146 942 q 186 1063 146 1019 q 299 1107 226 1107 q 376 1090 344 1107 q 432 1053 407 1074 q 480 1017 457 1033 q 532 1000 503 1000 z "},"Ī":{"ha":833,"x_min":122,"x_max":711,"o":"m 122 0 l 122 133 l 339 133 l 339 867 l 122 867 l 122 1000 l 711 1000 l 711 867 l 494 867 l 494 133 l 711 133 l 711 0 l 122 0 m 226 1299 l 607 1299 l 607 1169 l 226 1169 l 226 1299 z "},"ī":{"ha":833,"x_min":114,"x_max":767,"o":"m 114 139 l 399 139 l 399 626 l 149 626 l 149 764 l 546 764 l 546 139 l 767 139 l 767 0 l 114 0 l 114 139 m 226 1076 l 607 1076 l 607 947 l 226 947 l 226 1076 z "},"Į":{"ha":833,"x_min":122,"x_max":711,"o":"m 122 0 l 122 133 l 339 133 l 339 867 l 122 867 l 122 1000 l 711 1000 l 711 867 l 494 867 l 494 133 l 711 133 l 711 0 l 122 0 m 489 14 l 469 -1 q 407 -67 426 -37 q 388 -125 388 -97 q 407 -171 388 -154 q 460 -187 426 -187 l 547 -187 l 547 -282 l 431 -282 q 304 -247 351 -282 q 257 -153 257 -211 q 281 -72 257 -112 q 368 14 306 -32 l 489 14 z "},"į":{"ha":833,"x_min":122,"x_max":771,"o":"m 122 0 l 122 139 l 399 139 l 399 626 l 157 626 l 157 764 l 546 764 l 546 139 l 771 139 l 771 0 l 122 0 m 438 1063 l 469 1063 q 539 1038 513 1063 q 565 974 565 1014 q 539 910 565 933 q 469 886 513 886 l 438 886 q 369 910 394 886 q 343 974 343 933 q 369 1038 343 1014 q 438 1063 394 1063 m 540 14 l 521 -1 q 458 -67 478 -37 q 439 -125 439 -97 q 458 -171 439 -154 q 511 -187 478 -187 l 599 -187 l 599 -282 l 482 -282 q 356 -247 403 -282 q 308 -153 308 -211 q 333 -72 308 -112 q 419 14 357 -32 l 540 14 z "},"İ":{"ha":833,"x_min":122,"x_max":711,"o":"m 122 0 l 122 133 l 339 133 l 339 867 l 122 867 l 122 1000 l 711 1000 l 711 867 l 494 867 l 494 133 l 711 133 l 711 0 l 122 0 m 386 1336 l 419 1336 q 488 1312 463 1336 q 514 1247 514 1288 q 488 1183 514 1207 q 418 1160 463 1160 l 386 1160 q 317 1183 343 1160 q 292 1247 292 1207 q 317 1312 292 1288 q 386 1336 343 1336 z "},"Ń":{"ha":833,"x_min":106,"x_max":728,"o":"m 296 1000 l 546 332 q 563 278 556 308 q 578 219 571 247 q 592 153 585 186 l 606 153 q 603 171 606 153 q 598 218 601 189 q 592 283 594 247 q 589 356 589 319 l 589 1000 l 728 1000 l 728 0 l 539 0 l 292 669 q 272 728 281 697 q 257 788 264 760 q 244 849 250 818 l 231 849 q 238 788 235 819 q 242 724 240 760 q 244 647 244 688 l 244 0 l 106 0 l 106 1000 l 296 1000 m 456 1121 l 313 1121 l 461 1324 l 632 1324 l 456 1121 z "},"ń":{"ha":833,"x_min":110,"x_max":722,"o":"m 110 0 l 110 764 l 254 764 l 254 632 l 267 632 q 335 740 282 701 q 471 778 389 778 q 574 758 528 778 q 653 703 621 739 q 704 616 686 667 q 722 503 722 565 l 722 0 l 571 0 l 571 482 q 530 603 571 560 q 418 647 489 647 q 304 601 346 647 q 263 476 263 556 l 263 0 l 110 0 m 456 899 l 313 899 l 461 1101 l 632 1101 l 456 899 z "},"Ň":{"ha":833,"x_min":106,"x_max":728,"o":"m 296 1000 l 546 332 q 563 278 556 308 q 578 219 571 247 q 592 153 585 186 l 606 153 q 603 171 606 153 q 598 218 601 189 q 592 283 594 247 q 589 356 589 319 l 589 1000 l 728 1000 l 728 0 l 539 0 l 292 669 q 272 728 281 697 q 257 788 264 760 q 244 849 250 818 l 231 849 q 238 788 235 819 q 242 724 240 760 q 244 647 244 688 l 244 0 l 106 0 l 106 1000 l 296 1000 m 178 1322 l 301 1322 l 375 1242 q 395 1220 388 1229 q 407 1206 403 1211 q 415 1196 413 1200 l 419 1196 q 426 1206 422 1200 q 440 1221 432 1213 q 458 1243 447 1229 l 532 1322 l 656 1322 l 489 1121 l 346 1121 l 178 1322 z "},"ň":{"ha":833,"x_min":110,"x_max":722,"o":"m 110 0 l 110 764 l 254 764 l 254 632 l 267 632 q 335 740 282 701 q 471 778 389 778 q 574 758 528 778 q 653 703 621 739 q 704 616 686 667 q 722 503 722 565 l 722 0 l 571 0 l 571 482 q 530 603 571 560 q 418 647 489 647 q 304 601 346 647 q 263 476 263 556 l 263 0 l 110 0 m 178 1100 l 301 1100 l 375 1019 q 395 998 388 1007 q 407 983 403 989 q 415 974 413 978 l 419 974 q 426 983 422 978 q 440 999 432 990 q 458 1021 447 1007 l 532 1100 l 656 1100 l 489 899 l 346 899 l 178 1100 z "},"Ō":{"ha":833,"x_min":96,"x_max":738,"o":"m 249 289 q 294 167 249 213 q 417 121 340 121 q 539 167 493 121 q 585 289 585 213 l 585 711 q 539 835 585 789 q 417 881 493 881 q 294 835 340 881 q 249 711 249 789 l 249 289 m 96 711 q 119 836 96 781 q 183 931 142 892 q 284 992 225 971 q 417 1014 343 1014 q 549 992 490 1014 q 650 931 608 971 q 715 836 692 892 q 738 711 738 781 l 738 289 q 715 165 738 221 q 649 69 692 108 q 548 8 607 29 q 417 -14 489 -14 q 284 8 343 -14 q 183 69 225 29 q 119 165 142 108 q 96 289 96 221 l 96 711 m 226 1299 l 607 1299 l 607 1169 l 226 1169 l 226 1299 z "},"ō":{"ha":833,"x_min":96,"x_max":738,"o":"m 249 288 q 293 165 249 210 q 417 121 338 121 q 540 165 494 121 q 585 288 585 210 l 585 478 q 540 600 585 556 q 417 644 494 644 q 294 599 340 644 q 249 478 249 554 l 249 288 m 96 478 q 119 601 96 546 q 183 696 142 657 q 285 756 225 735 q 417 778 344 778 q 549 756 490 778 q 650 696 608 735 q 715 601 692 657 q 738 478 738 546 l 738 288 q 715 163 738 219 q 650 68 692 107 q 549 8 608 29 q 417 -14 490 -14 q 285 8 344 -14 q 183 69 225 29 q 119 164 142 108 q 96 288 96 219 l 96 478 m 226 1076 l 607 1076 l 607 947 l 226 947 l 226 1076 z "},"Ŏ":{"ha":833,"x_min":96,"x_max":738,"o":"m 249 289 q 294 167 249 213 q 417 121 340 121 q 539 167 493 121 q 585 289 585 213 l 585 711 q 539 835 585 789 q 417 881 493 881 q 294 835 340 881 q 249 711 249 789 l 249 289 m 96 711 q 119 836 96 781 q 183 931 142 892 q 284 992 225 971 q 417 1014 343 1014 q 549 992 490 1014 q 650 931 608 971 q 715 836 692 892 q 738 711 738 781 l 738 289 q 715 165 738 221 q 649 69 692 108 q 548 8 607 29 q 417 -14 489 -14 q 284 8 343 -14 q 183 69 225 29 q 119 165 142 108 q 96 289 96 221 l 96 711 m 176 1315 l 299 1315 q 331 1248 299 1271 q 415 1225 363 1225 q 501 1248 468 1225 q 535 1315 535 1271 l 657 1315 q 639 1237 657 1272 q 589 1176 621 1201 q 513 1136 557 1150 q 417 1122 469 1122 q 321 1136 365 1122 q 244 1176 276 1150 q 194 1237 213 1201 q 176 1315 176 1272 z "},"ŏ":{"ha":833,"x_min":96,"x_max":738,"o":"m 249 288 q 293 165 249 210 q 417 121 338 121 q 540 165 494 121 q 585 288 585 210 l 585 478 q 540 600 585 556 q 417 644 494 644 q 294 599 340 644 q 249 478 249 554 l 249 288 m 96 478 q 119 601 96 546 q 183 696 142 657 q 285 756 225 735 q 417 778 344 778 q 549 756 490 778 q 650 696 608 735 q 715 601 692 657 q 738 478 738 546 l 738 288 q 715 163 738 219 q 650 68 692 107 q 549 8 608 29 q 417 -14 490 -14 q 285 8 344 -14 q 183 69 225 29 q 119 164 142 108 q 96 288 96 219 l 96 478 m 176 1093 l 299 1093 q 331 1026 299 1049 q 415 1003 363 1003 q 501 1026 468 1003 q 535 1093 535 1049 l 657 1093 q 639 1015 657 1050 q 589 953 621 979 q 513 914 557 928 q 417 900 469 900 q 321 914 365 900 q 244 953 276 928 q 194 1015 213 979 q 176 1093 176 1050 z "},"Ő":{"ha":833,"x_min":96,"x_max":764,"o":"m 249 289 q 294 167 249 213 q 417 121 340 121 q 539 167 493 121 q 585 289 585 213 l 585 711 q 539 835 585 789 q 417 881 493 881 q 294 835 340 881 q 249 711 249 789 l 249 289 m 96 711 q 119 836 96 781 q 183 931 142 892 q 284 992 225 971 q 417 1014 343 1014 q 549 992 490 1014 q 650 931 608 971 q 715 836 692 892 q 738 711 738 781 l 738 289 q 715 165 738 221 q 649 69 692 108 q 548 8 607 29 q 417 -14 489 -14 q 284 8 343 -14 q 183 69 225 29 q 119 165 142 108 q 96 289 96 221 l 96 711 m 472 1324 l 301 1324 l 153 1121 l 296 1121 l 472 1324 m 764 1324 l 593 1324 l 444 1121 l 588 1121 l 764 1324 z "},"ő":{"ha":833,"x_min":96,"x_max":764,"o":"m 249 288 q 293 165 249 210 q 417 121 338 121 q 540 165 494 121 q 585 288 585 210 l 585 478 q 540 600 585 556 q 417 644 494 644 q 294 599 340 644 q 249 478 249 554 l 249 288 m 96 478 q 119 601 96 546 q 183 696 142 657 q 285 756 225 735 q 417 778 344 778 q 549 756 490 778 q 650 696 608 735 q 715 601 692 657 q 738 478 738 546 l 738 288 q 715 163 738 219 q 650 68 692 107 q 549 8 608 29 q 417 -14 490 -14 q 285 8 344 -14 q 183 69 225 29 q 119 164 142 108 q 96 288 96 219 l 96 478 m 472 1101 l 301 1101 l 153 899 l 296 899 l 472 1101 m 764 1101 l 593 1101 l 444 899 l 588 899 l 764 1101 z "},"Ŕ":{"ha":833,"x_min":114,"x_max":771,"o":"m 114 1000 l 438 1000 q 569 978 510 1000 q 669 919 628 957 q 734 826 711 881 q 757 704 757 771 q 706 531 757 603 q 565 428 654 458 l 771 0 l 599 0 l 413 407 l 265 407 l 265 0 l 114 0 l 114 1000 m 265 535 l 438 535 q 557 580 513 535 q 601 700 601 625 q 557 822 601 776 q 438 868 513 868 l 265 868 l 265 535 m 456 1121 l 313 1121 l 461 1324 l 632 1324 l 456 1121 z "},"ŕ":{"ha":833,"x_min":142,"x_max":772,"o":"m 142 764 l 286 764 l 286 632 l 299 632 q 370 740 314 701 q 511 778 426 778 q 703 702 633 778 q 772 492 772 626 l 772 442 l 615 442 l 615 476 q 572 602 615 557 q 454 647 529 647 q 338 601 381 647 q 294 476 294 556 l 294 0 l 142 0 l 142 764 m 456 899 l 313 899 l 461 1101 l 632 1101 l 456 899 z "},"Ř":{"ha":833,"x_min":114,"x_max":771,"o":"m 114 1000 l 438 1000 q 569 978 510 1000 q 669 919 628 957 q 734 826 711 881 q 757 704 757 771 q 706 531 757 603 q 565 428 654 458 l 771 0 l 599 0 l 413 407 l 265 407 l 265 0 l 114 0 l 114 1000 m 265 535 l 438 535 q 557 580 513 535 q 601 700 601 625 q 557 822 601 776 q 438 868 513 868 l 265 868 l 265 535 m 178 1322 l 301 1322 l 375 1242 q 395 1220 388 1229 q 407 1206 403 1211 q 415 1196 413 1200 l 419 1196 q 426 1206 422 1200 q 440 1221 432 1213 q 458 1243 447 1229 l 532 1322 l 656 1322 l 489 1121 l 346 1121 l 178 1322 z "},"ř":{"ha":833,"x_min":142,"x_max":772,"o":"m 142 764 l 286 764 l 286 632 l 299 632 q 370 740 314 701 q 511 778 426 778 q 703 702 633 778 q 772 492 772 626 l 772 442 l 615 442 l 615 476 q 572 602 615 557 q 454 647 529 647 q 338 601 381 647 q 294 476 294 556 l 294 0 l 142 0 l 142 764 m 178 1100 l 301 1100 l 375 1019 q 395 998 388 1007 q 407 983 403 989 q 415 974 413 978 l 419 974 q 426 983 422 978 q 440 999 432 990 q 458 1021 447 1007 l 532 1100 l 656 1100 l 489 899 l 346 899 l 178 1100 z "},"Ś":{"ha":833,"x_min":86,"x_max":747,"o":"m 417 -14 q 285 6 344 -14 q 181 60 225 25 q 113 147 138 96 q 86 261 88 199 l 243 261 q 295 158 246 196 q 419 121 344 121 q 548 158 501 121 q 594 258 594 194 q 560 356 594 314 q 461 418 525 397 l 356 453 q 110 742 110 531 q 192 941 110 868 q 421 1014 275 1014 q 545 995 489 1014 q 642 942 601 976 q 708 857 683 907 q 733 744 732 807 l 576 744 q 530 844 575 807 q 418 881 485 881 q 304 846 346 881 q 263 753 263 811 q 294 662 263 699 q 393 603 325 625 l 504 568 q 685 453 624 532 q 747 265 747 375 q 724 150 747 201 q 658 63 701 99 q 554 6 615 26 q 417 -14 493 -14 m 456 1121 l 313 1121 l 461 1324 l 632 1324 l 456 1121 z "},"ś":{"ha":833,"x_min":92,"x_max":736,"o":"m 390 -14 q 183 41 263 -14 q 92 192 103 96 l 250 192 q 297 132 258 154 q 390 110 335 110 l 440 110 q 547 138 508 110 q 585 214 585 165 q 463 314 585 297 l 351 329 q 169 400 228 344 q 110 556 110 456 q 184 719 110 661 q 396 778 258 778 l 444 778 q 641 724 565 778 q 731 579 717 671 l 574 579 q 531 634 565 614 q 444 654 496 654 l 396 654 q 296 630 331 654 q 261 557 261 606 q 287 494 261 517 q 369 465 313 472 l 483 450 q 675 376 614 432 q 736 218 736 321 q 660 47 736 107 q 440 -14 583 -14 l 390 -14 m 456 899 l 313 899 l 461 1101 l 632 1101 l 456 899 z "},"Ŝ":{"ha":833,"x_min":86,"x_max":747,"o":"m 417 -14 q 285 6 344 -14 q 181 60 225 25 q 113 147 138 96 q 86 261 88 199 l 243 261 q 295 158 246 196 q 419 121 344 121 q 548 158 501 121 q 594 258 594 194 q 560 356 594 314 q 461 418 525 397 l 356 453 q 110 742 110 531 q 192 941 110 868 q 421 1014 275 1014 q 545 995 489 1014 q 642 942 601 976 q 708 857 683 907 q 733 744 732 807 l 576 744 q 530 844 575 807 q 418 881 485 881 q 304 846 346 881 q 263 753 263 811 q 294 662 263 699 q 393 603 325 625 l 504 568 q 685 453 624 532 q 747 265 747 375 q 724 150 747 201 q 658 63 701 99 q 554 6 615 26 q 417 -14 493 -14 m 346 1322 l 489 1322 l 656 1121 l 532 1121 l 458 1200 q 426 1236 436 1228 q 419 1247 422 1243 l 415 1247 q 407 1238 413 1243 q 375 1201 399 1226 l 301 1121 l 178 1121 l 346 1322 z "},"ŝ":{"ha":833,"x_min":92,"x_max":736,"o":"m 390 -14 q 183 41 263 -14 q 92 192 103 96 l 250 192 q 297 132 258 154 q 390 110 335 110 l 440 110 q 547 138 508 110 q 585 214 585 165 q 463 314 585 297 l 351 329 q 169 400 228 344 q 110 556 110 456 q 184 719 110 661 q 396 778 258 778 l 444 778 q 641 724 565 778 q 731 579 717 671 l 574 579 q 531 634 565 614 q 444 654 496 654 l 396 654 q 296 630 331 654 q 261 557 261 606 q 287 494 261 517 q 369 465 313 472 l 483 450 q 675 376 614 432 q 736 218 736 321 q 660 47 736 107 q 440 -14 583 -14 l 390 -14 m 346 1100 l 489 1100 l 656 899 l 532 899 l 458 978 q 426 1014 436 1006 q 419 1025 422 1021 l 415 1025 q 407 1015 413 1021 q 375 979 399 1004 l 301 899 l 178 899 l 346 1100 z "},"Ş":{"ha":833,"x_min":86,"x_max":747,"o":"m 417 -14 q 285 6 344 -14 q 181 60 225 25 q 113 147 138 96 q 86 261 88 199 l 243 261 q 295 158 246 196 q 419 121 344 121 q 548 158 501 121 q 594 258 594 194 q 560 356 594 314 q 461 418 525 397 l 356 453 q 110 742 110 531 q 192 941 110 868 q 421 1014 275 1014 q 545 995 489 1014 q 642 942 601 976 q 708 857 683 907 q 733 744 732 807 l 576 744 q 530 844 575 807 q 418 881 485 881 q 304 846 346 881 q 263 753 263 811 q 294 662 263 699 q 393 603 325 625 l 504 568 q 685 453 624 532 q 747 265 747 375 q 724 150 747 201 q 658 63 701 99 q 554 6 615 26 q 417 -14 493 -14 m 350 32 l 438 32 l 407 -49 q 496 -67 457 -53 q 556 -102 528 -79 q 583 -164 583 -125 q 535 -243 583 -212 q 407 -274 486 -274 l 278 -274 l 278 -190 l 379 -190 q 431 -179 411 -190 q 450 -150 450 -168 q 411 -108 450 -122 q 300 -94 372 -94 l 350 32 z "},"ş":{"ha":833,"x_min":92,"x_max":736,"o":"m 390 -14 q 183 41 263 -14 q 92 192 103 96 l 250 192 q 297 132 258 154 q 390 110 335 110 l 440 110 q 547 138 508 110 q 585 214 585 165 q 463 314 585 297 l 351 329 q 169 400 228 344 q 110 556 110 456 q 184 719 110 661 q 396 778 258 778 l 444 778 q 641 724 565 778 q 731 579 717 671 l 574 579 q 531 634 565 614 q 444 654 496 654 l 396 654 q 296 630 331 654 q 261 557 261 606 q 287 494 261 517 q 369 465 313 472 l 483 450 q 675 376 614 432 q 736 218 736 321 q 660 47 736 107 q 440 -14 583 -14 l 390 -14 m 350 32 l 438 32 l 407 -49 q 496 -67 457 -53 q 556 -102 528 -79 q 583 -164 583 -125 q 535 -243 583 -212 q 407 -274 486 -274 l 278 -274 l 278 -190 l 379 -190 q 431 -179 411 -190 q 450 -150 450 -168 q 411 -108 450 -122 q 300 -94 372 -94 l 350 32 z "},"Ť":{"ha":833,"x_min":58,"x_max":775,"o":"m 58 1000 l 775 1000 l 775 863 l 494 863 l 494 0 l 339 0 l 339 863 l 58 863 l 58 1000 m 178 1322 l 301 1322 l 375 1242 q 395 1220 388 1229 q 407 1206 403 1211 q 415 1196 413 1200 l 419 1196 q 426 1206 422 1200 q 440 1221 432 1213 q 458 1243 447 1229 l 532 1322 l 656 1322 l 489 1121 l 346 1121 l 178 1322 z "},"Ũ":{"ha":833,"x_min":107,"x_max":726,"o":"m 417 -14 q 188 66 269 -14 q 107 285 107 146 l 107 1000 l 260 1000 l 260 285 q 300 164 260 207 q 417 121 340 121 q 533 164 492 121 q 575 285 575 207 l 575 1000 l 726 1000 l 726 285 q 645 65 726 144 q 417 -14 564 -14 m 532 1222 q 588 1286 588 1222 l 588 1322 l 688 1322 l 688 1288 q 647 1166 688 1210 q 535 1122 607 1122 q 458 1139 489 1122 q 401 1176 426 1156 q 353 1213 376 1196 q 301 1229 331 1229 q 260 1212 275 1229 q 246 1163 246 1194 l 246 1129 l 146 1129 l 146 1164 q 186 1285 146 1242 q 299 1329 226 1329 q 376 1313 344 1329 q 432 1276 407 1296 q 480 1239 457 1256 q 532 1222 503 1222 z "},"ũ":{"ha":833,"x_min":114,"x_max":719,"o":"m 114 764 l 267 764 l 267 279 q 415 119 267 119 q 568 279 568 119 l 568 764 l 719 764 l 719 279 q 640 63 719 139 q 415 -14 561 -14 q 193 63 272 -14 q 114 279 114 140 l 114 764 m 532 1000 q 588 1064 588 1000 l 588 1100 l 688 1100 l 688 1065 q 647 944 688 988 q 535 900 607 900 q 458 917 489 900 q 401 953 426 933 q 353 990 376 974 q 301 1007 331 1007 q 260 990 275 1007 q 246 940 246 972 l 246 907 l 146 907 l 146 942 q 186 1063 146 1019 q 299 1107 226 1107 q 376 1090 344 1107 q 432 1053 407 1074 q 480 1017 457 1033 q 532 1000 503 1000 z "},"Ū":{"ha":833,"x_min":107,"x_max":726,"o":"m 417 -14 q 188 66 269 -14 q 107 285 107 146 l 107 1000 l 260 1000 l 260 285 q 300 164 260 207 q 417 121 340 121 q 533 164 492 121 q 575 285 575 207 l 575 1000 l 726 1000 l 726 285 q 645 65 726 144 q 417 -14 564 -14 m 226 1299 l 607 1299 l 607 1169 l 226 1169 l 226 1299 z "},"ū":{"ha":833,"x_min":114,"x_max":719,"o":"m 114 764 l 267 764 l 267 279 q 415 119 267 119 q 568 279 568 119 l 568 764 l 719 764 l 719 279 q 640 63 719 139 q 415 -14 561 -14 q 193 63 272 -14 q 114 279 114 140 l 114 764 m 226 1076 l 607 1076 l 607 947 l 226 947 l 226 1076 z "},"Ŭ":{"ha":833,"x_min":107,"x_max":726,"o":"m 417 -14 q 188 66 269 -14 q 107 285 107 146 l 107 1000 l 260 1000 l 260 285 q 300 164 260 207 q 417 121 340 121 q 533 164 492 121 q 575 285 575 207 l 575 1000 l 726 1000 l 726 285 q 645 65 726 144 q 417 -14 564 -14 m 176 1315 l 299 1315 q 331 1248 299 1271 q 415 1225 363 1225 q 501 1248 468 1225 q 535 1315 535 1271 l 657 1315 q 639 1237 657 1272 q 589 1176 621 1201 q 513 1136 557 1150 q 417 1122 469 1122 q 321 1136 365 1122 q 244 1176 276 1150 q 194 1237 213 1201 q 176 1315 176 1272 z "},"ŭ":{"ha":833,"x_min":114,"x_max":719,"o":"m 114 764 l 267 764 l 267 279 q 415 119 267 119 q 568 279 568 119 l 568 764 l 719 764 l 719 279 q 640 63 719 139 q 415 -14 561 -14 q 193 63 272 -14 q 114 279 114 140 l 114 764 m 176 1093 l 299 1093 q 331 1026 299 1049 q 415 1003 363 1003 q 501 1026 468 1003 q 535 1093 535 1049 l 657 1093 q 639 1015 657 1050 q 589 953 621 979 q 513 914 557 928 q 417 900 469 900 q 321 914 365 900 q 244 953 276 928 q 194 1015 213 979 q 176 1093 176 1050 z "},"Ů":{"ha":833,"x_min":107,"x_max":726,"o":"m 417 -14 q 188 66 269 -14 q 107 285 107 146 l 107 1000 l 260 1000 l 260 285 q 300 164 260 207 q 417 121 340 121 q 533 164 492 121 q 575 285 575 207 l 575 1000 l 726 1000 l 726 285 q 645 65 726 144 q 417 -14 564 -14 m 250 1213 q 296 1319 250 1279 q 417 1358 342 1358 q 538 1319 492 1358 q 583 1213 583 1279 q 538 1106 583 1146 q 417 1067 492 1067 q 296 1106 342 1067 q 250 1213 250 1146 m 338 1213 q 415 1139 338 1139 q 475 1158 454 1139 q 496 1213 496 1178 q 475 1268 496 1249 q 415 1288 454 1288 q 358 1268 379 1288 q 338 1213 338 1249 z "},"ů":{"ha":833,"x_min":114,"x_max":719,"o":"m 114 764 l 267 764 l 267 279 q 415 119 267 119 q 568 279 568 119 l 568 764 l 719 764 l 719 279 q 640 63 719 139 q 415 -14 561 -14 q 193 63 272 -14 q 114 279 114 140 l 114 764 m 250 990 q 296 1097 250 1057 q 417 1136 342 1136 q 538 1097 492 1136 q 583 990 583 1057 q 538 884 583 924 q 417 844 492 844 q 296 884 342 844 q 250 990 250 924 m 338 990 q 415 917 338 917 q 475 936 454 917 q 496 990 496 956 q 475 1046 496 1026 q 415 1065 454 1065 q 358 1046 379 1065 q 338 990 338 1026 z "},"Ŵ":{"ha":833,"x_min":28,"x_max":806,"o":"m 151 1000 l 211 292 q 215 235 214 268 q 217 169 215 201 q 218 97 218 135 l 233 97 q 238 169 235 135 q 243 235 240 201 q 249 292 246 268 l 340 1000 l 496 1000 l 582 292 q 588 235 585 268 q 593 171 590 201 q 599 97 596 135 l 614 97 q 617 169 615 135 q 619 235 618 201 q 622 292 619 268 l 682 1000 l 806 1000 l 703 0 l 517 0 l 435 710 q 430 779 432 746 q 426 840 428 813 q 426 900 426 871 l 410 900 q 410 840 410 871 q 407 779 408 813 q 400 710 406 746 l 311 0 l 128 0 l 28 1000 l 151 1000 m 346 1322 l 489 1322 l 656 1121 l 532 1121 l 458 1200 q 426 1236 436 1228 q 419 1247 422 1243 l 415 1247 q 407 1238 413 1243 q 375 1201 399 1226 l 301 1121 l 178 1121 l 346 1322 z "},"ŵ":{"ha":833,"x_min":32,"x_max":801,"o":"m 147 764 l 210 268 q 215 216 213 247 q 221 157 218 185 q 226 86 224 122 l 240 86 q 249 157 244 122 q 258 217 253 186 q 265 268 263 249 l 342 764 l 492 764 l 568 268 q 575 216 571 247 q 582 156 579 185 q 590 86 586 122 l 606 86 q 613 157 610 122 q 619 216 615 185 q 625 268 622 247 l 688 764 l 801 764 l 694 0 l 511 0 l 433 514 q 428 563 431 535 q 425 614 426 590 q 424 672 424 643 l 411 672 q 408 614 410 643 q 405 563 407 590 q 399 514 403 535 l 318 0 l 138 0 l 32 764 l 147 764 m 346 1100 l 489 1100 l 656 899 l 532 899 l 458 978 q 426 1014 436 1006 q 419 1025 422 1021 l 415 1025 q 407 1015 413 1021 q 375 979 399 1004 l 301 899 l 178 899 l 346 1100 z "},"Ŷ":{"ha":833,"x_min":35,"x_max":799,"o":"m 35 1000 l 196 1000 l 382 589 q 398 547 392 568 q 408 511 404 526 q 417 474 414 492 l 424 474 q 432 511 426 492 q 442 547 436 526 q 457 589 449 568 l 638 1000 l 799 1000 l 493 347 l 493 0 l 340 0 l 340 347 l 35 1000 m 346 1322 l 489 1322 l 656 1121 l 532 1121 l 458 1200 q 426 1236 436 1228 q 419 1247 422 1243 l 415 1247 q 407 1238 413 1243 q 375 1201 399 1226 l 301 1121 l 178 1121 l 346 1322 z "},"ŷ":{"ha":833,"x_min":58,"x_max":775,"o":"m 225 764 l 386 343 q 404 288 397 315 q 414 238 411 261 q 421 188 419 211 l 432 188 q 438 238 433 211 q 448 288 442 260 q 464 343 454 315 l 614 764 l 775 764 l 410 -229 l 247 -229 l 353 49 l 58 764 l 225 764 m 346 1100 l 489 1100 l 656 899 l 532 899 l 458 978 q 426 1014 436 1006 q 419 1025 422 1021 l 415 1025 q 407 1015 413 1021 q 375 979 399 1004 l 301 899 l 178 899 l 346 1100 z "},"Ź":{"ha":833,"x_min":114,"x_max":719,"o":"m 704 1000 l 704 860 l 274 135 l 274 132 l 371 138 l 719 138 l 719 0 l 114 0 l 114 139 l 544 865 l 544 868 l 444 863 l 125 863 l 125 1000 l 704 1000 m 456 1121 l 313 1121 l 461 1324 l 632 1324 l 456 1121 z "},"ź":{"ha":833,"x_min":104,"x_max":729,"o":"m 115 764 l 714 764 l 714 610 l 272 128 q 306 131 289 129 q 339 133 321 132 q 375 133 357 133 l 729 133 l 729 0 l 104 0 l 104 153 l 547 635 q 511 633 529 633 q 477 631 496 632 q 440 631 458 631 l 115 631 l 115 764 m 456 899 l 313 899 l 461 1101 l 632 1101 l 456 899 z "},"Ż":{"ha":833,"x_min":114,"x_max":719,"o":"m 704 1000 l 704 860 l 274 135 l 274 132 l 371 138 l 719 138 l 719 0 l 114 0 l 114 139 l 544 865 l 544 868 l 444 863 l 125 863 l 125 1000 l 704 1000 m 400 1336 l 433 1336 q 502 1312 476 1336 q 528 1247 528 1288 q 502 1183 528 1207 q 432 1160 476 1160 l 400 1160 q 331 1183 357 1160 q 306 1247 306 1207 q 331 1312 306 1288 q 400 1336 357 1336 z "},"ż":{"ha":833,"x_min":104,"x_max":729,"o":"m 115 764 l 714 764 l 714 610 l 272 128 q 306 131 289 129 q 339 133 321 132 q 375 133 357 133 l 729 133 l 729 0 l 104 0 l 104 153 l 547 635 q 511 633 529 633 q 477 631 496 632 q 440 631 458 631 l 115 631 l 115 764 m 400 1114 l 433 1114 q 502 1090 476 1114 q 528 1025 528 1065 q 502 961 528 985 q 432 938 476 938 l 400 938 q 331 961 357 938 q 306 1025 306 985 q 331 1090 306 1065 q 400 1114 357 1114 z "},"Ẁ":{"ha":833,"x_min":28,"x_max":806,"o":"m 151 1000 l 211 292 q 215 235 214 268 q 217 169 215 201 q 218 97 218 135 l 233 97 q 238 169 235 135 q 243 235 240 201 q 249 292 246 268 l 340 1000 l 496 1000 l 582 292 q 588 235 585 268 q 593 171 590 201 q 599 97 596 135 l 614 97 q 617 169 615 135 q 619 235 618 201 q 622 292 619 268 l 682 1000 l 806 1000 l 703 0 l 517 0 l 435 710 q 430 779 432 746 q 426 840 428 813 q 426 900 426 871 l 410 900 q 410 840 410 871 q 407 779 408 813 q 400 710 406 746 l 311 0 l 128 0 l 28 1000 l 151 1000 m 229 1324 l 400 1324 l 549 1121 l 406 1121 l 229 1324 z "},"ẁ":{"ha":833,"x_min":32,"x_max":801,"o":"m 147 764 l 210 268 q 215 216 213 247 q 221 157 218 185 q 226 86 224 122 l 240 86 q 249 157 244 122 q 258 217 253 186 q 265 268 263 249 l 342 764 l 492 764 l 568 268 q 575 216 571 247 q 582 156 579 185 q 590 86 586 122 l 606 86 q 613 157 610 122 q 619 216 615 185 q 625 268 622 247 l 688 764 l 801 764 l 694 0 l 511 0 l 433 514 q 428 563 431 535 q 425 614 426 590 q 424 672 424 643 l 411 672 q 408 614 410 643 q 405 563 407 590 q 399 514 403 535 l 318 0 l 138 0 l 32 764 l 147 764 m 229 1101 l 400 1101 l 549 899 l 406 899 l 229 1101 z "},"Ẃ":{"ha":833,"x_min":28,"x_max":806,"o":"m 151 1000 l 211 292 q 215 235 214 268 q 217 169 215 201 q 218 97 218 135 l 233 97 q 238 169 235 135 q 243 235 240 201 q 249 292 246 268 l 340 1000 l 496 1000 l 582 292 q 588 235 585 268 q 593 171 590 201 q 599 97 596 135 l 614 97 q 617 169 615 135 q 619 235 618 201 q 622 292 619 268 l 682 1000 l 806 1000 l 703 0 l 517 0 l 435 710 q 430 779 432 746 q 426 840 428 813 q 426 900 426 871 l 410 900 q 410 840 410 871 q 407 779 408 813 q 400 710 406 746 l 311 0 l 128 0 l 28 1000 l 151 1000 m 456 1121 l 313 1121 l 461 1324 l 632 1324 l 456 1121 z "},"ẃ":{"ha":833,"x_min":32,"x_max":801,"o":"m 147 764 l 210 268 q 215 216 213 247 q 221 157 218 185 q 226 86 224 122 l 240 86 q 249 157 244 122 q 258 217 253 186 q 265 268 263 249 l 342 764 l 492 764 l 568 268 q 575 216 571 247 q 582 156 579 185 q 590 86 586 122 l 606 86 q 613 157 610 122 q 619 216 615 185 q 625 268 622 247 l 688 764 l 801 764 l 694 0 l 511 0 l 433 514 q 428 563 431 535 q 425 614 426 590 q 424 672 424 643 l 411 672 q 408 614 410 643 q 405 563 407 590 q 399 514 403 535 l 318 0 l 138 0 l 32 764 l 147 764 m 456 899 l 313 899 l 461 1101 l 632 1101 l 456 899 z "},"Ẅ":{"ha":833,"x_min":28,"x_max":806,"o":"m 151 1000 l 211 292 q 215 235 214 268 q 217 169 215 201 q 218 97 218 135 l 233 97 q 238 169 235 135 q 243 235 240 201 q 249 292 246 268 l 340 1000 l 496 1000 l 582 292 q 588 235 585 268 q 593 171 590 201 q 599 97 596 135 l 614 97 q 617 169 615 135 q 619 235 618 201 q 622 292 619 268 l 682 1000 l 806 1000 l 703 0 l 517 0 l 435 710 q 430 779 432 746 q 426 840 428 813 q 426 900 426 871 l 410 900 q 410 840 410 871 q 407 779 408 813 q 400 710 406 746 l 311 0 l 128 0 l 28 1000 l 151 1000 m 185 1228 q 210 1290 185 1267 q 275 1314 235 1314 q 340 1290 315 1314 q 365 1228 365 1267 q 340 1165 365 1189 q 275 1142 315 1142 q 210 1165 235 1142 q 185 1228 185 1189 m 468 1228 q 493 1290 468 1267 q 558 1314 518 1314 q 624 1290 599 1314 q 649 1228 649 1267 q 624 1165 649 1189 q 558 1142 599 1142 q 493 1165 518 1142 q 468 1228 468 1189 z "},"ẅ":{"ha":833,"x_min":32,"x_max":801,"o":"m 147 764 l 210 268 q 215 216 213 247 q 221 157 218 185 q 226 86 224 122 l 240 86 q 249 157 244 122 q 258 217 253 186 q 265 268 263 249 l 342 764 l 492 764 l 568 268 q 575 216 571 247 q 582 156 579 185 q 590 86 586 122 l 606 86 q 613 157 610 122 q 619 216 615 185 q 625 268 622 247 l 688 764 l 801 764 l 694 0 l 511 0 l 433 514 q 428 563 431 535 q 425 614 426 590 q 424 672 424 643 l 411 672 q 408 614 410 643 q 405 563 407 590 q 399 514 403 535 l 318 0 l 138 0 l 32 764 l 147 764 m 185 1006 q 210 1068 185 1044 q 275 1092 235 1092 q 340 1068 315 1092 q 365 1006 365 1044 q 340 943 365 967 q 275 919 315 919 q 210 943 235 919 q 185 1006 185 967 m 468 1006 q 493 1068 468 1044 q 558 1092 518 1092 q 624 1068 599 1092 q 649 1006 649 1044 q 624 943 649 967 q 558 919 599 919 q 493 943 518 919 q 468 1006 468 967 z "},"Ŀ":{"ha":833,"x_min":142,"x_max":746,"o":"m 294 1000 l 294 140 l 746 140 l 746 0 l 142 0 l 142 1000 l 294 1000 m 438 488 q 472 581 438 546 q 565 617 507 617 q 658 581 624 617 q 693 488 693 546 q 658 393 693 429 q 565 357 624 357 q 472 393 507 357 q 438 488 438 429 z "},"ŀ":{"ha":833,"x_min":21,"x_max":771,"o":"m 421 1014 l 421 236 q 446 165 421 190 q 515 139 471 139 l 743 139 l 743 0 l 508 0 q 332 63 396 0 q 268 236 268 126 l 268 876 l 21 876 l 21 1014 l 421 1014 m 515 488 q 550 581 515 546 q 643 617 585 617 q 736 581 701 617 q 771 488 771 546 q 736 393 771 429 q 643 357 701 357 q 550 393 585 357 q 515 488 515 429 z "},"°":{"ha":833,"x_min":208,"x_max":625,"o":"m 208 826 q 265 973 208 918 q 417 1028 322 1028 q 568 973 511 1028 q 625 826 625 918 q 568 680 625 735 q 417 625 511 625 q 265 680 322 625 q 208 826 208 735 m 299 826 q 331 737 299 771 q 415 703 363 703 q 502 737 469 703 q 535 826 535 771 q 502 917 535 883 q 415 951 469 951 q 331 917 363 951 q 299 826 299 883 z "},"ț":{"ha":833,"x_min":72,"x_max":733,"o":"m 72 764 l 288 764 l 288 1000 l 440 1000 l 440 764 l 733 764 l 733 626 l 440 626 l 440 219 q 463 160 440 182 q 525 139 485 139 l 719 139 l 719 0 l 518 0 q 349 60 411 0 q 288 219 288 119 l 288 626 l 72 626 l 72 764 m 553 -131 l 421 -336 l 281 -336 l 375 -131 l 553 -131 z "},"Ļ":{"ha":833,"x_min":142,"x_max":746,"o":"m 294 1000 l 294 140 l 746 140 l 746 0 l 142 0 l 142 1000 l 294 1000 m 553 -131 l 421 -336 l 281 -336 l 375 -131 l 553 -131 z "},"ș":{"ha":833,"x_min":92,"x_max":736,"o":"m 390 -14 q 183 41 263 -14 q 92 192 103 96 l 250 192 q 297 132 258 154 q 390 110 335 110 l 440 110 q 547 138 508 110 q 585 214 585 165 q 463 314 585 297 l 351 329 q 169 400 228 344 q 110 556 110 456 q 184 719 110 661 q 396 778 258 778 l 444 778 q 641 724 565 778 q 731 579 717 671 l 574 579 q 531 634 565 614 q 444 654 496 654 l 396 654 q 296 630 331 654 q 261 557 261 606 q 287 494 261 517 q 369 465 313 472 l 483 450 q 675 376 614 432 q 736 218 736 321 q 660 47 736 107 q 440 -14 583 -14 l 390 -14 m 543 -131 l 411 -336 l 271 -336 l 365 -131 l 543 -131 z "},"ņ":{"ha":833,"x_min":110,"x_max":722,"o":"m 110 0 l 110 764 l 254 764 l 254 632 l 267 632 q 335 740 282 701 q 471 778 389 778 q 574 758 528 778 q 653 703 621 739 q 704 616 686 667 q 722 503 722 565 l 722 0 l 571 0 l 571 482 q 530 603 571 560 q 418 647 489 647 q 304 601 346 647 q 263 476 263 556 l 263 0 l 110 0 m 543 -131 l 411 -336 l 271 -336 l 365 -131 l 543 -131 z "},"Ț":{"ha":833,"x_min":58,"x_max":775,"o":"m 58 1000 l 775 1000 l 775 863 l 494 863 l 494 0 l 339 0 l 339 863 l 58 863 l 58 1000 m 553 -131 l 421 -336 l 281 -336 l 375 -131 l 553 -131 z "},"Ņ":{"ha":833,"x_min":106,"x_max":728,"o":"m 296 1000 l 546 332 q 563 278 556 308 q 578 219 571 247 q 592 153 585 186 l 606 153 q 603 171 606 153 q 598 218 601 189 q 592 283 594 247 q 589 356 589 319 l 589 1000 l 728 1000 l 728 0 l 539 0 l 292 669 q 272 728 281 697 q 257 788 264 760 q 244 849 250 818 l 231 849 q 238 788 235 819 q 242 724 240 760 q 244 647 244 688 l 244 0 l 106 0 l 106 1000 l 296 1000 m 553 -131 l 421 -336 l 281 -336 l 375 -131 l 553 -131 z "},"Ķ":{"ha":833,"x_min":114,"x_max":801,"o":"m 267 1000 l 267 586 l 408 586 l 615 1000 l 789 1000 l 543 522 l 801 0 l 626 0 l 408 450 l 267 450 l 267 0 l 114 0 l 114 1000 l 267 1000 m 553 -131 l 421 -336 l 281 -336 l 375 -131 l 553 -131 z "},"ķ":{"ha":833,"x_min":118,"x_max":792,"o":"m 271 1014 l 271 454 l 406 454 l 615 764 l 788 764 l 536 393 l 792 0 l 615 0 l 406 322 l 271 322 l 271 0 l 118 0 l 118 1014 l 271 1014 m 553 -131 l 421 -336 l 281 -336 l 375 -131 l 553 -131 z "},"Ģ":{"ha":833,"x_min":96,"x_max":742,"o":"m 397 528 l 738 528 l 738 289 q 715 164 738 219 q 650 69 692 108 q 549 8 608 29 q 417 -14 490 -14 q 285 8 344 -14 q 183 69 225 29 q 119 165 142 108 q 96 289 96 221 l 96 711 q 119 834 96 779 q 184 928 142 889 q 285 990 226 968 q 417 1011 344 1011 q 636 943 551 1011 q 742 749 721 875 l 588 749 q 531 841 576 807 q 417 875 486 875 q 294 831 339 875 q 249 711 249 788 l 249 289 q 294 165 249 210 q 417 121 339 121 q 540 165 494 121 q 585 289 585 210 l 585 394 l 397 394 l 397 528 m 553 -131 l 421 -336 l 281 -336 l 375 -131 l 553 -131 z "},"ĺ":{"ha":833,"x_min":49,"x_max":771,"o":"m 449 1014 l 449 236 q 474 165 449 190 q 543 139 499 139 l 771 139 l 771 0 l 536 0 q 360 63 424 0 q 296 236 296 126 l 296 876 l 49 876 l 49 1014 l 449 1014 m 456 1121 l 313 1121 l 461 1324 l 632 1324 l 456 1121 z "},"ļ":{"ha":833,"x_min":49,"x_max":771,"o":"m 449 1014 l 449 236 q 474 165 449 190 q 543 139 499 139 l 771 139 l 771 0 l 536 0 q 360 63 424 0 q 296 236 296 126 l 296 876 l 49 876 l 49 1014 l 449 1014 m 553 -131 l 421 -336 l 281 -336 l 375 -131 l 553 -131 z "},"ŗ":{"ha":833,"x_min":142,"x_max":772,"o":"m 142 764 l 286 764 l 286 632 l 299 632 q 370 740 314 701 q 511 778 426 778 q 703 702 633 778 q 772 492 772 626 l 772 442 l 615 442 l 615 476 q 572 602 615 557 q 454 647 529 647 q 338 601 381 647 q 294 476 294 556 l 294 0 l 142 0 l 142 764 m 553 -131 l 421 -336 l 281 -336 l 375 -131 l 553 -131 z "},"Ŗ":{"ha":833,"x_min":114,"x_max":771,"o":"m 114 1000 l 438 1000 q 569 978 510 1000 q 669 919 628 957 q 734 826 711 881 q 757 704 757 771 q 706 531 757 603 q 565 428 654 458 l 771 0 l 599 0 l 413 407 l 265 407 l 265 0 l 114 0 l 114 1000 m 265 535 l 438 535 q 557 580 513 535 q 601 700 601 625 q 557 822 601 776 q 438 868 513 868 l 265 868 l 265 535 m 553 -131 l 421 -336 l 281 -336 l 375 -131 l 553 -131 z "},"Ľ":{"ha":833,"x_min":142,"x_max":811,"o":"m 294 1000 l 294 140 l 746 140 l 746 0 l 142 0 l 142 1000 l 294 1000 m 635 857 l 492 857 l 640 1060 l 811 1060 l 635 857 z "},"ľ":{"ha":833,"x_min":49,"x_max":900,"o":"m 449 1014 l 449 236 q 474 165 449 190 q 543 139 499 139 l 771 139 l 771 0 l 536 0 q 360 63 424 0 q 296 236 296 126 l 296 876 l 49 876 l 49 1014 l 449 1014 m 724 857 l 581 857 l 729 1060 l 900 1060 l 724 857 z "},"Ŧ":{"ha":833,"x_min":58,"x_max":775,"o":"m 58 1000 l 775 1000 l 775 863 l 494 863 l 494 0 l 339 0 l 339 863 l 58 863 l 58 1000 m 226 558 l 607 558 l 607 429 l 226 429 l 226 558 z "},"ŧ":{"ha":833,"x_min":72,"x_max":733,"o":"m 72 764 l 288 764 l 288 1000 l 440 1000 l 440 764 l 733 764 l 733 626 l 440 626 l 440 219 q 463 160 440 182 q 525 139 485 139 l 719 139 l 719 0 l 518 0 q 349 60 411 0 q 288 219 288 119 l 288 626 l 72 626 l 72 764 m 179 461 l 560 461 l 560 332 l 179 332 l 179 461 z "},"ħ":{"ha":833,"x_min":18,"x_max":722,"o":"m 263 831 l 263 764 q 261 722 263 744 q 258 678 260 699 q 255 645 256 658 q 254 632 254 632 l 267 632 q 335 740 282 701 q 471 778 389 778 q 574 758 528 778 q 653 703 621 739 q 704 616 686 667 q 722 503 722 565 l 722 0 l 571 0 l 571 482 q 530 603 571 560 q 418 647 489 647 q 304 601 346 647 q 263 476 263 556 l 263 0 l 110 0 l 110 831 l 18 831 l 18 940 l 110 940 l 110 1014 l 263 1014 l 263 940 l 403 940 l 403 831 l 263 831 z "},"Ĺ":{"ha":833,"x_min":142,"x_max":746,"o":"m 294 1000 l 294 140 l 746 140 l 746 0 l 142 0 l 142 1000 l 294 1000 m 289 1111 l 146 1111 l 294 1314 l 465 1314 l 289 1111 z "},"©":{"ha":833,"x_min":63,"x_max":771,"o":"m 139 486 q 159 378 139 426 q 216 294 179 329 q 303 241 253 260 q 417 222 354 222 q 531 241 479 222 q 618 294 582 260 q 674 378 654 329 q 694 486 694 426 l 694 694 q 674 803 694 754 q 618 886 654 851 q 531 940 582 921 q 417 958 479 958 q 303 940 354 958 q 216 886 253 921 q 159 803 179 851 q 139 694 139 754 l 139 486 m 63 694 q 88 831 63 769 q 160 937 114 893 q 272 1004 207 981 q 417 1028 338 1028 q 561 1004 496 1028 q 673 937 626 981 q 745 831 719 893 q 771 694 771 769 l 771 486 q 745 350 771 411 q 673 245 719 289 q 561 177 626 201 q 417 153 496 153 q 272 177 338 153 q 160 245 207 201 q 88 350 114 289 q 63 486 63 411 l 63 694 m 344 504 q 366 447 344 468 q 424 426 388 426 q 472 442 451 426 q 501 482 493 458 l 600 482 q 537 377 583 414 q 424 340 490 340 q 294 385 343 340 q 246 504 246 429 l 246 676 q 294 796 246 751 q 424 840 343 840 q 538 803 492 840 q 600 699 585 767 l 501 699 q 424 754 483 754 q 366 733 388 754 q 344 676 344 713 l 344 504 z "},"®":{"ha":833,"x_min":63,"x_max":771,"o":"m 417 1028 q 561 1004 496 1028 q 673 937 626 981 q 745 831 719 893 q 771 694 771 769 l 771 486 q 745 350 771 411 q 673 245 719 289 q 561 177 626 201 q 417 153 496 153 q 272 177 338 153 q 160 245 207 201 q 88 350 114 289 q 63 486 63 411 l 63 694 q 88 831 63 769 q 160 937 114 893 q 272 1004 207 981 q 417 1028 338 1028 m 139 486 q 159 378 139 426 q 216 294 179 329 q 303 241 253 260 q 417 222 354 222 q 531 241 479 222 q 618 294 582 260 q 674 378 654 329 q 694 486 694 426 l 694 694 q 674 803 694 754 q 618 886 654 851 q 531 940 582 921 q 417 958 479 958 q 303 940 354 958 q 216 886 253 921 q 159 803 179 851 q 139 694 139 754 l 139 486 m 260 833 l 422 833 q 544 793 499 833 q 589 685 589 753 q 568 607 589 640 q 508 556 547 574 l 597 347 l 500 347 l 421 539 l 351 539 l 351 347 l 260 347 l 260 833 m 422 615 q 476 635 457 615 q 496 688 496 654 q 476 740 496 721 q 422 760 457 760 l 351 760 l 351 615 l 422 615 z "},"¡":{"ha":833,"x_min":306,"x_max":528,"o":"m 503 -229 l 331 -229 l 331 -49 l 361 458 l 472 458 l 503 -49 l 503 -229 m 433 601 l 400 601 q 331 626 357 601 q 306 692 306 651 q 331 755 306 732 q 401 778 357 778 l 433 778 q 502 755 476 778 q 528 692 528 732 q 502 626 528 651 q 433 601 476 601 z "},"¿":{"ha":833,"x_min":139,"x_max":656,"o":"m 139 63 q 158 174 139 124 q 214 262 178 225 q 300 320 250 299 q 411 343 350 342 l 411 476 l 551 476 l 554 211 l 461 211 q 337 172 382 211 q 292 63 292 133 q 338 -47 292 -8 q 463 -86 383 -86 l 656 -86 l 656 -229 l 468 -229 q 332 -208 393 -229 q 228 -150 271 -187 q 162 -58 185 -112 q 139 63 139 -4 m 500 601 l 468 601 q 399 626 425 601 q 374 692 374 651 q 399 755 374 732 q 468 778 425 778 l 500 778 q 569 755 543 778 q 596 692 596 732 q 569 626 596 651 q 500 601 543 601 z "},"ŉ":{"ha":833,"x_min":-29,"x_max":722,"o":"m 110 0 l 110 764 l 254 764 l 254 632 l 267 632 q 335 740 282 701 q 471 778 389 778 q 574 758 528 778 q 653 703 621 739 q 704 616 686 667 q 722 503 722 565 l 722 0 l 571 0 l 571 482 q 530 603 571 560 q 418 647 489 647 q 304 601 346 647 q 263 476 263 556 l 263 0 l 110 0 m 243 1018 l 111 813 l -29 813 l 65 1018 l 243 1018 z "},"Ș":{"ha":833,"x_min":86,"x_max":747,"o":"m 417 -14 q 285 6 344 -14 q 181 60 225 25 q 113 147 138 96 q 86 261 88 199 l 243 261 q 295 158 246 196 q 419 121 344 121 q 548 158 501 121 q 594 258 594 194 q 560 356 594 314 q 461 418 525 397 l 356 453 q 110 742 110 531 q 192 941 110 868 q 421 1014 275 1014 q 545 995 489 1014 q 642 942 601 976 q 708 857 683 907 q 733 744 732 807 l 576 744 q 530 844 575 807 q 418 881 485 881 q 304 846 346 881 q 263 753 263 811 q 294 662 263 699 q 393 603 325 625 l 504 568 q 685 453 624 532 q 747 265 747 375 q 724 150 747 201 q 658 63 701 99 q 554 6 615 26 q 417 -14 493 -14 m 553 -131 l 421 -336 l 281 -336 l 375 -131 l 553 -131 z "},"Þ":{"ha":833,"x_min":115,"x_max":774,"o":"m 115 986 l 268 986 l 268 806 l 465 806 q 593 785 536 806 q 690 728 650 765 q 752 639 731 692 q 774 521 774 586 q 752 403 774 456 q 690 313 731 350 q 593 256 650 276 q 465 236 536 236 l 268 236 l 268 0 l 115 0 l 115 986 m 268 674 l 268 368 l 454 368 q 575 408 532 368 q 618 521 618 449 q 574 633 618 593 q 454 674 531 674 l 268 674 z "},"ȷ":{"ha":833,"x_min":121,"x_max":622,"o":"m 469 624 l 157 624 l 157 764 l 622 764 l 622 74 q 599 -49 622 7 q 533 -145 575 -106 q 433 -207 492 -185 q 303 -229 374 -229 l 121 -229 l 121 -87 l 303 -87 q 424 -43 378 -87 q 469 74 469 1 l 469 624 z "},"Ţ":{"ha":833,"x_min":58,"x_max":775,"o":"m 58 1000 l 775 1000 l 775 863 l 494 863 l 494 0 l 339 0 l 339 863 l 58 863 l 58 1000 m 382 32 l 469 32 l 439 -49 q 528 -67 489 -53 q 588 -102 560 -79 q 615 -164 615 -125 q 567 -243 615 -212 q 439 -274 518 -274 l 310 -274 l 310 -190 l 411 -190 q 463 -179 443 -190 q 482 -150 482 -168 q 443 -108 482 -122 q 332 -94 404 -94 l 382 32 z "},"ţ":{"ha":833,"x_min":72,"x_max":733,"o":"m 72 764 l 288 764 l 288 1000 l 440 1000 l 440 764 l 733 764 l 733 626 l 440 626 l 440 219 q 463 160 440 182 q 525 139 485 139 l 719 139 l 719 0 l 518 0 q 349 60 411 0 q 288 219 288 119 l 288 626 l 72 626 l 72 764 m 424 32 l 511 32 l 481 -49 q 569 -67 531 -53 q 629 -102 601 -79 q 657 -164 657 -125 q 608 -243 657 -212 q 481 -274 560 -274 l 351 -274 l 351 -190 l 453 -190 q 504 -179 485 -190 q 524 -150 524 -168 q 485 -108 524 -122 q 374 -94 446 -94 l 424 32 z "},"đ":{"ha":833,"x_min":96,"x_max":810,"o":"m 96 479 q 115 603 96 549 q 167 697 133 658 q 250 757 201 736 q 357 778 299 778 q 495 740 440 778 q 565 632 550 701 l 578 632 q 575 679 576 656 q 572 723 572 700 q 571 764 571 746 l 571 824 l 431 824 l 431 935 l 571 935 l 571 1014 l 722 1014 l 722 935 l 810 935 l 810 824 l 722 824 l 722 0 l 578 0 l 578 132 l 565 132 q 495 24 550 63 q 357 -14 440 -14 q 250 7 299 -14 q 167 67 201 28 q 115 162 133 106 q 96 288 96 218 l 96 479 m 413 119 q 528 165 485 119 q 571 288 571 211 l 571 476 q 527 600 571 554 q 413 646 483 646 q 292 601 336 646 q 249 476 249 556 l 249 289 q 292 165 249 211 q 413 119 336 119 z "},"ģ":{"ha":833,"x_min":90,"x_max":722,"o":"m 90 483 q 108 605 90 550 q 161 698 126 660 q 244 757 196 736 q 353 778 293 778 q 494 738 438 778 q 568 625 551 697 l 578 625 l 578 764 l 722 764 l 722 50 q 640 -155 722 -81 q 413 -229 557 -229 l 215 -229 l 215 -99 l 413 -99 q 528 -59 486 -99 q 571 50 571 -19 l 571 72 l 576 218 l 568 218 q 493 106 550 146 q 351 65 436 65 q 244 86 292 65 q 162 145 196 107 q 109 238 128 183 q 90 360 90 293 l 90 483 m 244 361 q 288 241 244 285 q 407 197 332 197 q 527 242 483 197 q 571 361 571 286 l 571 482 q 527 602 571 558 q 407 646 483 646 q 288 602 332 646 q 244 482 244 558 l 244 361 m 281 947 l 413 1153 l 553 1153 l 458 947 l 281 947 z "},"Ħ":{"ha":833,"x_min":53,"x_max":781,"o":"m 781 843 l 781 722 l 719 722 l 719 0 l 568 0 l 568 450 l 267 450 l 267 0 l 114 0 l 114 722 l 53 722 l 53 843 l 114 843 l 114 1000 l 267 1000 l 267 843 l 568 843 l 568 1000 l 719 1000 l 719 843 l 781 843 m 267 722 l 267 590 l 568 590 l 568 722 l 267 722 z "},"Ĵ":{"ha":833,"x_min":51,"x_max":707,"o":"m 375 119 q 503 166 456 119 q 551 290 551 213 l 551 863 l 181 863 l 181 1000 l 704 1000 l 704 290 q 681 163 704 219 q 616 67 658 107 q 513 7 574 28 q 375 -14 451 -14 q 153 60 240 -14 q 51 260 67 133 l 204 260 q 260 158 213 197 q 375 119 307 119 m 397 1322 l 540 1322 l 707 1121 l 583 1121 l 510 1200 q 478 1236 488 1228 q 471 1247 474 1243 l 467 1247 q 458 1238 464 1243 q 426 1201 450 1226 l 353 1121 l 229 1121 l 397 1322 z "},"ĵ":{"ha":833,"x_min":121,"x_max":674,"o":"m 364 1100 l 507 1100 l 674 899 l 550 899 l 476 978 q 444 1014 454 1006 q 438 1025 440 1021 l 433 1025 q 425 1015 431 1021 q 393 979 417 1004 l 319 899 l 196 899 l 364 1100 m 469 624 l 157 624 l 157 764 l 622 764 l 622 74 q 599 -49 622 7 q 533 -145 575 -106 q 433 -207 492 -185 q 303 -229 374 -229 l 121 -229 l 121 -87 l 303 -87 q 424 -43 378 -87 q 469 74 469 1 l 469 624 z "},"ť":{"ha":833,"x_min":72,"x_max":810,"o":"m 72 626 l 72 764 l 288 764 l 288 1000 l 440 1000 l 440 764 l 733 764 l 733 626 l 440 626 l 440 219 q 463 160 440 182 q 525 139 485 139 l 719 139 l 719 0 l 518 0 q 349 60 411 0 q 288 219 288 119 l 288 626 l 72 626 m 614 847 l 681 1050 l 810 1050 l 715 847 l 614 847 z "},"…":{"ha":833,"x_min":76,"x_max":757,"o":"m 76 160 q 97 218 76 196 q 153 240 118 240 q 208 218 188 240 q 229 160 229 196 l 229 67 q 208 8 229 31 q 153 -14 188 -14 q 97 8 118 -14 q 76 67 76 31 l 76 160 m 340 160 q 361 218 340 196 q 417 240 382 240 q 472 218 451 240 q 493 160 493 196 l 493 67 q 472 8 493 31 q 417 -14 451 -14 q 361 8 382 -14 q 340 67 340 31 l 340 160 m 604 160 q 625 218 604 196 q 681 240 646 240 q 736 218 715 240 q 757 160 757 196 l 757 67 q 736 8 757 31 q 681 -14 715 -14 q 625 8 646 -14 q 604 67 604 31 l 604 160 z "},"¶":{"ha":833,"x_min":83,"x_max":713,"o":"m 83 764 q 102 860 83 817 q 156 935 121 904 q 239 983 190 967 q 347 1000 288 1000 l 713 1000 l 713 0 l 588 0 l 588 888 l 472 888 l 472 0 l 347 0 l 347 417 q 239 433 288 417 q 156 481 190 450 q 102 556 121 513 q 83 653 83 600 l 83 764 z "},"µ":{"ha":833,"x_min":114,"x_max":719,"o":"m 267 764 l 267 279 q 302 160 267 201 q 415 119 338 119 q 531 160 494 119 q 568 279 568 201 l 568 764 l 719 764 l 719 279 q 644 63 719 140 q 432 -14 568 -14 q 324 4 365 -14 q 260 43 283 22 q 219 100 232 68 l 213 100 q 217 88 214 100 q 226 58 221 76 q 235 19 231 40 q 240 -18 239 -1 l 260 -229 l 114 -229 l 114 764 l 267 764 z "},"Œ":{"ha":833,"x_min":51,"x_max":801,"o":"m 261 -11 q 107 60 163 -11 q 51 257 51 131 l 51 746 q 107 943 51 872 q 261 1014 163 1014 q 342 994 313 1014 q 388 951 372 975 q 414 889 407 924 l 421 889 l 421 1000 l 801 1000 l 801 867 l 563 867 l 563 582 l 767 582 l 767 449 l 563 449 l 563 135 l 801 135 l 801 0 l 421 0 l 421 114 l 414 114 q 388 51 407 79 q 342 8 372 28 q 261 -11 313 -11 m 199 257 q 228 157 199 193 q 308 121 257 121 q 390 157 361 121 q 418 257 418 193 l 418 746 q 390 846 418 810 q 308 882 361 882 q 228 846 257 882 q 199 746 199 810 l 199 257 z "},"œ":{"ha":833,"x_min":49,"x_max":785,"o":"m 49 560 q 103 719 49 660 q 250 778 157 778 q 339 760 307 778 q 388 722 371 743 q 413 667 407 697 l 421 667 q 446 722 426 697 q 495 760 463 743 q 583 778 528 778 q 731 719 676 778 q 785 560 785 660 l 785 347 l 483 347 l 483 204 q 506 130 483 157 q 567 103 528 103 q 621 122 599 103 q 649 174 643 142 l 781 174 q 714 36 767 86 q 583 -14 661 -14 q 495 3 528 -14 q 446 42 463 21 q 421 97 426 67 l 413 97 q 388 42 407 67 q 339 3 371 21 q 250 -14 307 -14 q 103 45 157 -14 q 49 204 49 104 l 49 560 m 267 661 q 203 634 226 661 q 181 560 181 607 l 181 204 q 203 130 181 157 q 267 103 226 103 q 328 130 306 103 q 350 204 350 157 l 350 560 q 328 634 350 607 q 267 661 306 661 m 483 451 l 653 451 l 653 560 q 630 634 653 607 q 567 661 607 661 q 506 634 528 661 q 483 560 483 607 l 483 451 z "},"Æ":{"ha":833,"x_min":28,"x_max":796,"o":"m 226 1000 l 796 1000 l 796 867 l 553 867 l 553 582 l 761 582 l 761 447 l 553 447 l 553 135 l 796 135 l 796 0 l 410 0 l 410 265 l 224 265 l 175 0 l 28 0 l 226 1000 m 246 382 l 410 382 l 411 867 l 335 867 l 246 382 z "},"æ":{"ha":833,"x_min":49,"x_max":785,"o":"m 49 185 l 49 264 q 108 403 49 351 q 267 454 167 454 l 356 454 l 356 560 q 272 661 356 661 q 192 579 199 661 l 60 579 q 117 724 67 671 q 250 778 168 778 q 338 760 306 778 q 388 722 371 743 q 415 667 408 697 l 424 667 q 450 722 431 697 q 499 760 467 743 q 583 778 531 778 q 731 720 678 778 q 785 560 785 663 l 785 351 l 483 351 l 483 204 q 506 131 483 158 q 567 103 529 103 q 625 124 601 103 q 653 181 649 144 l 785 181 q 766 102 782 138 q 724 41 750 67 q 661 1 697 15 q 583 -14 625 -14 q 497 3 529 -14 q 450 42 465 21 q 424 97 431 67 l 415 97 q 386 42 408 67 q 333 3 368 21 q 238 -14 299 -14 q 99 40 150 -14 q 49 185 49 93 m 268 103 q 332 130 308 103 q 356 204 356 157 l 356 351 l 268 351 q 207 328 229 351 q 185 264 185 304 l 185 185 q 207 124 185 146 q 268 103 229 103 m 483 454 l 653 454 l 653 560 q 630 633 653 606 q 567 661 607 661 q 506 633 528 661 q 483 560 483 606 l 483 454 z "},"ß":{"ha":833,"x_min":69,"x_max":803,"o":"m 69 765 q 90 867 69 821 q 147 945 110 913 q 234 996 183 978 q 346 1014 285 1014 l 438 1014 q 554 996 501 1014 q 644 945 607 978 q 702 867 682 913 q 722 765 722 821 l 722 643 l 585 643 q 474 554 474 643 q 556 461 474 478 l 603 450 q 752 368 701 429 q 803 213 803 307 q 739 47 803 107 q 564 -14 675 -14 q 393 40 460 -14 q 315 185 326 93 l 456 185 q 491 128 463 149 q 564 107 519 107 q 638 133 613 107 q 664 208 664 160 q 578 322 664 304 l 533 332 q 333 551 333 376 q 399 707 333 650 q 578 764 464 764 q 540 855 578 821 q 438 889 501 889 l 346 889 q 251 855 286 889 q 215 764 215 821 l 215 0 l 69 0 l 69 765 z "},"ð":{"ha":833,"x_min":83,"x_max":750,"o":"m 83 308 q 104 434 83 378 q 163 531 125 490 q 255 593 201 571 q 374 615 308 615 q 449 601 418 615 q 501 571 481 588 q 542 525 525 550 l 558 525 q 536 556 550 536 q 503 601 524 572 q 453 671 483 629 l 374 783 l 157 690 l 157 814 l 307 878 l 208 1018 l 386 1018 l 443 936 l 656 1026 l 656 904 l 507 840 l 600 706 q 714 496 678 592 q 750 314 750 400 q 726 182 750 242 q 658 79 701 122 q 552 13 614 36 q 415 -10 490 -10 q 279 13 340 -10 q 174 78 218 36 q 107 178 131 119 q 83 308 83 236 m 236 308 q 285 173 236 224 q 415 122 335 122 q 548 173 499 122 q 597 308 597 224 q 548 442 597 392 q 415 493 499 493 q 285 442 335 493 q 236 308 236 392 z "},"¬":{"ha":833,"x_min":97,"x_max":736,"o":"m 97 593 l 736 593 l 736 271 l 589 271 l 589 454 l 97 454 l 97 593 z "},"™":{"ha":833,"x_min":21,"x_max":785,"o":"m 431 514 l 431 1014 l 542 1014 l 589 872 q 597 842 594 858 q 601 811 600 826 q 606 778 604 794 l 614 778 q 618 811 615 794 q 624 842 621 826 q 631 872 626 858 l 676 1014 l 785 1014 l 785 514 l 708 514 l 708 863 q 710 891 708 875 q 714 922 711 907 q 718 958 715 940 l 706 958 q 699 922 703 939 q 692 890 696 907 q 686 861 689 874 l 644 708 l 572 708 l 528 863 q 521 891 525 875 q 514 922 517 907 q 507 958 510 940 l 496 958 q 501 922 499 940 q 506 891 504 907 q 507 863 507 875 l 507 514 l 431 514 m 382 1014 l 382 944 l 243 944 l 243 514 l 160 514 l 160 944 l 21 944 l 21 1014 l 382 1014 z "},"ƒ":{"ha":833,"x_min":0,"x_max":754,"o":"m 0 -86 l 156 -86 q 260 -49 222 -86 q 299 54 299 -12 l 299 544 l 79 544 l 79 681 l 299 681 l 299 804 q 358 958 299 903 q 522 1014 418 1014 l 753 1014 l 753 881 l 532 881 q 451 804 451 881 l 451 681 l 754 681 l 754 544 l 451 544 l 451 46 q 430 -67 451 -17 q 369 -154 408 -118 q 274 -210 329 -190 q 150 -229 218 -229 l 0 -229 l 0 -86 z "},"§":{"ha":833,"x_min":92,"x_max":742,"o":"m 92 -12 l 250 -12 q 301 -78 261 -53 q 396 -103 340 -103 l 438 -103 q 551 -72 511 -103 q 590 8 590 -42 q 460 124 590 99 l 346 147 q 171 231 236 169 q 106 375 106 292 q 156 509 106 456 q 290 569 207 563 l 290 579 q 200 610 240 586 q 138 672 167 631 q 110 785 110 713 q 185 952 110 890 q 399 1014 261 1014 l 440 1014 q 640 959 563 1014 q 732 810 717 904 l 574 810 q 529 866 565 844 q 440 888 493 888 l 399 888 q 296 860 332 888 q 260 785 260 832 q 291 715 260 744 q 382 674 322 685 l 497 650 q 598 617 553 639 q 674 564 643 594 q 722 496 706 533 q 739 417 739 458 q 688 283 739 336 q 550 228 638 231 l 550 218 q 646 186 604 211 q 712 123 682 164 q 742 8 742 82 q 662 -165 742 -101 q 438 -228 582 -228 l 396 -228 q 281 -212 333 -228 q 190 -169 229 -197 q 125 -102 150 -142 q 92 -12 100 -62 m 256 404 q 283 317 256 353 q 356 272 311 281 l 451 253 q 464 251 458 251 q 475 250 469 250 q 557 292 526 250 q 588 396 588 333 q 559 479 588 444 q 482 525 531 514 l 389 544 q 377 547 382 546 q 367 547 372 547 q 286 507 317 547 q 256 404 256 467 z "},"¤":{"ha":833,"x_min":58,"x_max":774,"o":"m 58 769 l 146 857 l 268 735 q 415 774 333 774 q 568 731 501 774 l 686 849 l 774 761 l 656 643 q 685 573 675 611 q 696 493 696 535 q 653 340 696 407 l 774 219 l 686 132 l 565 253 q 495 223 533 233 q 415 213 457 213 q 267 253 331 213 l 146 132 l 58 219 l 178 339 q 133 493 133 404 q 145 577 133 538 q 178 650 157 617 l 58 769 m 415 314 q 544 363 496 314 q 593 493 593 413 q 544 623 593 574 q 415 672 496 672 q 285 623 335 672 q 236 493 236 574 q 285 363 236 413 q 415 314 335 314 z "},"¢":{"ha":833,"x_min":107,"x_max":747,"o":"m 347 -7 q 171 90 235 14 q 107 285 107 167 l 107 479 q 171 674 107 597 q 347 771 235 750 l 347 889 l 500 889 l 500 771 q 666 685 600 751 q 747 514 732 618 l 594 514 q 535 610 585 576 q 426 644 486 644 q 304 601 350 644 q 258 479 258 558 l 258 285 q 305 163 258 206 q 426 121 351 121 q 535 153 486 121 q 594 250 585 186 l 747 250 q 666 79 732 146 q 500 -7 600 13 l 500 -126 l 347 -126 l 347 -7 z "},"£":{"ha":833,"x_min":100,"x_max":743,"o":"m 604 514 l 604 385 l 399 385 q 400 367 400 376 q 400 347 400 358 q 374 244 400 285 q 315 181 347 204 q 229 139 276 153 l 743 139 l 743 0 l 104 0 l 104 167 q 181 215 147 189 q 232 269 208 239 q 256 335 256 299 q 251 385 256 363 l 100 385 l 100 514 l 199 514 q 165 560 182 538 q 135 607 149 582 q 113 660 122 632 q 104 726 104 689 q 188 928 104 856 q 417 1000 271 1000 q 642 928 558 1000 q 729 731 725 857 l 572 731 q 527 830 569 793 q 414 867 485 867 q 300 831 342 867 q 258 728 258 794 q 269 663 258 690 q 294 613 279 636 q 328 566 310 589 q 361 514 346 543 l 604 514 z "},"¥":{"ha":833,"x_min":35,"x_max":799,"o":"m 196 1000 l 382 611 q 399 572 393 592 q 410 535 406 551 q 417 500 414 517 l 422 500 q 431 535 425 517 q 441 572 435 551 q 457 611 447 592 l 638 1000 l 799 1000 l 550 489 l 750 489 l 750 371 l 493 371 l 493 275 l 750 275 l 750 157 l 493 157 l 493 0 l 340 0 l 340 157 l 83 157 l 83 275 l 340 275 l 340 371 l 83 371 l 83 489 l 283 489 l 35 1000 l 196 1000 z "},"ª":{"ha":833,"x_min":239,"x_max":588,"o":"m 239 746 q 279 832 239 800 q 389 864 319 864 l 504 864 l 504 903 q 483 947 504 931 q 424 963 461 963 q 368 949 390 963 q 343 914 346 936 l 260 914 q 311 997 268 967 q 424 1028 354 1028 q 543 994 499 1028 q 588 903 588 961 l 588 632 l 508 632 l 508 708 l 504 708 q 455 647 489 669 q 376 625 421 625 q 276 658 314 625 q 239 746 239 690 m 399 686 q 476 708 447 686 q 504 771 504 731 l 504 804 l 389 804 q 340 789 357 804 q 322 746 322 774 q 343 702 322 718 q 399 686 364 686 z "},"º":{"ha":833,"x_min":247,"x_max":586,"o":"m 331 774 q 354 713 331 736 q 417 690 378 690 q 479 713 456 690 q 503 774 503 736 l 503 871 q 479 931 503 908 q 417 954 456 954 q 354 931 378 954 q 331 871 331 908 l 331 774 m 586 774 q 540 663 586 706 q 417 621 493 621 q 294 663 340 621 q 247 774 247 706 l 247 871 q 294 982 247 940 q 417 1024 340 1024 q 540 982 493 1024 q 586 871 586 940 l 586 774 z "},"¹":{"ha":833,"x_min":246,"x_max":636,"o":"m 246 611 l 246 692 l 407 692 l 407 922 q 411 972 407 956 q 415 990 415 989 l 408 990 q 394 975 401 983 q 358 943 382 963 l 274 871 l 274 981 l 372 1063 l 504 1063 l 504 692 l 636 692 l 636 611 l 246 611 z "},"²":{"ha":833,"x_min":211,"x_max":574,"o":"m 567 918 q 443 758 567 826 l 329 696 l 329 682 q 360 688 343 685 q 391 690 374 689 q 426 692 408 692 l 574 692 l 574 611 l 211 611 l 211 711 l 388 813 q 469 913 469 860 q 448 969 469 949 q 390 990 426 990 q 331 969 353 990 q 308 911 308 947 l 211 911 q 263 1026 214 982 q 390 1069 311 1069 q 518 1028 469 1069 q 567 918 567 986 z "},"³":{"ha":833,"x_min":211,"x_max":574,"o":"m 394 604 q 261 644 311 604 q 211 750 211 683 l 308 750 q 332 701 308 719 q 394 683 356 683 q 454 702 432 683 q 476 753 476 721 q 454 803 476 785 q 396 822 432 822 l 354 822 l 354 908 l 479 990 l 479 1000 q 450 993 465 996 q 418 988 436 990 q 378 986 400 986 l 246 986 l 246 1063 l 553 1063 l 553 974 l 478 915 q 458 903 469 908 q 436 894 447 899 q 536 849 499 888 q 574 753 574 811 q 525 645 574 686 q 394 604 476 604 z "},"⁰":{"ha":833,"x_min":232,"x_max":601,"o":"m 417 983 q 348 956 372 983 q 324 882 324 929 l 324 792 q 348 717 324 744 q 417 690 372 690 q 488 719 465 690 q 510 792 510 749 l 510 882 q 485 956 510 929 q 417 983 461 983 m 417 604 q 281 654 329 604 q 232 792 232 704 l 232 882 q 281 1019 232 969 q 417 1069 329 1069 q 553 1019 504 1069 q 601 882 601 969 l 601 792 q 553 654 601 704 q 417 604 504 604 z "},"⁴":{"ha":833,"x_min":239,"x_max":575,"o":"m 414 1063 l 524 1063 l 336 804 l 336 782 l 478 782 l 478 900 l 575 900 l 575 611 l 478 611 l 478 704 l 239 704 l 239 824 l 414 1063 z "},"₀":{"ha":833,"x_min":232,"x_max":601,"o":"m 417 310 q 348 283 372 310 q 324 208 324 256 l 324 118 q 348 44 324 71 q 417 17 372 17 q 488 46 465 17 q 510 118 510 75 l 510 208 q 485 283 510 256 q 417 310 461 310 m 417 -69 q 281 -19 329 -69 q 232 118 232 31 l 232 208 q 281 346 232 296 q 417 396 329 396 q 553 346 504 396 q 601 208 601 296 l 601 118 q 553 -19 601 31 q 417 -69 504 -69 z "},"₁":{"ha":833,"x_min":246,"x_max":636,"o":"m 246 -64 l 246 17 l 407 17 l 407 247 q 411 297 407 281 q 415 315 415 314 l 408 315 q 394 300 401 308 q 358 268 382 288 l 274 196 l 274 306 l 372 388 l 504 388 l 504 17 l 636 17 l 636 -64 l 246 -64 z "},"₂":{"ha":833,"x_min":211,"x_max":574,"o":"m 567 244 q 443 85 567 153 l 329 22 l 329 8 q 360 14 343 11 q 391 17 374 15 q 426 18 408 18 l 574 18 l 574 -62 l 211 -62 l 211 38 l 388 139 q 469 239 469 186 q 448 296 469 275 q 390 317 426 317 q 331 295 353 317 q 308 238 308 274 l 211 238 q 263 352 214 308 q 390 396 311 396 q 518 354 469 396 q 567 244 567 313 z "},"₃":{"ha":833,"x_min":211,"x_max":574,"o":"m 394 -69 q 261 -30 311 -69 q 211 76 211 10 l 308 76 q 332 28 308 46 q 394 10 356 10 q 454 28 432 10 q 476 79 476 47 q 454 130 476 111 q 396 149 432 149 l 354 149 l 354 235 l 479 317 l 479 326 q 450 319 465 322 q 418 315 436 317 q 378 313 400 313 l 246 313 l 246 389 l 553 389 l 553 300 l 478 242 q 458 230 469 235 q 436 221 447 225 q 536 176 499 214 q 574 79 574 138 q 525 -28 574 13 q 394 -69 476 -69 z "},"₄":{"ha":833,"x_min":239,"x_max":575,"o":"m 414 389 l 524 389 l 336 131 l 336 108 l 478 108 l 478 226 l 575 226 l 575 -62 l 478 -62 l 478 31 l 239 31 l 239 150 l 414 389 z "},"⁄":{"ha":833,"x_min":117,"x_max":717,"o":"m 622 986 l 717 986 l 211 0 l 117 0 l 622 986 z "},"¼":{"ha":833,"x_min":44,"x_max":756,"o":"m 207 629 l 207 858 q 211 909 207 892 q 215 928 215 926 l 207 928 q 193 913 201 921 q 178 897 186 906 q 158 879 169 889 l 72 808 l 72 918 l 172 1000 l 304 1000 l 304 629 l 436 629 l 436 624 l 622 986 l 717 986 l 211 0 l 117 0 l 399 549 l 44 549 l 44 629 l 207 629 m 593 451 l 703 451 l 515 193 l 515 171 l 658 171 l 658 289 l 756 289 l 756 0 l 658 0 l 658 93 l 418 93 l 418 213 l 593 451 z "},"½":{"ha":833,"x_min":44,"x_max":799,"o":"m 207 631 l 207 860 q 211 910 207 893 q 215 929 215 928 l 207 929 q 193 914 201 922 q 178 899 186 907 q 158 881 169 890 l 72 808 l 72 919 l 172 1000 l 304 1000 l 304 631 l 436 631 l 436 624 l 622 986 l 717 986 l 211 0 l 117 0 l 399 549 l 44 549 l 44 631 l 207 631 m 435 300 q 487 415 438 371 q 615 458 536 458 q 743 417 694 458 q 792 307 792 375 q 667 147 792 215 l 554 85 l 554 71 q 585 76 568 74 q 616 79 599 78 q 651 81 633 81 l 799 81 l 799 0 l 435 0 l 435 100 l 613 201 q 694 301 694 249 q 673 358 694 338 q 615 379 651 379 q 555 358 578 379 q 532 300 532 336 l 435 300 z "},"¾":{"ha":833,"x_min":1,"x_max":756,"o":"m 622 986 l 717 986 l 211 0 l 117 0 l 622 986 m 1 688 l 99 688 q 122 638 99 657 q 185 619 146 619 q 245 638 222 619 q 268 689 268 657 q 245 740 268 721 q 186 758 222 758 l 144 758 l 144 844 l 271 928 l 271 938 q 242 931 257 933 q 209 926 228 928 q 168 924 190 924 l 36 924 l 36 1000 l 344 1000 l 344 911 l 268 853 q 249 841 260 846 q 226 832 238 836 q 328 786 290 825 q 365 689 365 747 q 316 582 365 622 q 185 542 267 542 q 51 581 101 542 q 1 688 1 621 m 593 451 l 703 451 l 515 193 l 515 171 l 658 171 l 658 289 l 756 289 l 756 0 l 658 0 l 658 93 l 418 93 l 418 213 l 593 451 z "},"‰":{"ha":833,"x_min":42,"x_max":821,"o":"m 271 146 l 271 264 q 313 377 271 338 q 424 417 356 417 q 487 403 464 417 q 524 372 510 389 q 544 328 539 353 q 567 372 551 353 q 605 403 581 389 q 668 417 629 417 q 778 377 736 417 q 821 264 821 338 l 821 146 q 778 33 821 72 q 668 -7 736 -7 q 606 7 629 -7 q 568 38 582 21 q 546 82 553 57 q 524 38 539 57 q 488 7 511 21 q 424 -7 464 -7 q 313 33 356 -7 q 271 146 271 72 m 589 264 l 589 146 q 608 90 589 110 q 661 71 628 71 q 712 90 693 71 q 731 146 731 110 l 731 264 q 712 319 731 300 q 661 339 693 339 q 608 319 628 339 q 589 264 589 300 m 431 71 q 483 90 464 71 q 503 146 503 110 l 503 264 q 483 319 503 300 q 431 339 464 339 q 380 319 399 339 q 361 264 361 300 l 361 146 q 380 90 361 110 q 431 71 399 71 m 792 692 l 792 604 l 42 382 l 42 469 l 792 692 m 214 924 q 155 899 172 924 q 138 838 138 875 l 138 767 q 155 706 138 731 q 214 681 172 681 q 274 707 258 681 q 290 767 290 733 l 290 838 q 273 899 290 875 q 214 924 256 924 m 214 597 q 85 644 128 597 q 43 767 43 690 l 43 838 q 85 960 43 914 q 214 1007 128 1007 q 342 960 300 1007 q 385 838 385 914 l 385 767 q 342 644 385 690 q 214 597 300 597 z "},"†":{"ha":833,"x_min":139,"x_max":694,"o":"m 340 1153 l 493 1153 l 493 -153 l 340 -153 l 340 1153 m 139 565 l 694 565 l 694 426 l 139 426 l 139 565 z "},"‡":{"ha":833,"x_min":111,"x_max":722,"o":"m 340 1153 l 493 1153 l 493 -153 l 340 -153 l 340 1153 m 111 396 l 722 396 l 722 257 l 111 257 l 111 396 m 111 596 l 111 735 l 722 735 l 722 596 l 111 596 z "},"ĸ":{"ha":833,"x_min":118,"x_max":792,"o":"m 118 0 l 118 764 l 271 764 l 271 454 l 406 454 l 615 764 l 788 764 l 536 394 l 792 0 l 615 0 l 407 322 l 271 322 l 271 0 l 118 0 z "},"ĭ":{"ha":833,"x_min":114,"x_max":767,"o":"m 114 139 l 399 139 l 399 626 l 149 626 l 149 764 l 546 764 l 546 139 l 767 139 l 767 0 l 114 0 l 114 139 m 176 1093 l 299 1093 q 331 1026 299 1049 q 415 1003 363 1003 q 501 1026 468 1003 q 535 1093 535 1049 l 657 1093 q 639 1015 657 1050 q 589 953 621 979 q 513 914 557 928 q 417 900 469 900 q 321 914 365 900 q 244 953 276 928 q 194 1015 213 979 q 176 1093 176 1050 z "},"Ĭ":{"ha":833,"x_min":122,"x_max":711,"o":"m 122 0 l 122 133 l 339 133 l 339 867 l 122 867 l 122 1000 l 711 1000 l 711 867 l 494 867 l 494 133 l 711 133 l 711 0 l 122 0 m 185 1306 l 308 1306 q 415 1215 308 1215 q 525 1306 525 1215 l 649 1306 q 632 1227 649 1263 q 585 1167 615 1192 q 512 1128 554 1142 q 417 1114 469 1114 q 322 1128 365 1114 q 249 1167 279 1142 q 201 1227 218 1192 q 185 1306 185 1263 z "},"ſ":{"ha":833,"x_min":215,"x_max":719,"o":"m 719 1014 l 719 881 l 476 881 q 398 850 428 881 q 368 771 368 819 l 368 0 l 215 0 l 215 772 q 233 872 215 826 q 285 948 251 917 q 365 997 318 979 q 471 1014 413 1014 l 719 1014 z "},"ŋ":{"ha":833,"x_min":110,"x_max":722,"o":"m 254 764 l 254 628 l 268 628 q 335 738 283 699 q 469 778 388 778 q 655 704 588 778 q 722 506 722 631 l 722 46 q 701 -67 722 -17 q 640 -154 679 -118 q 544 -210 600 -190 q 422 -229 489 -229 l 340 -229 l 340 -86 l 426 -86 q 532 -49 493 -86 q 571 54 571 -12 l 571 488 q 529 603 571 561 q 417 646 488 646 q 304 604 346 646 q 263 490 263 563 l 263 0 l 110 0 l 110 764 l 254 764 z "},"Ŋ":{"ha":833,"x_min":104,"x_max":729,"o":"m 310 986 l 556 410 q 572 363 565 389 q 583 314 579 338 q 594 260 590 286 l 606 260 q 603 278 606 260 q 598 325 601 296 q 592 391 594 354 q 589 464 589 428 l 589 986 l 729 986 l 729 46 q 708 -67 729 -17 q 647 -154 686 -118 q 551 -210 607 -190 q 428 -229 496 -229 l 331 -229 l 331 -86 l 433 -86 q 538 -49 500 -86 q 576 54 576 -12 l 283 708 q 265 760 272 733 q 253 808 258 786 q 244 857 247 833 l 235 857 q 240 796 238 828 q 243 732 242 768 q 244 656 244 696 l 244 0 l 104 0 l 104 986 l 310 986 z "},"Н":{"ha":833,"x_min":114,"x_max":719,"o":"m 267 1000 l 267 590 l 568 590 l 568 1000 l 719 1000 l 719 0 l 568 0 l 568 450 l 267 450 l 267 0 l 114 0 l 114 1000 l 267 1000 z "},"О":{"ha":833,"x_min":96,"x_max":738,"o":"m 249 289 q 294 167 249 213 q 417 121 340 121 q 539 167 493 121 q 585 289 585 213 l 585 711 q 539 835 585 789 q 417 881 493 881 q 294 835 340 881 q 249 711 249 789 l 249 289 m 96 711 q 119 836 96 781 q 183 931 142 892 q 284 992 225 971 q 417 1014 343 1014 q 549 992 490 1014 q 650 931 608 971 q 715 836 692 892 q 738 711 738 781 l 738 289 q 715 165 738 221 q 649 69 692 108 q 548 8 607 29 q 417 -14 489 -14 q 284 8 343 -14 q 183 69 225 29 q 119 165 142 108 q 96 289 96 221 l 96 711 z "},"А":{"ha":833,"x_min":46,"x_max":788,"o":"m 46 0 l 317 1000 l 525 1000 l 788 0 l 629 0 l 565 265 l 267 265 l 203 0 l 46 0 m 297 388 l 535 388 l 444 763 q 433 813 438 789 q 426 857 429 838 q 421 899 424 879 l 414 899 q 407 857 411 879 q 399 813 404 838 q 388 763 394 789 l 297 388 z "},"В":{"ha":833,"x_min":113,"x_max":751,"o":"m 419 1000 q 650 931 567 1000 q 733 739 733 861 q 683 592 733 649 q 546 528 632 535 l 546 518 q 697 450 642 511 q 751 285 751 389 q 666 76 751 153 q 432 0 581 0 l 113 0 l 113 1000 l 419 1000 m 263 132 l 421 132 q 549 174 503 132 q 594 290 594 215 q 549 408 594 365 q 421 450 503 450 l 263 450 l 263 132 m 263 869 l 263 578 l 418 578 q 533 617 490 578 q 576 724 576 657 q 534 830 576 790 q 418 869 492 869 l 263 869 z "},"Р":{"ha":833,"x_min":113,"x_max":774,"o":"m 454 1000 q 585 978 526 1000 q 686 918 644 957 q 751 824 728 879 q 774 701 774 768 q 751 579 774 635 q 686 485 728 524 q 585 424 644 446 q 454 403 526 403 l 265 403 l 265 0 l 113 0 l 113 1000 l 454 1000 m 265 868 l 265 535 l 454 535 q 574 581 529 535 q 618 701 618 626 q 574 822 618 776 q 454 868 529 868 l 265 868 z "},"С":{"ha":833,"x_min":104,"x_max":744,"o":"m 425 1014 q 649 938 564 1014 q 744 729 733 861 l 592 729 q 541 839 585 800 q 425 878 497 878 q 302 833 347 878 q 257 711 257 789 l 257 289 q 301 167 257 211 q 424 122 344 122 q 541 162 497 122 q 592 271 585 201 l 744 271 q 715 153 739 206 q 649 63 690 100 q 550 6 607 26 q 424 -14 493 -14 q 292 8 351 -14 q 192 69 233 29 q 127 165 150 108 q 104 289 104 221 l 104 711 q 127 836 104 781 q 192 931 150 892 q 292 992 233 971 q 425 1014 351 1014 z "},"Е":{"ha":833,"x_min":125,"x_max":729,"o":"m 125 0 l 125 1000 l 729 1000 l 729 864 l 278 864 l 278 582 l 681 582 l 681 446 l 278 446 l 278 136 l 729 136 l 729 0 l 125 0 z "},"К":{"ha":833,"x_min":114,"x_max":801,"o":"m 267 1000 l 267 586 l 408 586 l 615 1000 l 789 1000 l 543 522 l 801 0 l 626 0 l 408 450 l 267 450 l 267 0 l 114 0 l 114 1000 l 267 1000 z "},"М":{"ha":833,"x_min":89,"x_max":746,"o":"m 89 0 l 89 1000 l 272 1000 l 388 674 q 399 639 394 658 q 407 604 404 619 q 415 567 411 585 l 425 567 q 433 604 429 585 q 442 639 438 619 q 453 674 447 658 l 560 1000 l 746 1000 l 746 0 l 608 0 l 608 672 q 610 731 608 700 q 614 790 611 763 q 619 856 617 824 l 608 856 q 593 796 600 825 q 578 740 586 769 q 563 688 569 711 l 485 442 l 351 442 l 271 688 q 256 742 264 713 q 240 797 247 771 q 226 857 233 826 l 215 857 q 221 792 218 825 q 224 732 222 764 q 225 672 225 700 l 225 0 l 89 0 z "},"Х":{"ha":833,"x_min":46,"x_max":788,"o":"m 332 513 l 63 1000 l 235 1000 l 375 735 q 392 701 385 717 q 406 672 400 685 q 417 646 411 658 l 421 646 q 432 672 425 658 q 444 699 438 683 q 461 733 451 715 l 606 1000 l 771 1000 l 501 518 l 788 0 l 615 0 l 458 294 q 442 330 449 314 q 428 358 435 346 q 417 385 422 372 l 413 385 q 401 358 407 372 q 389 330 396 346 q 372 296 382 314 l 214 0 l 46 0 l 332 513 z "},"а":{"ha":833,"x_min":78,"x_max":724,"o":"m 78 218 q 155 394 78 329 q 364 458 232 458 l 571 458 l 571 524 q 528 619 571 585 q 408 654 486 654 q 307 632 349 654 q 253 571 265 610 l 101 571 q 203 722 119 667 q 410 778 286 778 q 640 711 556 778 q 724 528 724 644 l 724 0 l 582 0 l 582 149 l 571 149 q 489 30 556 74 q 328 -14 422 -14 q 145 49 213 -14 q 78 218 78 111 m 374 108 q 451 119 415 108 q 514 151 488 131 q 556 198 540 171 q 571 257 571 225 l 571 353 l 365 353 q 267 321 303 353 q 231 231 231 289 q 268 140 231 172 q 374 108 306 108 z "},"е":{"ha":833,"x_min":96,"x_max":736,"o":"m 417 -14 q 284 7 343 -14 q 183 67 225 28 q 119 160 142 106 q 96 282 96 214 l 96 482 q 119 605 96 550 q 183 698 142 660 q 284 757 225 736 q 417 778 343 778 q 549 757 490 778 q 650 698 608 736 q 714 605 692 660 q 736 482 736 550 l 736 342 l 249 342 l 249 288 q 293 160 249 206 q 417 114 338 114 q 517 132 475 114 q 579 185 560 150 l 731 185 q 690 103 718 139 q 622 40 663 67 q 528 0 581 14 q 417 -14 476 -14 m 586 453 l 586 482 q 542 606 586 561 q 417 651 497 651 q 293 606 338 651 q 249 482 249 561 l 249 453 l 586 453 z "},"о":{"ha":833,"x_min":96,"x_max":738,"o":"m 249 288 q 293 165 249 210 q 417 121 338 121 q 540 165 494 121 q 585 288 585 210 l 585 478 q 540 600 585 556 q 417 644 494 644 q 294 599 340 644 q 249 478 249 554 l 249 288 m 96 478 q 119 601 96 546 q 183 696 142 657 q 285 756 225 735 q 417 778 344 778 q 549 756 490 778 q 650 696 608 735 q 715 601 692 657 q 738 478 738 546 l 738 288 q 715 163 738 219 q 650 68 692 107 q 549 8 608 29 q 417 -14 490 -14 q 285 8 344 -14 q 183 69 225 29 q 119 164 142 108 q 96 288 96 219 l 96 478 z "},"с":{"ha":833,"x_min":106,"x_max":746,"o":"m 425 -14 q 292 7 351 -14 q 192 67 233 28 q 128 161 150 106 q 106 285 106 217 l 106 479 q 128 603 106 547 q 192 697 150 658 q 292 757 233 736 q 425 778 351 778 q 545 760 490 778 q 642 707 600 742 q 710 624 683 672 q 746 514 738 575 l 593 514 q 538 608 583 572 q 425 644 492 644 q 301 601 346 644 q 257 479 257 557 l 257 285 q 301 164 257 207 q 425 121 346 121 q 538 156 492 121 q 593 250 583 192 l 746 250 q 641 57 726 128 q 425 -14 556 -14 z "},"у":{"ha":833,"x_min":58,"x_max":775,"o":"m 225 764 l 386 343 q 404 288 397 315 q 414 238 411 261 q 421 188 419 211 l 432 188 q 438 238 433 211 q 448 288 442 260 q 464 343 454 315 l 614 764 l 775 764 l 410 -229 l 247 -229 l 353 49 l 58 764 l 225 764 z "},"х":{"ha":833,"x_min":54,"x_max":779,"o":"m 329 393 l 71 764 l 249 764 l 390 549 q 408 514 403 532 q 414 499 413 506 l 421 499 q 426 514 422 506 q 444 549 431 528 l 588 764 l 763 764 l 506 394 l 779 0 l 601 0 l 447 235 q 435 254 440 244 q 428 271 431 264 q 421 288 424 279 l 413 288 q 406 269 410 279 q 399 253 403 263 q 388 235 394 244 l 231 0 l 54 0 l 329 393 z "},"р":{"ha":833,"x_min":111,"x_max":738,"o":"m 257 764 l 257 632 l 268 632 q 338 740 283 701 q 476 778 393 778 q 583 757 535 778 q 666 697 632 736 q 719 603 700 658 q 738 479 738 549 l 738 288 q 719 162 738 218 q 666 67 700 106 q 583 7 632 28 q 476 -14 535 -14 q 338 24 393 -14 q 268 132 283 63 l 257 132 q 258 114 257 128 q 261 81 260 100 q 263 41 263 63 q 264 0 264 19 l 264 -229 l 111 -229 l 111 764 l 257 764 m 264 288 q 306 165 264 211 q 421 119 349 119 q 541 165 497 119 q 585 289 585 211 l 585 476 q 541 601 585 556 q 421 646 497 646 q 307 600 350 646 q 264 476 264 554 l 264 288 z "},"П":{"ha":833,"x_min":114,"x_max":719,"o":"m 114 0 l 114 1000 l 719 1000 l 719 0 l 568 0 l 568 860 l 267 860 l 267 0 l 114 0 z "},"Б":{"ha":833,"x_min":121,"x_max":761,"o":"m 121 1000 l 719 1000 l 719 860 l 268 860 l 268 603 l 451 603 q 578 581 521 603 q 676 519 636 558 q 739 424 717 479 q 761 301 761 368 q 739 179 761 235 q 676 84 717 124 q 578 22 636 44 q 451 0 521 0 l 121 0 l 121 1000 m 428 133 q 557 181 508 133 q 606 303 606 228 q 558 423 606 378 q 428 468 510 468 l 268 468 l 268 133 l 428 133 z "},"И":{"ha":833,"x_min":106,"x_max":728,"o":"m 106 0 l 106 1000 l 246 1000 l 246 356 q 243 283 246 319 q 237 218 240 247 q 231 171 233 189 q 229 153 229 153 l 242 153 q 257 217 249 185 q 272 275 264 244 q 289 329 281 306 l 538 1000 l 728 1000 l 728 0 l 588 0 l 588 647 q 590 724 588 688 q 594 788 592 760 q 601 849 597 819 l 589 849 q 575 790 583 819 q 560 733 568 764 q 540 672 551 701 l 296 0 l 106 0 z "},"Т":{"ha":833,"x_min":58,"x_max":775,"o":"m 58 1000 l 775 1000 l 775 863 l 494 863 l 494 0 l 339 0 l 339 863 l 58 863 l 58 1000 z "},"Г":{"ha":833,"x_min":142,"x_max":746,"o":"m 746 1000 l 746 860 l 294 860 l 294 0 l 142 0 l 142 1000 l 746 1000 z "},"Ж":{"ha":833,"x_min":4,"x_max":829,"o":"m 172 518 l 17 1000 l 157 1000 l 292 560 l 353 560 l 353 1000 l 479 1000 l 479 560 l 542 560 l 675 1000 l 815 1000 l 663 519 l 829 0 l 689 0 l 544 474 l 479 474 l 482 0 l 354 0 l 353 474 l 288 474 l 143 0 l 4 0 l 172 518 z "},"Ц":{"ha":833,"x_min":114,"x_max":801,"o":"m 267 1000 l 267 139 l 544 139 l 544 1000 l 697 1000 l 697 139 l 801 139 l 801 -192 l 663 -192 l 663 0 l 114 0 l 114 1000 l 267 1000 z "},"Щ":{"ha":833,"x_min":65,"x_max":804,"o":"m 65 0 l 65 1000 l 200 1000 l 200 118 l 335 118 l 335 1000 l 468 1000 l 468 118 l 606 118 l 606 1000 l 739 1000 l 739 118 l 804 118 l 804 -192 l 683 -192 l 683 0 l 65 0 z "},"Ш":{"ha":833,"x_min":76,"x_max":757,"o":"m 206 1000 l 206 111 l 354 111 l 354 1000 l 482 1000 l 482 111 l 629 111 l 629 1000 l 757 1000 l 757 0 l 78 0 l 76 1000 l 206 1000 z "},"З":{"ha":833,"x_min":68,"x_max":751,"o":"m 81 729 q 108 847 83 794 q 174 936 132 899 q 276 994 217 974 q 407 1014 335 1014 q 542 995 482 1014 q 644 941 601 976 q 710 856 688 906 q 733 743 733 806 q 683 591 733 650 q 546 525 632 532 l 546 515 q 697 446 642 508 q 751 279 751 383 q 727 158 751 213 q 658 66 703 104 q 550 7 614 28 q 407 -14 486 -14 q 272 6 333 -14 q 167 60 211 25 q 98 147 124 96 q 68 261 72 199 l 221 261 q 278 158 228 194 q 407 121 328 121 q 544 164 493 121 q 594 279 594 207 q 544 397 594 354 q 407 440 494 440 l 271 440 l 271 578 l 407 578 q 533 619 486 578 q 581 729 581 660 q 533 840 581 799 q 407 881 486 881 q 283 840 331 881 q 233 729 236 799 l 81 729 z "},"Й":{"ha":833,"x_min":106,"x_max":728,"o":"m 106 0 l 106 1000 l 246 1000 l 246 356 q 243 283 246 319 q 237 218 240 247 q 231 171 233 189 q 229 153 229 153 l 242 153 q 257 217 249 185 q 272 275 264 244 q 289 329 281 306 l 538 1000 l 728 1000 l 728 0 l 588 0 l 588 647 q 590 724 588 688 q 594 788 592 760 q 601 849 597 819 l 589 849 q 575 790 583 819 q 560 733 568 764 q 540 672 551 701 l 296 0 l 106 0 m 185 1306 l 308 1306 q 415 1215 308 1215 q 525 1306 525 1215 l 649 1306 q 632 1227 649 1263 q 585 1167 615 1192 q 512 1128 554 1142 q 417 1114 469 1114 q 322 1128 365 1114 q 249 1167 279 1142 q 201 1227 218 1192 q 185 1306 185 1263 z "},"Ѕ":{"ha":833,"x_min":86,"x_max":747,"o":"m 417 -14 q 285 6 344 -14 q 181 60 225 25 q 113 147 138 96 q 86 261 88 199 l 243 261 q 295 158 246 196 q 419 121 344 121 q 548 158 501 121 q 594 258 594 194 q 560 356 594 314 q 461 418 525 397 l 356 453 q 110 742 110 531 q 192 941 110 868 q 421 1014 275 1014 q 545 995 489 1014 q 642 942 601 976 q 708 857 683 907 q 733 744 732 807 l 576 744 q 530 844 575 807 q 418 881 485 881 q 304 846 346 881 q 263 753 263 811 q 294 662 263 699 q 393 603 325 625 l 504 568 q 685 453 624 532 q 747 265 747 375 q 724 150 747 201 q 658 63 701 99 q 554 6 615 26 q 417 -14 493 -14 z "},"ѕ":{"ha":833,"x_min":92,"x_max":736,"o":"m 390 -14 q 183 41 263 -14 q 92 192 103 96 l 250 192 q 297 132 258 154 q 390 110 335 110 l 440 110 q 547 138 508 110 q 585 214 585 165 q 463 314 585 297 l 351 329 q 169 400 228 344 q 110 556 110 456 q 184 719 110 661 q 396 778 258 778 l 444 778 q 641 724 565 778 q 731 579 717 671 l 574 579 q 531 634 565 614 q 444 654 496 654 l 396 654 q 296 630 331 654 q 261 557 261 606 q 287 494 261 517 q 369 465 313 472 l 483 450 q 675 376 614 432 q 736 218 736 321 q 660 47 736 107 q 440 -14 583 -14 l 390 -14 z "},"і":{"ha":833,"x_min":122,"x_max":771,"o":"m 122 0 l 122 139 l 399 139 l 399 626 l 157 626 l 157 764 l 546 764 l 546 139 l 771 139 l 771 0 l 122 0 m 438 1063 l 469 1063 q 539 1038 513 1063 q 565 974 565 1014 q 539 910 565 933 q 469 886 513 886 l 438 886 q 369 910 394 886 q 343 974 343 933 q 369 1038 343 1014 q 438 1063 394 1063 z "},"Ю":{"ha":833,"x_min":28,"x_max":806,"o":"m 171 1000 l 171 585 l 296 585 l 296 756 q 315 861 296 814 q 367 942 333 908 q 447 995 400 976 q 551 1014 494 1014 q 655 995 608 1014 q 735 942 701 976 q 787 861 768 908 q 806 756 806 814 l 806 246 q 787 140 806 188 q 735 58 768 92 q 655 5 701 24 q 551 -14 608 -14 q 447 5 494 -14 q 367 58 400 24 q 315 140 333 92 q 296 246 296 188 l 296 456 l 171 456 l 171 0 l 28 0 l 28 1000 l 171 1000 m 440 240 q 471 144 440 178 q 551 111 501 111 q 631 144 600 111 q 663 240 663 178 l 663 760 q 631 856 663 822 q 551 889 600 889 q 471 856 501 889 q 440 760 440 822 l 440 240 z "},"Ь":{"ha":833,"x_min":115,"x_max":775,"o":"m 115 1000 l 268 1000 l 268 604 l 456 604 q 587 583 528 604 q 688 522 646 561 q 752 426 729 482 q 775 303 775 371 q 752 178 775 235 q 688 83 729 122 q 587 22 646 43 q 456 0 528 0 l 115 0 l 115 1000 m 447 136 q 573 181 526 136 q 619 301 619 226 q 573 423 619 378 q 447 468 526 468 l 268 468 l 268 136 l 447 136 z "},"Ы":{"ha":833,"x_min":71,"x_max":763,"o":"m 71 1000 l 207 1000 l 207 603 l 276 603 q 475 528 404 603 q 546 329 546 453 l 546 272 q 475 75 546 150 q 276 0 404 0 l 71 0 l 71 1000 m 626 1000 l 763 1000 l 763 0 l 626 0 l 626 1000 m 207 475 l 207 128 l 274 128 q 374 167 340 128 q 408 274 408 207 l 408 328 q 374 435 408 396 q 274 475 340 475 l 207 475 z "},"Ъ":{"ha":833,"x_min":10,"x_max":792,"o":"m 10 869 l 10 1000 l 308 1000 l 308 603 l 472 603 q 603 581 544 603 q 704 520 663 560 q 769 425 746 481 q 792 301 792 369 q 769 178 792 233 q 704 83 746 122 q 603 22 663 43 q 472 0 544 0 l 156 0 l 156 869 l 10 869 m 308 467 l 308 136 l 463 136 q 589 181 542 136 q 636 301 636 226 q 589 422 636 376 q 463 467 542 467 l 308 467 z "},"Я":{"ha":833,"x_min":63,"x_max":719,"o":"m 63 0 l 264 429 q 126 533 176 461 q 76 704 76 604 q 99 826 76 771 q 164 919 122 881 q 265 978 206 957 q 396 1000 324 1000 l 719 1000 l 719 0 l 568 0 l 568 407 l 417 407 l 231 0 l 63 0 m 396 535 l 568 535 l 568 868 l 396 868 q 277 822 322 868 q 232 700 232 776 q 276 580 232 625 q 396 535 321 535 z "},"Э":{"ha":833,"x_min":89,"x_max":729,"o":"m 242 268 q 292 161 249 200 q 408 122 336 122 q 532 166 488 122 q 576 288 576 210 l 576 439 l 254 439 l 254 574 l 576 574 l 576 714 q 531 834 576 790 q 408 878 486 878 q 292 839 336 878 q 242 732 249 800 l 89 732 q 121 849 96 797 q 188 938 146 901 q 285 994 229 975 q 408 1014 340 1014 q 541 993 482 1014 q 642 934 600 972 q 706 841 683 896 q 729 718 729 786 l 729 282 q 706 160 729 215 q 642 67 683 106 q 541 7 600 28 q 408 -14 482 -14 q 285 6 340 -14 q 188 62 229 25 q 121 151 146 99 q 89 268 96 203 l 242 268 z "},"Л":{"ha":833,"x_min":25,"x_max":722,"o":"m 171 1000 l 722 1000 l 722 0 l 569 0 l 569 860 l 321 860 l 314 342 q 65 -7 310 -7 l 25 -7 l 25 133 l 56 133 q 134 183 108 133 q 163 342 160 232 l 171 1000 z "},"Д":{"ha":833,"x_min":32,"x_max":801,"o":"m 32 -194 l 32 131 l 88 131 q 124 228 107 169 q 149 356 138 278 q 164 542 161 433 l 172 1000 l 708 1000 l 708 131 l 801 131 l 801 -194 l 663 -194 l 663 0 l 171 0 l 171 -194 l 32 -194 m 560 131 l 560 867 l 315 867 l 311 542 q 299 353 310 429 q 276 231 289 278 q 244 142 263 175 l 244 131 l 560 131 z "},"У":{"ha":833,"x_min":46,"x_max":788,"o":"m 214 1000 l 388 546 q 405 491 399 518 q 415 440 411 464 q 422 390 419 414 l 433 390 q 439 440 435 414 q 448 490 442 463 q 464 546 454 518 l 624 1000 l 788 1000 l 413 0 l 251 0 l 354 261 l 46 1000 l 214 1000 z "},"Ф":{"ha":833,"x_min":60,"x_max":774,"o":"m 60 674 q 81 796 60 740 q 140 890 101 851 q 231 951 178 929 q 350 972 285 972 l 350 1065 l 483 1065 l 483 972 q 602 951 549 972 q 694 890 656 929 q 753 796 732 851 q 774 674 774 740 l 774 357 q 753 236 774 290 q 693 144 732 182 q 601 84 654 106 q 483 63 549 63 l 483 -31 l 350 -31 l 350 63 q 233 84 286 63 q 140 144 179 106 q 81 236 101 182 q 60 357 60 290 l 60 674 m 483 186 q 597 233 554 186 q 640 357 640 279 l 640 674 q 597 801 640 753 q 483 849 554 849 l 483 186 m 193 357 q 236 233 193 279 q 350 186 279 186 l 350 849 q 236 801 279 849 q 193 674 193 753 l 193 357 z "},"Ч":{"ha":833,"x_min":89,"x_max":719,"o":"m 240 1000 l 240 639 q 286 531 240 571 q 410 490 332 490 q 484 495 454 490 q 533 507 514 500 q 568 524 554 514 l 568 1000 l 719 1000 l 719 0 l 568 0 l 568 301 q 569 341 568 325 q 569 368 569 357 q 571 390 569 381 q 568 389 569 390 q 510 369 557 383 q 379 354 464 354 q 258 374 313 354 q 167 430 204 393 q 109 519 129 467 q 89 635 89 571 l 89 1000 l 240 1000 z "},"н":{"ha":833,"x_min":114,"x_max":719,"o":"m 267 764 l 267 454 l 568 454 l 568 764 l 719 764 l 719 0 l 568 0 l 568 314 l 267 314 l 267 0 l 114 0 l 114 764 l 267 764 z "},"ё":{"ha":833,"x_min":96,"x_max":736,"o":"m 417 -14 q 284 7 343 -14 q 183 67 225 28 q 119 160 142 106 q 96 282 96 214 l 96 482 q 119 605 96 550 q 183 698 142 660 q 284 757 225 736 q 417 778 343 778 q 549 757 490 778 q 650 698 608 736 q 714 605 692 660 q 736 482 736 550 l 736 342 l 249 342 l 249 288 q 293 160 249 206 q 417 114 338 114 q 517 132 475 114 q 579 185 560 150 l 731 185 q 690 103 718 139 q 622 40 663 67 q 528 0 581 14 q 417 -14 476 -14 m 586 453 l 586 482 q 542 606 586 561 q 417 651 497 651 q 293 606 338 651 q 249 482 249 561 l 249 453 l 586 453 m 185 1006 q 210 1068 185 1044 q 275 1092 235 1092 q 340 1068 315 1092 q 365 1006 365 1044 q 340 943 365 967 q 275 919 315 919 q 210 943 235 919 q 185 1006 185 967 m 468 1006 q 493 1068 468 1044 q 558 1092 518 1092 q 624 1068 599 1092 q 649 1006 649 1044 q 624 943 649 967 q 558 919 599 919 q 493 943 518 919 q 468 1006 468 967 z "},"и":{"ha":833,"x_min":110,"x_max":724,"o":"m 110 764 l 253 764 l 253 338 q 250 266 253 301 q 244 202 247 231 q 240 156 242 174 q 238 139 238 139 l 251 139 q 269 193 260 165 q 288 244 278 217 q 310 296 299 272 l 533 764 l 724 764 l 724 0 l 581 0 l 581 429 q 583 504 581 469 q 588 567 585 539 q 593 626 589 599 l 579 626 q 563 576 572 603 q 544 526 556 554 q 519 468 533 497 l 301 0 l 110 0 l 110 764 z "},"я":{"ha":833,"x_min":67,"x_max":719,"o":"m 260 283 q 127 366 174 307 q 81 514 81 425 q 158 698 81 632 q 372 764 235 764 l 719 764 l 719 0 l 568 0 l 568 269 l 414 269 l 244 0 l 67 0 l 260 283 m 378 635 q 274 603 311 635 q 236 514 236 571 q 274 427 236 458 q 378 396 311 396 l 568 396 l 568 635 l 378 635 z "},"п":{"ha":833,"x_min":114,"x_max":719,"o":"m 114 0 l 114 764 l 719 764 l 719 0 l 568 0 l 568 624 l 267 624 l 267 0 l 114 0 z "},"л":{"ha":833,"x_min":25,"x_max":722,"o":"m 171 764 l 722 764 l 722 0 l 569 0 l 569 624 l 321 624 l 314 315 q 249 72 311 150 q 65 -7 188 -7 l 25 -7 l 25 133 l 56 133 q 136 177 111 133 q 163 324 161 221 l 171 764 z "},"д":{"ha":833,"x_min":32,"x_max":801,"o":"m 32 -194 l 32 131 l 88 131 q 124 201 107 160 q 149 290 138 238 q 164 415 161 343 l 171 764 l 708 764 l 708 131 l 801 131 l 801 -194 l 663 -194 l 663 0 l 171 0 l 171 -194 l 32 -194 m 246 131 l 560 131 l 560 631 l 315 631 l 310 422 q 298 291 308 344 q 276 204 288 238 q 246 142 263 165 l 246 131 z "},"г":{"ha":833,"x_min":146,"x_max":743,"o":"m 743 764 l 743 624 l 299 624 l 299 0 l 146 0 l 146 764 l 743 764 z "},"к":{"ha":833,"x_min":118,"x_max":792,"o":"m 118 0 l 118 764 l 271 764 l 271 454 l 406 454 l 615 764 l 788 764 l 536 394 l 792 0 l 615 0 l 407 322 l 271 322 l 271 0 l 118 0 z "},"м":{"ha":833,"x_min":83,"x_max":750,"o":"m 83 0 l 83 764 l 268 764 l 388 467 q 399 434 394 451 q 407 401 404 417 q 415 364 411 382 l 425 364 q 433 401 429 382 q 443 434 438 417 q 454 467 449 451 l 565 764 l 750 764 l 750 0 l 613 0 l 613 436 q 615 493 613 464 q 619 547 617 522 q 625 606 621 576 l 614 606 q 597 549 606 576 q 581 498 590 525 q 564 450 572 471 l 485 239 l 351 239 l 269 450 q 253 499 263 472 q 238 550 244 526 q 221 607 229 578 l 210 607 q 215 549 213 579 q 219 494 218 524 q 221 436 221 464 l 221 0 l 83 0 z "},"ф":{"ha":833,"x_min":60,"x_max":774,"o":"m 351 0 q 138 75 215 0 q 60 283 60 150 l 60 483 q 138 690 60 615 q 351 764 215 764 l 351 1010 l 482 1010 l 482 764 q 696 690 618 764 q 774 483 774 615 l 774 283 q 696 75 774 150 q 482 0 618 0 l 482 -229 l 351 -229 l 351 0 m 642 483 q 599 603 642 560 q 482 646 557 646 l 482 119 q 599 163 557 119 q 642 283 642 206 l 642 483 m 192 283 q 234 163 192 206 q 351 119 276 119 l 351 646 q 234 603 276 646 q 192 483 192 560 l 192 283 z "},"й":{"ha":833,"x_min":110,"x_max":724,"o":"m 110 764 l 253 764 l 253 338 q 250 266 253 301 q 244 202 247 231 q 240 156 242 174 q 238 139 238 139 l 251 139 q 269 193 260 165 q 288 244 278 217 q 310 296 299 272 l 533 764 l 724 764 l 724 0 l 581 0 l 581 429 q 583 504 581 469 q 588 567 585 539 q 593 626 589 599 l 579 626 q 563 576 572 603 q 544 526 556 554 q 519 468 533 497 l 301 0 l 110 0 l 110 764 m 176 1090 l 299 1090 q 331 1023 299 1046 q 415 1000 363 1000 q 501 1023 468 1000 q 535 1090 535 1046 l 657 1090 q 639 1012 657 1047 q 589 951 621 976 q 513 911 557 925 q 417 897 469 897 q 321 911 365 897 q 244 951 276 925 q 194 1012 213 976 q 176 1090 176 1047 z "},"т":{"ha":833,"x_min":58,"x_max":775,"o":"m 58 764 l 775 764 l 775 626 l 494 626 l 494 0 l 339 0 l 339 626 l 58 626 l 58 764 z "},"ж":{"ha":833,"x_min":6,"x_max":828,"o":"m 167 392 l 17 764 l 156 764 l 282 431 l 353 431 l 353 764 l 481 764 l 481 431 l 551 431 l 678 764 l 817 764 l 667 396 l 828 0 l 683 0 l 553 347 l 481 347 l 481 0 l 353 0 l 353 347 l 281 347 l 150 0 l 6 0 l 167 392 z "},"в":{"ha":833,"x_min":114,"x_max":746,"o":"m 114 764 l 464 764 q 659 710 590 764 q 728 560 728 656 q 683 449 728 489 q 557 404 638 408 l 557 394 q 697 347 649 392 q 746 218 746 303 q 672 58 746 115 q 468 0 599 0 l 114 0 l 114 764 m 261 328 l 261 122 l 463 122 q 559 149 525 122 q 593 224 593 175 q 559 300 593 272 q 463 328 525 328 l 261 328 m 261 447 l 457 447 q 544 473 513 447 q 575 544 575 499 q 544 615 575 589 q 457 642 514 642 l 261 642 l 261 447 z "},"ш":{"ha":833,"x_min":76,"x_max":757,"o":"m 207 764 l 207 111 l 353 111 l 353 764 l 482 764 l 482 111 l 629 111 l 629 764 l 757 764 l 757 0 l 78 0 l 76 764 l 207 764 z "},"щ":{"ha":833,"x_min":74,"x_max":794,"o":"m 74 0 l 74 764 l 200 764 l 200 115 l 344 115 l 344 764 l 471 764 l 471 115 l 608 115 l 608 764 l 733 764 l 733 115 l 794 115 l 794 -192 l 675 -192 l 675 0 l 74 0 z "},"ь":{"ha":833,"x_min":115,"x_max":775,"o":"m 115 764 l 268 764 l 268 500 l 493 500 q 701 435 628 500 q 775 250 775 369 q 701 66 775 132 q 493 0 628 0 l 115 0 l 115 764 m 483 136 q 585 165 550 136 q 619 250 619 194 q 585 335 619 306 q 483 364 550 364 l 268 364 l 268 136 l 483 136 z "},"ъ":{"ha":833,"x_min":0,"x_max":794,"o":"m 0 764 l 338 764 l 338 500 l 510 500 q 719 434 644 500 q 794 250 794 368 q 719 66 794 132 q 511 0 644 0 l 185 0 l 185 625 l 0 625 l 0 764 m 338 364 l 338 136 l 506 136 q 603 166 568 136 q 639 250 639 196 q 603 334 639 304 q 506 364 568 364 l 338 364 z "},"э":{"ha":833,"x_min":86,"x_max":728,"o":"m 86 525 q 192 712 107 646 q 407 778 276 778 q 540 758 481 778 q 640 699 599 738 q 705 606 682 661 q 728 483 728 551 l 728 279 q 705 157 728 211 q 640 65 682 103 q 540 6 599 26 q 407 -14 481 -14 q 192 52 276 -14 q 86 239 107 118 l 239 239 q 296 153 250 185 q 407 121 342 121 q 531 163 486 121 q 575 285 575 206 l 575 324 l 317 324 l 317 451 l 575 451 l 575 479 q 530 601 575 557 q 407 644 485 644 q 296 613 342 644 q 239 525 250 581 l 86 525 z "},"ц":{"ha":833,"x_min":114,"x_max":801,"o":"m 267 764 l 267 139 l 544 139 l 544 764 l 697 764 l 697 139 l 801 139 l 801 -192 l 663 -192 l 663 0 l 114 0 l 114 764 l 267 764 z "},"ю":{"ha":833,"x_min":71,"x_max":764,"o":"m 201 764 l 201 447 l 315 447 l 315 544 q 375 715 315 653 q 539 778 435 778 q 703 715 643 778 q 764 544 764 653 l 764 221 q 703 49 764 113 q 539 -14 643 -14 q 375 49 435 -14 q 315 221 315 113 l 315 326 l 201 326 l 201 0 l 71 0 l 71 764 l 201 764 m 444 221 q 469 133 444 165 q 539 101 494 101 q 609 133 583 101 q 635 221 635 165 l 635 544 q 609 631 635 599 q 539 663 583 663 q 469 631 494 663 q 444 544 444 599 l 444 221 z "},"ч":{"ha":833,"x_min":89,"x_max":719,"o":"m 379 215 q 258 235 313 215 q 167 291 204 254 q 109 380 129 328 q 89 496 89 432 l 89 764 l 240 764 l 240 500 q 286 392 240 432 q 410 351 332 351 q 484 356 454 351 q 533 368 514 361 q 568 383 554 375 l 568 764 l 719 764 l 719 0 l 568 0 l 568 161 q 569 201 568 185 q 569 228 569 217 q 571 250 569 240 q 568 249 569 250 q 510 229 557 243 q 379 215 464 215 z "},"ы":{"ha":833,"x_min":76,"x_max":757,"o":"m 211 764 l 211 500 l 268 500 q 469 434 399 500 q 540 249 540 368 q 467 67 540 133 q 268 0 394 0 l 76 0 l 76 764 l 211 764 m 622 764 l 757 764 l 757 0 l 622 0 l 622 764 m 211 119 l 265 119 q 368 154 331 119 q 406 249 406 189 q 369 344 406 308 q 265 381 332 381 l 211 381 l 211 119 z "},"з":{"ha":833,"x_min":74,"x_max":740,"o":"m 82 565 q 113 651 89 613 q 175 716 138 689 q 263 758 213 743 q 371 774 313 774 l 450 774 q 650 717 578 774 q 722 564 722 661 q 677 451 722 493 q 549 403 632 408 l 549 394 q 694 342 649 388 q 740 214 740 297 q 663 50 740 110 q 454 -10 586 -10 l 372 -10 q 168 44 247 -10 q 74 194 89 99 l 229 194 q 276 139 239 160 q 372 118 314 118 l 454 118 q 549 147 515 118 q 583 222 583 175 q 550 299 583 271 q 454 328 517 328 l 265 328 l 265 453 l 449 453 q 535 479 506 453 q 565 550 565 506 q 535 621 565 596 q 450 646 506 646 l 371 646 q 282 624 318 646 q 238 565 246 601 l 82 565 z "},"б":{"ha":833,"x_min":96,"x_max":738,"o":"m 96 618 q 122 783 96 710 q 199 908 149 857 q 319 986 249 958 q 479 1014 390 1014 l 694 1014 l 694 864 l 479 864 q 310 798 372 864 q 249 618 249 732 l 249 551 l 263 551 q 300 621 274 590 q 363 669 322 647 q 472 690 404 690 q 667 612 596 690 q 738 396 738 533 l 738 288 q 715 163 738 218 q 650 67 692 107 q 549 7 608 28 q 417 -14 490 -14 q 182 67 268 -14 q 96 288 96 147 l 96 618 m 249 288 q 294 165 249 208 q 417 121 339 121 q 540 165 496 121 q 585 288 585 208 l 585 396 q 540 519 585 475 q 417 563 496 563 q 294 519 339 563 q 249 396 249 475 l 249 288 z "},"≠":{"ha":833,"x_min":111,"x_max":722,"o":"m 111 358 l 299 358 l 389 558 l 111 558 l 111 697 l 453 697 l 556 924 l 699 924 l 596 697 l 722 697 l 722 558 l 532 558 l 442 358 l 722 358 l 722 219 l 378 219 l 278 0 l 135 0 l 235 219 l 111 219 l 111 358 z "},"Ё":{"ha":833,"x_min":125,"x_max":729,"o":"m 125 0 l 125 1000 l 729 1000 l 729 864 l 278 864 l 278 582 l 681 582 l 681 446 l 278 446 l 278 136 l 729 136 l 729 0 l 125 0 m 185 1228 q 210 1290 185 1267 q 275 1314 235 1314 q 340 1290 315 1314 q 365 1228 365 1267 q 340 1165 365 1189 q 275 1142 315 1142 q 210 1165 235 1142 q 185 1228 185 1189 m 468 1228 q 493 1290 468 1267 q 558 1314 518 1314 q 624 1290 599 1314 q 649 1228 649 1267 q 624 1165 649 1189 q 558 1142 599 1142 q 493 1165 518 1142 q 468 1228 468 1189 z "},"І":{"ha":833,"x_min":122,"x_max":711,"o":"m 122 0 l 122 133 l 339 133 l 339 867 l 122 867 l 122 1000 l 711 1000 l 711 867 l 494 867 l 494 133 l 711 133 l 711 0 l 122 0 z "},"Ї":{"ha":833,"x_min":122,"x_max":711,"o":"m 122 0 l 122 133 l 339 133 l 339 867 l 122 867 l 122 1000 l 711 1000 l 711 867 l 494 867 l 494 133 l 711 133 l 711 0 l 122 0 m 185 1228 q 210 1290 185 1267 q 275 1314 235 1314 q 340 1290 315 1314 q 365 1228 365 1267 q 340 1165 365 1189 q 275 1142 315 1142 q 210 1165 235 1142 q 185 1228 185 1189 m 468 1228 q 493 1290 468 1267 q 558 1314 518 1314 q 624 1290 599 1314 q 649 1228 649 1267 q 624 1165 649 1189 q 558 1142 599 1142 q 493 1165 518 1142 q 468 1228 468 1189 z "},"Ј":{"ha":833,"x_min":51,"x_max":704,"o":"m 375 119 q 503 166 456 119 q 551 290 551 213 l 551 863 l 181 863 l 181 1000 l 704 1000 l 704 290 q 681 163 704 219 q 616 67 658 107 q 513 7 574 28 q 375 -14 451 -14 q 153 60 240 -14 q 51 260 67 133 l 204 260 q 260 158 213 197 q 375 119 307 119 z "},"ї":{"ha":833,"x_min":114,"x_max":767,"o":"m 185 1006 q 210 1068 185 1044 q 275 1092 235 1092 q 340 1068 315 1092 q 365 1006 365 1044 q 340 943 365 967 q 275 919 315 919 q 210 943 235 919 q 185 1006 185 967 m 468 1006 q 493 1068 468 1044 q 558 1092 518 1092 q 624 1068 599 1092 q 649 1006 649 1044 q 624 943 649 967 q 558 919 599 919 q 493 943 518 919 q 468 1006 468 967 m 114 139 l 399 139 l 399 626 l 149 626 l 149 764 l 546 764 l 546 139 l 767 139 l 767 0 l 114 0 l 114 139 z "},"ј":{"ha":833,"x_min":121,"x_max":646,"o":"m 469 624 l 157 624 l 157 764 l 622 764 l 622 74 q 599 -49 622 7 q 535 -145 576 -106 q 438 -207 494 -185 q 311 -229 381 -229 l 121 -229 l 121 -87 l 306 -87 q 425 -43 381 -87 q 469 74 469 1 l 469 624 m 551 1063 q 620 1038 594 1063 q 646 974 646 1014 q 620 910 646 933 q 550 886 594 886 l 518 886 q 449 910 475 886 q 424 974 424 933 q 449 1038 424 1014 q 518 1063 475 1063 l 551 1063 z "},"Ґ":{"ha":833,"x_min":142,"x_max":746,"o":"m 600 1000 l 600 1146 l 746 1146 l 746 860 l 294 860 l 294 0 l 142 0 l 142 1000 l 600 1000 z "},"ґ":{"ha":833,"x_min":142,"x_max":746,"o":"m 600 764 l 600 910 l 746 910 l 746 624 l 294 624 l 294 0 l 142 0 l 142 764 l 600 764 z "},"Ѓ":{"ha":833,"x_min":142,"x_max":746,"o":"m 746 1000 l 746 860 l 294 860 l 294 0 l 142 0 l 142 1000 l 746 1000 m 400 1111 l 257 1111 l 406 1314 l 576 1314 l 400 1111 z "},"ѓ":{"ha":833,"x_min":146,"x_max":743,"o":"m 743 764 l 743 624 l 299 624 l 299 0 l 146 0 l 146 764 l 743 764 m 400 899 l 257 899 l 406 1101 l 576 1101 l 400 899 z "},"Ќ":{"ha":833,"x_min":114,"x_max":801,"o":"m 267 1000 l 267 586 l 408 586 l 615 1000 l 789 1000 l 543 522 l 801 0 l 626 0 l 408 450 l 267 450 l 267 0 l 114 0 l 114 1000 l 267 1000 m 400 1111 l 257 1111 l 406 1314 l 576 1314 l 400 1111 z "},"ќ":{"ha":833,"x_min":118,"x_max":792,"o":"m 118 0 l 118 764 l 271 764 l 271 454 l 406 454 l 615 764 l 788 764 l 536 394 l 792 0 l 615 0 l 407 322 l 271 322 l 271 0 l 118 0 m 400 899 l 257 899 l 406 1101 l 576 1101 l 400 899 z "},"Ў":{"ha":833,"x_min":46,"x_max":788,"o":"m 214 1000 l 388 546 q 405 491 399 518 q 415 440 411 464 q 422 390 419 414 l 433 390 q 439 440 435 414 q 448 490 442 463 q 464 546 454 518 l 624 1000 l 788 1000 l 413 0 l 251 0 l 354 261 l 46 1000 l 214 1000 m 185 1306 l 308 1306 q 415 1215 308 1215 q 525 1306 525 1215 l 649 1306 q 632 1227 649 1263 q 585 1167 615 1192 q 512 1128 554 1142 q 417 1114 469 1114 q 322 1128 365 1114 q 249 1167 279 1142 q 201 1227 218 1192 q 185 1306 185 1263 z "},"ў":{"ha":833,"x_min":58,"x_max":775,"o":"m 225 764 l 386 343 q 404 288 397 315 q 414 238 411 261 q 421 188 419 211 l 432 188 q 438 238 433 211 q 448 288 442 260 q 464 343 454 315 l 614 764 l 775 764 l 410 -229 l 247 -229 l 353 49 l 58 764 l 225 764 m 176 1093 l 299 1093 q 331 1026 299 1049 q 415 1003 363 1003 q 501 1026 468 1003 q 535 1093 535 1049 l 657 1093 q 639 1015 657 1050 q 589 953 621 979 q 513 914 557 928 q 417 900 469 900 q 321 914 365 900 q 244 953 276 928 q 194 1015 213 979 q 176 1093 176 1050 z "},"Џ":{"ha":833,"x_min":114,"x_max":719,"o":"m 267 1000 l 267 140 l 568 140 l 568 1000 l 719 1000 l 719 0 l 493 0 l 493 -174 l 340 -174 l 340 0 l 114 0 l 114 1000 l 267 1000 z "},"џ":{"ha":833,"x_min":114,"x_max":719,"o":"m 267 764 l 267 140 l 568 140 l 568 764 l 719 764 l 719 0 l 493 0 l 493 -174 l 340 -174 l 340 0 l 114 0 l 114 764 l 267 764 z "},"Њ":{"ha":833,"x_min":68,"x_max":810,"o":"m 68 0 l 68 1000 l 197 1000 l 197 608 l 386 608 l 386 1000 l 517 1000 l 517 608 l 574 608 q 746 547 682 608 q 810 379 810 485 l 810 229 q 746 62 810 124 q 574 0 682 0 l 386 0 l 386 489 l 197 489 l 197 0 l 68 0 m 517 121 l 574 121 q 651 150 622 121 q 681 229 681 179 l 681 378 q 651 459 681 429 q 574 489 622 489 l 517 489 l 517 121 z "},"њ":{"ha":833,"x_min":68,"x_max":813,"o":"m 68 0 l 68 764 l 197 764 l 197 497 l 386 497 l 386 764 l 517 764 l 517 497 l 588 497 q 751 438 690 497 q 813 281 813 379 l 813 213 q 797 126 813 165 q 751 58 781 86 q 680 15 721 31 q 589 0 639 0 l 386 0 l 386 378 l 197 378 l 197 0 l 68 0 m 517 121 l 588 121 q 657 146 631 121 q 683 214 683 171 l 683 281 q 657 351 683 325 q 588 376 631 376 l 517 376 l 517 121 z "},"Љ":{"ha":833,"x_min":-10,"x_max":810,"o":"m -10 -7 l -10 121 l 17 121 q 74 164 53 121 q 96 275 94 207 l 104 1000 l 517 1000 l 517 604 l 574 604 q 746 542 682 604 q 810 375 810 481 l 810 229 q 746 62 810 124 q 574 0 682 0 l 386 0 l 386 881 l 232 881 l 225 275 q 214 177 225 228 q 178 86 203 126 q 115 19 154 46 q 18 -7 75 -7 l -10 -7 m 517 121 l 574 121 q 651 150 622 121 q 681 229 681 179 l 681 374 q 651 454 681 425 q 574 483 622 483 l 517 483 l 517 121 z "},"љ":{"ha":833,"x_min":-7,"x_max":813,"o":"m -7 -7 l -7 125 l 18 125 q 76 165 54 125 q 99 275 97 206 l 104 764 l 517 764 l 517 497 l 588 497 q 751 438 690 497 q 813 282 813 379 l 813 213 q 751 58 813 117 q 589 0 690 0 l 386 0 l 386 642 l 233 642 l 229 275 q 213 159 228 211 q 172 70 199 107 q 106 13 144 33 q 21 -7 68 -7 l -7 -7 m 588 119 q 657 145 631 119 q 683 213 683 171 l 683 282 q 657 351 683 325 q 588 378 631 378 l 517 378 l 517 119 l 588 119 z "},"є":{"ha":833,"x_min":108,"x_max":750,"o":"m 750 525 q 644 712 729 646 q 429 778 560 778 q 297 758 356 778 q 196 699 238 738 q 131 606 154 661 q 108 483 108 551 l 108 279 q 131 157 108 211 q 196 65 154 103 q 297 6 238 26 q 429 -14 356 -14 q 644 52 560 -14 q 750 239 729 118 l 597 239 q 540 153 586 185 q 429 121 494 121 q 306 163 350 121 q 261 285 261 206 l 261 324 l 519 324 l 519 451 l 261 451 l 261 479 q 306 601 261 557 q 429 644 351 644 q 540 613 494 644 q 597 525 586 581 l 750 525 z "},"Є":{"ha":833,"x_min":104,"x_max":744,"o":"m 592 268 q 541 161 585 200 q 425 122 497 122 q 301 166 346 122 q 257 288 257 210 l 257 439 l 579 439 l 579 574 l 257 574 l 257 714 q 302 834 257 790 q 425 878 347 878 q 541 839 497 878 q 592 732 585 800 l 744 732 q 713 849 738 797 q 646 938 688 901 q 549 994 604 975 q 425 1014 493 1014 q 292 993 351 1014 q 192 934 233 972 q 127 841 150 896 q 104 718 104 786 l 104 282 q 127 160 104 215 q 192 67 150 106 q 292 7 233 28 q 425 -14 351 -14 q 549 6 493 -14 q 646 62 604 25 q 713 151 688 99 q 744 268 738 203 l 592 268 z "},"ћ":{"ha":833,"x_min":18,"x_max":722,"o":"m 18 764 l 18 872 l 110 872 l 110 1014 l 263 1014 l 263 872 l 403 872 l 403 764 l 263 764 l 263 697 q 261 653 263 676 q 258 611 260 631 q 255 578 256 592 q 254 565 254 565 l 267 565 q 335 673 282 635 q 471 711 389 711 q 574 692 528 711 q 653 636 621 672 q 704 549 686 600 q 722 436 722 499 l 722 0 l 571 0 l 571 415 q 530 537 571 493 q 418 581 489 581 q 304 535 346 581 q 263 410 263 489 l 263 0 l 110 0 l 110 764 l 18 764 z "},"ђ":{"ha":833,"x_min":18,"x_max":722,"o":"m 18 764 l 18 872 l 110 872 l 110 1014 l 263 1014 l 263 872 l 403 872 l 403 764 l 263 764 l 263 697 q 261 653 263 676 q 258 611 260 631 q 255 578 256 592 q 254 565 254 565 l 267 565 q 335 673 282 635 q 471 711 389 711 q 653 638 586 711 q 722 440 719 564 l 722 46 q 701 -67 722 -17 q 640 -154 679 -118 q 544 -210 600 -190 q 422 -229 489 -229 l 333 -229 l 333 -86 l 426 -86 q 532 -49 493 -86 q 571 54 571 -12 l 571 415 q 530 537 571 493 q 418 581 489 581 q 304 538 346 581 q 263 419 263 494 l 263 0 l 110 0 l 110 764 l 18 764 z "},"Ћ":{"ha":833,"x_min":0,"x_max":761,"o":"m 0 1000 l 463 1000 l 463 863 l 301 863 l 301 563 l 322 586 q 417 661 365 635 q 521 688 468 688 q 619 669 575 688 q 694 616 663 650 q 744 534 726 582 q 761 426 761 486 l 761 0 l 608 0 l 608 406 q 494 557 608 557 q 357 488 418 557 l 301 425 l 301 0 l 149 0 l 149 863 l 0 863 l 0 1000 z "},"Ђ":{"ha":833,"x_min":0,"x_max":761,"o":"m 0 1000 l 463 1000 l 463 863 l 301 863 l 301 563 l 322 586 q 417 661 365 635 q 521 688 468 688 q 619 669 575 688 q 694 616 663 650 q 744 534 726 582 q 761 426 761 486 l 761 46 q 740 -67 761 -17 q 678 -154 718 -118 q 583 -210 639 -190 q 461 -229 528 -229 l 372 -229 l 372 -86 l 465 -86 q 570 -49 532 -86 q 608 54 608 -12 l 608 406 q 494 557 608 557 q 357 488 418 557 l 301 425 l 301 0 l 149 0 l 149 863 l 0 863 l 0 1000 z "},"ĳ":{"ha":833,"x_min":96,"x_max":738,"o":"m 296 -229 l 296 -93 l 411 -93 q 517 -57 479 -93 q 556 42 556 -21 l 556 764 l 708 764 l 708 42 q 687 -69 708 -19 q 626 -155 665 -119 q 533 -210 588 -190 q 411 -229 478 -229 l 296 -229 m 283 764 l 283 0 l 135 0 l 135 764 l 283 764 m 96 974 q 122 1038 96 1014 q 190 1063 147 1063 l 224 1063 q 292 1038 267 1063 q 318 974 318 1014 q 292 910 318 933 q 222 886 267 886 l 190 886 q 122 910 147 886 q 96 974 96 933 m 610 886 q 541 910 567 886 q 515 974 515 933 q 541 1038 515 1014 q 610 1063 567 1063 l 642 1063 q 711 1038 685 1063 q 738 974 738 1014 q 711 910 738 933 q 642 886 685 886 l 610 886 z "},"Ĳ":{"ha":833,"x_min":86,"x_max":753,"o":"m 358 135 l 438 135 q 558 175 517 135 q 600 290 600 215 l 600 861 l 401 861 l 401 1000 l 753 1000 l 753 290 q 671 75 753 150 q 438 0 589 0 l 358 0 l 358 135 m 86 0 l 86 1000 l 240 1000 l 240 0 l 86 0 z "},"μ":{"ha":833,"x_min":114,"x_max":719,"o":"m 267 764 l 267 279 q 302 160 267 201 q 415 119 338 119 q 531 160 494 119 q 568 279 568 201 l 568 764 l 719 764 l 719 279 q 644 63 719 140 q 432 -14 568 -14 q 324 4 365 -14 q 260 43 283 22 q 219 100 232 68 l 213 100 q 217 88 214 100 q 226 58 221 76 q 235 19 231 40 q 240 -18 239 -1 l 260 -229 l 114 -229 l 114 764 l 267 764 z "},"∏":{"ha":833,"x_min":114,"x_max":719,"o":"m 114 0 l 114 1000 l 719 1000 l 719 0 l 568 0 l 568 860 l 267 860 l 267 0 l 114 0 z "},"∫":{"ha":833,"x_min":38,"x_max":796,"o":"m 796 1014 l 796 871 l 636 871 q 531 834 569 871 q 493 731 493 797 l 493 46 q 472 -67 493 -17 q 410 -154 450 -118 q 315 -210 371 -190 q 192 -229 260 -229 l 38 -229 l 38 -86 l 197 -86 q 302 -49 264 -86 q 340 54 340 -12 l 340 739 q 362 852 340 801 q 423 939 383 903 q 518 994 463 975 q 642 1014 574 1014 l 796 1014 z "},"Ω":{"ha":833,"x_min":69,"x_max":765,"o":"m 69 0 l 69 139 l 271 139 l 271 146 q 183 182 222 154 q 151 210 167 193 q 124 249 136 226 q 103 301 111 272 q 96 368 96 331 l 96 711 q 119 836 96 781 q 183 931 142 892 q 284 992 225 971 q 417 1014 343 1014 q 549 992 490 1014 q 650 931 608 971 q 715 836 692 892 q 738 711 738 781 l 738 368 q 710 249 738 293 q 650 182 683 206 q 563 147 611 156 l 563 139 l 765 139 l 765 0 l 472 0 l 472 208 q 553 251 522 208 q 585 361 585 293 l 585 711 q 539 835 585 789 q 417 881 493 881 q 294 835 340 881 q 249 711 249 789 l 249 361 q 280 251 249 293 q 361 208 311 208 l 361 0 l 69 0 z "},"∆":{"ha":833,"x_min":74,"x_max":760,"o":"m 317 1000 l 525 1000 l 760 124 l 760 0 l 74 0 l 74 124 l 317 1000 m 226 124 l 607 124 l 444 763 q 433 813 438 789 q 426 857 429 838 q 421 899 424 879 l 414 899 q 407 857 411 879 q 399 813 404 838 q 388 763 394 789 l 226 124 z "},"∑":{"ha":833,"x_min":76,"x_max":750,"o":"m 76 860 l 76 1000 l 750 1000 l 750 863 l 363 863 l 263 867 l 263 864 l 622 463 l 622 304 l 257 -93 l 257 -96 l 357 -92 l 750 -92 l 750 -229 l 76 -229 l 76 -89 l 501 381 l 76 860 z "},"π":{"ha":833,"x_min":22,"x_max":806,"o":"m 671 244 q 696 163 671 192 q 765 133 721 133 l 806 133 l 806 -7 l 765 -7 q 587 61 653 -7 q 521 246 521 129 l 521 624 l 279 624 l 279 0 l 129 0 l 129 625 l 22 625 l 22 764 l 781 764 l 781 628 l 671 628 l 671 244 z "}}}
